<?xml version="1.0" standalone="no"?>
<!DOCTYPE svg PUBLIC "-//W3C//DTD SVG 20010904//EN"
 "http://www.w3.org/TR/2001/REC-SVG-20010904/DTD/svg10.dtd">
<svg version="1.0" xmlns="http://www.w3.org/2000/svg"
 width="700.000000pt" height="700.000000pt" viewBox="0 0 700.000000 700.000000"
 preserveAspectRatio="xMidYMid meet">
<metadata>
Created by potrace 1.11, written by Peter Selinger 2001-2013
</metadata>
<g transform="translate(0.000000,700.000000) scale(0.100000,-0.100000)"
fill="#000000" stroke="none">
<path d="M0 3500 l0 -3500 3500 0 3500 0 0 3500 0 3500 -3500 0 -3500 0 0
-3500z m3994 3003 c9 -45 276 -1542 276 -1548 0 -3 351 -5 780 -5 l780 0 0
-1750 0 -1750 -465 0 c-256 0 -465 -2 -465 -4 0 -3 40 -231 90 -508 49 -277
90 -509 90 -516 0 -10 -95 -12 -457 -10 l-457 3 -53 370 c-29 204 -52 371 -53
373 0 1 -255 1 -567 0 l-566 -3 -47 -250 c-26 -137 -58 -305 -70 -372 l-23
-123 -458 0 c-253 0 -459 1 -459 3 0 5 210 988 217 1015 l5 22 -461 0 -461 0
0 1750 0 1750 834 0 834 0 4 23 c3 12 78 367 168 790 l164 767 407 0 407 0 6
-27z"/>
</g>
</svg>
