<svg xmlns="http://www.w3.org/2000/svg" xmlns:xlink="http://www.w3.org/1999/xlink" viewBox="0 0 192 96"><g id="bg"><rect fill="rgba(255,255,255,0)" width="192" height="96"/></g>
<g id="logo">
	<polygon fill="#2A2A28" points="66.882,13.875 57.94,13.875 57.94,5 5,5 5,57.942 57.94,57.942 57.94,20 66.882,20 	"/>
	<rect x="14" y="20" fill="#FFFFFF" width="36" height="26"/>
	<g>
		<path fill="#E2D112" d="M28.412,7.6h6.333l8.503,47.49h-7.147l-0.814-5.788h-8.774l-1.086,5.788h-7.146L28.412,7.6z M27.417,43.874h6.965l-2.985-21.166L27.417,43.874z"/>
	</g>
</g>
<g id="bram-name" class="bram-name">
			<path fill="#2A2A28" d="M5,69.239h6.844c1.179,0,2.199,0.126,3.06,0.377s1.566,0.604,2.117,1.058 c0.551,0.455,0.957,0.996,1.218,1.624c0.261,0.628,0.392,1.32,0.392,2.074c0,0.909-0.29,1.75-0.87,2.523 c-0.58,0.773-1.411,1.354-2.494,1.74c1.373,0.348,2.445,0.928,3.219,1.74c0.773,0.812,1.16,1.769,1.16,2.871 c0,1.817-0.619,3.224-1.856,4.219c-1.238,0.996-3.209,1.494-5.916,1.494H5V69.239z M11.583,77.591 c2.165,0,3.248-0.938,3.248-2.813c0-0.889-0.275-1.581-0.827-2.073c-0.551-0.493-1.406-0.74-2.566-0.74H8.712v5.626H11.583z M11.438,86.233c0.696,0,1.314-0.043,1.856-0.13c0.541-0.087,0.991-0.247,1.349-0.479c0.357-0.232,0.628-0.541,0.812-0.928 c0.184-0.386,0.275-0.879,0.275-1.479c0-1.044-0.333-1.798-1-2.262s-1.639-0.696-2.915-0.696H8.712v5.974H11.438z"/>
			<path fill="#2A2A28" d="M22.806,74.981h3.567v1.682h0.087c0.367-0.483,0.889-0.909,1.566-1.276s1.44-0.551,2.291-0.551 c0.367,0,0.715,0.029,1.044,0.087v2.987H31.1c-0.155-0.039-0.319-0.068-0.493-0.087c-0.174-0.019-0.348-0.029-0.522-0.029 c-0.735,0-1.445,0.13-2.131,0.392c-0.687,0.261-1.214,0.643-1.581,1.146v9.628h-3.567V74.981z"/>
			<path fill="#2A2A28" d="M41.453,87.654h-0.116c-0.348,0.387-0.855,0.75-1.522,1.088c-0.667,0.338-1.494,0.507-2.479,0.507 c-0.696,0-1.325-0.106-1.885-0.319c-0.561-0.213-1.039-0.503-1.436-0.87s-0.696-0.797-0.899-1.291 c-0.203-0.493-0.304-1.03-0.304-1.609c0-1.508,0.546-2.615,1.638-3.321c1.092-0.706,2.634-1.059,4.625-1.059h2.204v-0.87 c0-0.928-0.232-1.576-0.696-1.943c-0.464-0.367-1.295-0.551-2.494-0.551c-0.812,0-1.585,0.063-2.32,0.188 c-0.735,0.126-1.276,0.275-1.624,0.45h-0.261v-2.581c0.445-0.213,1.121-0.396,2.03-0.551c0.908-0.154,1.895-0.232,2.958-0.232 c1.14,0,2.092,0.097,2.856,0.29c0.763,0.193,1.377,0.483,1.841,0.87s0.792,0.88,0.986,1.479c0.193,0.6,0.29,1.305,0.29,2.117 v9.512h-3.393V87.654z M36.349,84.942c0,0.576,0.193,1.026,0.58,1.353c0.387,0.327,0.889,0.49,1.508,0.49 c0.329,0,0.652-0.043,0.971-0.13c0.319-0.086,0.604-0.197,0.855-0.331c0.251-0.134,0.469-0.278,0.653-0.432 c0.184-0.153,0.304-0.297,0.362-0.432v-2.533H39.51c-1.044,0-1.832,0.159-2.363,0.475C36.614,83.719,36.349,84.232,36.349,84.942 z"/>
			<path fill="#2A2A28" d="M48.848,74.981h3.509v1.363h0.116c0.483-0.444,1.097-0.831,1.842-1.16 c0.744-0.329,1.609-0.493,2.595-0.493c2.011,0,3.364,0.687,4.06,2.059c0.619-0.561,1.32-1.044,2.103-1.45 c0.783-0.406,1.726-0.609,2.828-0.609c2.997,0,4.495,1.402,4.495,4.205v10.063h-3.538v-9.048c0-0.87-0.193-1.484-0.58-1.842 c-0.387-0.357-0.986-0.536-1.798-0.536c-0.6,0-1.165,0.116-1.697,0.348s-0.991,0.503-1.377,0.812v10.266h-3.567v-9.048 c0-0.87-0.188-1.484-0.565-1.842c-0.377-0.357-0.972-0.536-1.784-0.536c-0.619,0-1.199,0.121-1.74,0.362 c-0.542,0.242-0.986,0.527-1.334,0.855v10.208h-3.567V74.981z"/>
			<path fill="#2A2A28" d="M89.766,87.712H89.65c-0.329,0.368-0.803,0.715-1.421,1.044s-1.402,0.493-2.349,0.493 c-0.87,0-1.663-0.16-2.378-0.479c-0.716-0.319-1.334-0.778-1.856-1.377c-0.522-0.599-0.923-1.32-1.203-2.161 c-0.281-0.841-0.42-1.783-0.42-2.828c0-1.198,0.178-2.276,0.536-3.233c0.357-0.957,0.87-1.764,1.537-2.421 s1.474-1.16,2.421-1.508c0.947-0.348,2.011-0.522,3.19-0.522c0.406,0,0.788,0.029,1.146,0.087 c0.358,0.058,0.643,0.116,0.855,0.174V67.79h3.567v21.17h-3.509V87.712z M83.763,82.231c0,1.45,0.305,2.508,0.914,3.175 s1.358,1.001,2.248,1.001c0.657,0,1.218-0.111,1.682-0.334c0.464-0.222,0.831-0.497,1.102-0.826v-7.714 c-0.155-0.058-0.396-0.116-0.725-0.174c-0.329-0.058-0.667-0.087-1.015-0.087c-1.276,0-2.296,0.406-3.06,1.218 C84.145,79.302,83.763,80.549,83.763,82.231z"/>
			<path fill="#2A2A28" d="M103.425,74.691c1.024,0,1.914,0.169,2.668,0.507c0.754,0.339,1.373,0.808,1.856,1.407 c0.483,0.6,0.841,1.295,1.073,2.088c0.232,0.793,0.348,1.644,0.348,2.552c0,0.58-0.029,1.112-0.087,1.595h-9.164 c0.116,1.334,0.522,2.282,1.218,2.842c0.696,0.561,1.788,0.841,3.277,0.841c0.734,0,1.445-0.067,2.131-0.203 c0.686-0.135,1.213-0.299,1.581-0.493h0.261v2.552c-0.368,0.232-0.972,0.435-1.812,0.609c-0.841,0.174-1.793,0.261-2.857,0.261 c-1.315,0-2.446-0.165-3.393-0.493c-0.948-0.329-1.73-0.802-2.349-1.421c-0.619-0.619-1.073-1.368-1.363-2.248 c-0.29-0.879-0.435-1.88-0.435-3.001c0-1.121,0.154-2.136,0.464-3.045c0.309-0.909,0.763-1.687,1.363-2.334 c0.599-0.647,1.334-1.146,2.204-1.494S102.284,74.691,103.425,74.691z M103.309,77.214c-0.928,0-1.658,0.251-2.189,0.754 c-0.532,0.503-0.865,1.412-1,2.726h5.742c-0.039-1.083-0.257-1.933-0.653-2.552C104.812,77.524,104.179,77.214,103.309,77.214z" />
      <path fill="#2A2A28" d="M119.462,69.239h3.741v8.178h8.816v-8.178h3.712v19.72h-3.712v-8.497h-8.816v8.497h-3.741V69.239z"/>
			<path fill="#2A2A28" d="M147.968,87.654h-0.116c-0.348,0.387-0.855,0.75-1.522,1.088c-0.667,0.338-1.494,0.507-2.479,0.507 c-0.696,0-1.325-0.106-1.885-0.319c-0.561-0.213-1.039-0.503-1.436-0.87s-0.696-0.797-0.899-1.291 c-0.203-0.493-0.304-1.03-0.304-1.609c0-1.508,0.546-2.615,1.638-3.321c1.092-0.706,2.634-1.059,4.625-1.059h2.204v-0.87 c0-0.928-0.232-1.576-0.696-1.943c-0.464-0.367-1.295-0.551-2.494-0.551c-0.812,0-1.585,0.063-2.32,0.188 c-0.735,0.126-1.276,0.275-1.624,0.45h-0.261v-2.581c0.445-0.213,1.121-0.396,2.03-0.551c0.908-0.154,1.895-0.232,2.958-0.232 c1.14,0,2.092,0.097,2.856,0.29c0.763,0.193,1.377,0.483,1.841,0.87s0.792,0.88,0.986,1.479c0.193,0.6,0.29,1.305,0.29,2.117 v9.512h-3.393V87.654z M142.865,84.942c0,0.576,0.193,1.026,0.58,1.353c0.387,0.327,0.889,0.49,1.508,0.49 c0.329,0,0.652-0.043,0.971-0.13c0.319-0.086,0.604-0.197,0.855-0.331c0.251-0.134,0.469-0.278,0.653-0.432 c0.184-0.153,0.304-0.297,0.362-0.432v-2.533h-1.769c-1.044,0-1.832,0.159-2.363,0.475 C143.13,83.719,142.865,84.232,142.865,84.942z"/>
			<path fill="#2A2A28" d="M163.135,87.654h-0.116c-0.348,0.387-0.855,0.75-1.522,1.088c-0.667,0.338-1.494,0.507-2.479,0.507 c-0.696,0-1.325-0.106-1.885-0.319c-0.561-0.213-1.039-0.503-1.436-0.87s-0.696-0.797-0.899-1.291 c-0.203-0.493-0.304-1.03-0.304-1.609c0-1.508,0.546-2.615,1.638-3.321c1.092-0.706,2.634-1.059,4.625-1.059h2.204v-0.87 c0-0.928-0.232-1.576-0.696-1.943c-0.464-0.367-1.295-0.551-2.494-0.551c-0.812,0-1.585,0.063-2.32,0.188 c-0.735,0.126-1.276,0.275-1.624,0.45h-0.261v-2.581c0.445-0.213,1.121-0.396,2.03-0.551c0.908-0.154,1.895-0.232,2.958-0.232 c1.14,0,2.092,0.097,2.856,0.29c0.763,0.193,1.377,0.483,1.841,0.87s0.792,0.88,0.986,1.479c0.193,0.6,0.29,1.305,0.29,2.117 v9.512h-3.393V87.654z M158.032,84.942c0,0.576,0.193,1.026,0.58,1.353c0.387,0.327,0.889,0.49,1.508,0.49 c0.329,0,0.652-0.043,0.971-0.13c0.319-0.086,0.604-0.197,0.855-0.331c0.251-0.134,0.469-0.278,0.653-0.432 c0.184-0.153,0.304-0.297,0.362-0.432v-2.533h-1.769c-1.044,0-1.832,0.159-2.363,0.475 C158.297,83.719,158.032,84.232,158.032,84.942z"/>
			<path fill="#2A2A28" d="M170.53,74.981h3.509v1.363h0.116c0.483-0.444,1.097-0.831,1.842-1.16 c0.744-0.329,1.609-0.493,2.595-0.493c1.469,0,2.586,0.353,3.35,1.059c0.764,0.706,1.146,1.754,1.146,3.146v10.063h-3.567v-9.048 c0-0.87-0.188-1.484-0.565-1.842c-0.377-0.357-0.972-0.536-1.784-0.536c-0.619,0-1.199,0.121-1.74,0.362 c-0.542,0.242-0.986,0.527-1.334,0.855v10.208h-3.567V74.981z"/>
</g>
<g id="atelier-name" class="atelier-name">
	<path fill="#2A2A28" d="M70.328,55.136V13.94h18.445v6.167H77.02v10.939H87.9v5.702H77.02V48.91h12.336v6.226H70.328z"/>
	<path fill="#2A2A28" d="M95.707,55.136v-41.26h7.051v34.791h11.365v6.47H95.707z"/>
	<path fill="#2A2A28" d="M118.668,55.136v-41.26h6.993v41.26H118.668z"/>
	<path fill="#2A2A28" d="M134.053,55.136v-41.26h18.474v6.177h-11.773v10.957h10.898v5.71h-10.898V48.9h12.355v6.236H134.053z"/>
	<path fill="#2A2A28" d="M176.536,55.136l-6.41-17.6h-3.905v17.6h-6.76v-41.26h11.772c1.709,0,3.283,0.224,4.72,0.67 c1.438,0.447,2.671,1.156,3.701,2.127c1.028,0.972,1.835,2.195,2.418,3.671c0.583,1.478,0.874,3.245,0.874,5.304 c0,1.593-0.204,3.001-0.612,4.226c-0.407,1.223-0.922,2.264-1.543,3.118c-0.623,0.854-1.312,1.543-2.069,2.069 c-0.758,0.524-1.507,0.883-2.244,1.078l7.401,18.999H176.536z M176.07,25.997c0-1.243-0.174-2.273-0.524-3.088 c-0.35-0.816-0.808-1.457-1.37-1.924c-0.564-0.466-1.194-0.795-1.894-0.991c-0.699-0.194-1.399-0.291-2.098-0.291h-3.963v12.704 h3.963c1.709,0,3.118-0.533,4.225-1.602C175.516,29.737,176.07,28.134,176.07,25.997z"/>
</g>
</svg>

