<svg xmlns="http://www.w3.org/2000/svg" xmlns:xlink="http://www.w3.org/1999/xlink" viewBox="0 0 192 96"><g id="bg"><rect fill="rgba(255,255,255,0)" width="192" height="96"/></g><g id="BramdeHaan-32px-outline" class="bram-name"><path fill="#1f1f1e" d="M8.633,88.655V66.89c0-0.146,0.018-0.237,0.054-0.273c0.036-0.036,0.122-0.055,0.256-0.055h5.154 c2.039,0,3.635,0.521,4.789,1.562c1.154,1.042,1.731,2.453,1.731,4.234c0,1.927-0.766,3.359-2.297,4.297 c-0.083,0.052-0.125,0.115-0.125,0.188c0,0.073,0.042,0.125,0.125,0.156c1.039,0.427,1.851,1.106,2.436,2.037 c0.584,0.931,0.877,2.093,0.877,3.486c0,1.95-0.658,3.52-1.976,4.709c-1.286,1.157-3.011,1.736-5.175,1.736H8.939 c-0.143,0-0.23-0.016-0.26-0.047C8.648,88.89,8.633,88.801,8.633,88.655z M11.695,75.593c0,0.136,0.018,0.222,0.055,0.258 c0.036,0.037,0.127,0.055,0.273,0.055h2.109c1.021,0,1.836-0.292,2.445-0.875c0.609-0.583,0.914-1.401,0.914-2.453 c0-1-0.302-1.781-0.906-2.344c-0.604-0.562-1.422-0.844-2.453-0.844h-2.109c-0.146,0-0.237,0.019-0.273,0.055 c-0.037,0.037-0.055,0.123-0.055,0.258V75.593z M11.695,85.812c0,0.135,0.021,0.224,0.062,0.265 c0.042,0.042,0.13,0.062,0.266,0.062h3.031c1.073,0,1.917-0.343,2.531-1.029c0.614-0.686,0.922-1.601,0.922-2.744 c0-1.102-0.326-1.982-0.977-2.643c-0.651-0.66-1.529-0.99-2.633-0.99h-2.875c-0.146,0-0.237,0.019-0.273,0.055 c-0.037,0.036-0.055,0.122-0.055,0.257V85.812z"/><path fill="#1f1f1e" d="M25.102,88.655V75.312c0-0.125,0.021-0.211,0.062-0.258c0.042-0.047,0.13-0.07,0.266-0.07h2.172 c0.135,0,0.221,0.021,0.258,0.062c0.036,0.042,0.055,0.13,0.055,0.266v1.688c0,0.042,0.042,0.062,0.125,0.062 c0.073,0,0.12-0.01,0.141-0.031c0.333-0.646,0.898-1.2,1.695-1.664c0.797-0.463,1.627-0.695,2.492-0.695 c0.135,0,0.221,0.021,0.258,0.062c0.036,0.042,0.055,0.125,0.055,0.25v2.297c0,0.24-0.052,0.359-0.156,0.359l-0.141-0.016 c-0.094-0.01-0.208-0.021-0.344-0.031c-0.136-0.01-0.261-0.016-0.375-0.016c-1.198,0-2.123,0.484-2.773,1.453 c-0.651,0.969-0.977,2.328-0.977,4.078v5.547c0,0.125-0.019,0.208-0.055,0.25c-0.037,0.042-0.123,0.062-0.258,0.062H25.43 c-0.136,0-0.224-0.021-0.266-0.062C25.122,88.864,25.102,88.78,25.102,88.655z"/><path fill="#1f1f1e" d="M33.867,84.483c0-1.51,0.516-2.692,1.547-3.547c1.095-0.875,2.389-1.312,3.884-1.312 c1.454,0,2.665,0.375,3.632,1.125c0.021,0.021,0.062,0.031,0.124,0.031c0.083,0,0.125-0.078,0.125-0.234v-0.734 c0-1.854-1.106-2.781-3.32-2.781c-1.342,0-2.45,0.344-3.323,1.031c-0.064,0.083-0.139,0.117-0.224,0.102s-0.127-0.106-0.127-0.273 v-1.953c0-0.146,0.083-0.271,0.25-0.375c0.834-0.594,2.064-0.891,3.69-0.891c3.984,0,5.977,1.703,5.977,5.109v8.875 c0,0.125-0.022,0.208-0.066,0.25c-0.044,0.042-0.138,0.062-0.281,0.062H43.62c-0.144,0-0.234-0.021-0.273-0.062 c-0.038-0.042-0.058-0.125-0.058-0.25v-1.094c0-0.042-0.047-0.062-0.141-0.062c-0.062,0-0.104,0.011-0.124,0.031 c-0.904,1.167-2.146,1.75-3.726,1.75c-1.506,0-2.79-0.411-3.853-1.234C34.394,87.202,33.867,86.015,33.867,84.483z M36.68,84.39 c0,0.771,0.283,1.396,0.85,1.875c0.566,0.479,1.333,0.719,2.299,0.719c0.884,0,1.652-0.297,2.307-0.891s0.982-1.245,0.982-1.953 c0-0.646-0.317-1.188-0.951-1.625s-1.413-0.656-2.338-0.656c-0.945,0-1.707,0.234-2.283,0.703 C36.968,83.03,36.68,83.64,36.68,84.39z"/><path fill="#1f1f1e" d="M49.789,88.655V75.312c0-0.125,0.021-0.211,0.062-0.258c0.042-0.047,0.13-0.07,0.266-0.07h2.172 c0.135,0,0.221,0.021,0.258,0.062c0.036,0.042,0.055,0.13,0.055,0.266v1.266c0,0.052,0.042,0.078,0.125,0.078 c0.062,0,0.109-0.016,0.141-0.047c1.042-1.292,2.317-1.938,3.828-1.938c2.188,0,3.62,0.818,4.297,2.453 c0.083,0.083,0.167,0.083,0.25,0c1.385-1.635,2.88-2.453,4.484-2.453c3.364,0,5.047,1.802,5.047,5.406v8.578 c0,0.125-0.021,0.208-0.062,0.25c-0.041,0.042-0.129,0.062-0.264,0.062h-2.16c-0.135,0-0.223-0.021-0.264-0.062 c-0.042-0.042-0.062-0.125-0.062-0.25v-7.938c0-1.208-0.208-2.094-0.625-2.656c-0.417-0.562-1.115-0.844-2.094-0.844 c-1.094,0-1.958,0.367-2.594,1.102c-0.636,0.734-0.953,1.737-0.953,3.008v7.328c0,0.125-0.021,0.208-0.062,0.25 c-0.042,0.042-0.13,0.062-0.266,0.062h-2.172c-0.136,0-0.222-0.021-0.258-0.062c-0.037-0.042-0.055-0.125-0.055-0.25v-7.938 c0-1.208-0.208-2.094-0.625-2.656c-0.417-0.562-1.115-0.844-2.094-0.844c-1.094,0-1.961,0.367-2.602,1.102 s-0.961,1.737-0.961,3.008v7.328c0,0.125-0.019,0.208-0.055,0.25c-0.037,0.042-0.123,0.062-0.258,0.062h-2.172 c-0.136,0-0.224-0.021-0.266-0.062C49.81,88.864,49.789,88.78,49.789,88.655z"/><path fill="#1f1f1e" d="M81.664,81.952c0-2.01,0.656-3.724,1.969-5.141c1.322-1.427,2.96-2.141,4.913-2.141 c1.785,0,3.292,0.646,4.524,1.938c0.031,0.031,0.073,0.047,0.125,0.047c0.083,0,0.125-0.026,0.125-0.078V65.28 c0-0.125,0.021-0.208,0.062-0.25c0.042-0.042,0.13-0.062,0.266-0.062h2.172c0.135,0,0.221,0.021,0.258,0.062 c0.036,0.042,0.055,0.125,0.055,0.25v23.375c0,0.125-0.019,0.208-0.055,0.25c-0.037,0.042-0.123,0.062-0.258,0.062h-2.172 c-0.136,0-0.224-0.021-0.266-0.062c-0.042-0.042-0.062-0.125-0.062-0.25v-1.281c0-0.042-0.042-0.062-0.125-0.062 c-0.063,0-0.104,0.011-0.125,0.031c-1.294,1.292-2.802,1.938-4.524,1.938c-1.953,0-3.591-0.713-4.913-2.141 C82.32,85.692,81.664,83.963,81.664,81.952z M84.477,81.952c0,1.344,0.417,2.479,1.252,3.406c0.824,0.917,1.894,1.375,3.209,1.375 s2.369-0.458,3.162-1.375c0.813-0.938,1.221-2.073,1.221-3.406c0-1.312-0.417-2.432-1.252-3.359 c-0.793-0.917-1.837-1.375-3.131-1.375c-1.315,0-2.385,0.458-3.209,1.375C84.894,79.52,84.477,80.64,84.477,81.952z"/><path fill="#1f1f1e" d="M99.383,81.952c0-2.052,0.625-3.776,1.875-5.172c1.26-1.406,2.872-2.109,4.836-2.109 c2.024,0,3.61,0.703,4.757,2.109c1.146,1.375,1.72,3.099,1.72,5.172v0.906c0,0.125-0.021,0.208-0.062,0.25 c-0.041,0.042-0.128,0.062-0.261,0.062h-9.444c-0.146,0-0.241,0.019-0.288,0.055c-0.047,0.037-0.07,0.117-0.07,0.242 c0.114,1.021,0.559,1.82,1.333,2.398s1.801,0.867,3.079,0.867c0.663,0,1.424-0.13,2.283-0.391c0.817-0.25,1.402-0.567,1.754-0.953 c0.092-0.094,0.154-0.141,0.184-0.141c0.082,0,0.123,0.109,0.123,0.328v2.203c0,0.167-0.083,0.318-0.248,0.453 c-0.91,0.698-2.276,1.047-4.097,1.047c-2.413,0-4.259-0.682-5.539-2.047C100.028,85.858,99.383,84.098,99.383,81.952z M102.289,80.611c0,0.145,0.018,0.235,0.055,0.271c0.036,0.036,0.122,0.054,0.257,0.054h6.846c0.052,0.011,0.099,0.016,0.14,0.016 c0.062,0,0.109-0.016,0.14-0.047c0.021-0.021,0.031-0.062,0.031-0.124c0-0.971-0.369-1.838-1.107-2.603 c-0.613-0.641-1.466-0.961-2.557-0.961c-1.009,0-1.863,0.32-2.565,0.961C102.827,78.819,102.414,79.63,102.289,80.611z"/><path fill="#1f1f1e" d="M124.055,88.655V66.89c0-0.146,0.018-0.237,0.055-0.273c0.036-0.036,0.122-0.055,0.258-0.055h2.5 c0.135,0,0.221,0.019,0.258,0.055c0.036,0.037,0.055,0.128,0.055,0.273v8.844c0,0.136,0.021,0.224,0.062,0.266 c0.042,0.042,0.13,0.062,0.266,0.062h7.359c0.135,0,0.221-0.018,0.258-0.055c0.036-0.036,0.055-0.127,0.055-0.273V66.89 c0-0.135,0.021-0.224,0.062-0.266c0.042-0.042,0.129-0.062,0.264-0.062h2.473c0.145,0,0.235,0.021,0.271,0.062 c0.036,0.042,0.055,0.13,0.055,0.266v21.766c0,0.136-0.019,0.222-0.055,0.258c-0.036,0.037-0.127,0.055-0.271,0.055h-2.473 c-0.145,0-0.235-0.018-0.271-0.055c-0.037-0.036-0.055-0.122-0.055-0.258V79.28c0-0.146-0.016-0.234-0.047-0.266 s-0.12-0.047-0.266-0.047h-7.359c-0.146,0-0.237,0.019-0.273,0.055c-0.037,0.037-0.055,0.123-0.055,0.258v9.375 c0,0.146-0.016,0.234-0.047,0.266s-0.12,0.047-0.266,0.047h-2.5c-0.146,0-0.234-0.016-0.266-0.047S124.055,88.801,124.055,88.655z"/><path fill="#1f1f1e" d="M141.43,84.483c0-1.51,0.516-2.692,1.547-3.547c1.095-0.875,2.389-1.312,3.884-1.312 c1.454,0,2.665,0.375,3.632,1.125c0.021,0.021,0.062,0.031,0.124,0.031c0.083,0,0.125-0.078,0.125-0.234v-0.734 c0-1.854-1.106-2.781-3.32-2.781c-1.342,0-2.45,0.344-3.323,1.031c-0.064,0.083-0.139,0.117-0.224,0.102s-0.127-0.106-0.127-0.273 v-1.953c0-0.146,0.083-0.271,0.25-0.375c0.834-0.594,2.064-0.891,3.69-0.891c3.984,0,5.977,1.703,5.977,5.109v8.875 c0,0.125-0.022,0.208-0.066,0.25c-0.044,0.042-0.138,0.062-0.281,0.062h-2.134c-0.144,0-0.234-0.021-0.273-0.062 c-0.038-0.042-0.058-0.125-0.058-0.25v-1.094c0-0.042-0.047-0.062-0.141-0.062c-0.062,0-0.104,0.011-0.124,0.031 c-0.904,1.167-2.146,1.75-3.726,1.75c-1.506,0-2.79-0.411-3.853-1.234C141.956,87.202,141.43,86.015,141.43,84.483z M144.242,84.39c0,0.771,0.283,1.396,0.85,1.875c0.566,0.479,1.333,0.719,2.299,0.719c0.884,0,1.652-0.297,2.307-0.891 s0.982-1.245,0.982-1.953c0-0.646-0.317-1.188-0.951-1.625s-1.413-0.656-2.338-0.656c-0.945,0-1.707,0.234-2.283,0.703 C144.53,83.03,144.242,83.64,144.242,84.39z"/><path fill="#1f1f1e" d="M156.148,84.483c0-1.51,0.516-2.692,1.547-3.547c1.095-0.875,2.389-1.312,3.884-1.312 c1.454,0,2.665,0.375,3.632,1.125c0.021,0.021,0.062,0.031,0.124,0.031c0.083,0,0.125-0.078,0.125-0.234v-0.734 c0-1.854-1.106-2.781-3.32-2.781c-1.342,0-2.45,0.344-3.323,1.031c-0.064,0.083-0.139,0.117-0.224,0.102s-0.127-0.106-0.127-0.273 v-1.953c0-0.146,0.083-0.271,0.25-0.375c0.834-0.594,2.064-0.891,3.69-0.891c3.984,0,5.977,1.703,5.977,5.109v8.875 c0,0.125-0.022,0.208-0.066,0.25c-0.044,0.042-0.138,0.062-0.281,0.062h-2.134c-0.144,0-0.234-0.021-0.273-0.062 c-0.038-0.042-0.058-0.125-0.058-0.25v-1.094c0-0.042-0.047-0.062-0.141-0.062c-0.062,0-0.104,0.011-0.124,0.031 c-0.904,1.167-2.146,1.75-3.726,1.75c-1.506,0-2.79-0.411-3.853-1.234C156.675,87.202,156.148,86.015,156.148,84.483z M158.961,84.39c0,0.771,0.283,1.396,0.85,1.875c0.566,0.479,1.333,0.719,2.299,0.719c0.884,0,1.652-0.297,2.307-0.891 s0.982-1.245,0.982-1.953c0-0.646-0.317-1.188-0.951-1.625s-1.413-0.656-2.338-0.656c-0.945,0-1.707,0.234-2.283,0.703 C159.249,83.03,158.961,83.64,158.961,84.39z"/><path fill="#1f1f1e" d="M172.07,88.655V75.312c0-0.146,0.018-0.237,0.055-0.273c0.036-0.036,0.127-0.055,0.273-0.055h2.172 c0.135,0,0.221,0.021,0.258,0.062c0.036,0.042,0.055,0.13,0.055,0.266v1.266c0,0.052,0.042,0.078,0.125,0.078 c0.062,0,0.109-0.016,0.141-0.047c0.729-0.719,1.393-1.221,1.992-1.508c0.599-0.286,1.331-0.43,2.195-0.43 c3.344,0,5.016,1.802,5.016,5.406v8.578c0,0.125-0.021,0.208-0.062,0.25c-0.041,0.042-0.129,0.062-0.264,0.062h-2.16 c-0.135,0-0.223-0.021-0.264-0.062c-0.042-0.042-0.062-0.125-0.062-0.25v-7.938c0-2.333-0.958-3.5-2.875-3.5 c-1.115,0-2.023,0.373-2.727,1.117c-0.703,0.745-1.055,1.742-1.055,2.992v7.328c0,0.125-0.019,0.208-0.055,0.25 c-0.037,0.042-0.123,0.062-0.258,0.062h-2.172c-0.136,0-0.224-0.021-0.266-0.062C172.091,88.864,172.07,88.78,172.07,88.655z"/></g><g id="logo" class="logo"><polygon fill="#2a2a28" points="69.882,13.53 60.94,13.53 60.94,4 8,4 8,56.942 60.94,56.942 60.94,19.505 69.882,19.505"/><rect x="17" y="19" fill="#ffffff" width="36" height="26"/><path fill="#e2d112" d="M31.412,6.6h6.333l8.503,47.49h-7.147l-0.814-5.788h-8.774l-1.086,5.788h-7.146L31.412,6.6z M30.417,42.874h6.965l-2.985-21.166L30.417,42.874z"/></g><g id="Atelier-outline" class="atelier-name"><path fill="#2a2a28" d="M73.328,54.136V13.53h18.181v6.08H79.924v10.782h10.725v5.62H79.924v11.987h12.159v6.137H73.328z"/><path fill="#2a2a28" d="M98.344,54.136v-40.67h6.95v34.293h11.202v6.377H98.344z"/><path fill="#2a2a28" d="M120.977,54.136v-40.67h6.893v40.67H120.977z"/><path fill="#2a2a28" d="M136.141,54.136v-40.67h18.21v6.089h-11.604v10.8h10.742v5.629h-10.742v12.006h12.179v6.146H136.141z"/><path fill="#2a2a28" d="M178.016,54.136l-6.318-17.348h-3.849v17.348h-6.663v-40.67h11.604c1.685,0,3.235,0.221,4.652,0.661 c1.417,0.441,2.633,1.14,3.648,2.096c1.014,0.958,1.809,2.164,2.384,3.619c0.574,1.456,0.861,3.198,0.861,5.228 c0,1.57-0.201,2.958-0.604,4.165c-0.401,1.206-0.909,2.231-1.521,3.073c-0.613,0.842-1.293,1.521-2.039,2.039 c-0.747,0.517-1.485,0.871-2.212,1.062l7.295,18.727H178.016z M177.557,25.414c0-1.226-0.172-2.24-0.517-3.044 c-0.345-0.805-0.796-1.437-1.351-1.896c-0.556-0.459-1.177-0.784-1.866-0.977c-0.689-0.191-1.379-0.287-2.068-0.287h-3.906v12.522 h3.906c1.685,0,3.073-0.525,4.165-1.579C177.011,29.101,177.557,27.521,177.557,25.414z"/></g></svg>
