<?xml version="1.0" encoding="utf-8"?>
<svg xmlns="http://www.w3.org/2000/svg" xml:space="preserve" style="enable-background:new 0 0 1200 600" viewBox="0 0 1200 600"><path d="M51.0000343 424.6406555h46.9204063c4.53125 0 9.0097656.5390625 13.4296875 1.6142578 4.4199219 1.0791016 8.3569336 2.8349609 11.8149414 5.2705078 3.4560547 2.4375 6.2607422 5.5830078 8.4150391 9.4345703 2.1518555 3.8544922 3.2299805 8.5 3.2299805 13.9404297 0 6.7998047-1.9282227 12.4101562-5.7797852 16.8300781-3.8544922 4.4199219-8.8984375 7.59375-15.1298828 9.5195312v.3398438c7.5913086 1.0195312 13.8256836 3.96875 18.699707 8.8398438 4.871582 4.875 7.3100586 11.390625 7.3100586 19.5507812 0 6.5742493-1.3041992 12.0986633-3.9101562 16.5742493-2.6083984 4.4785156-6.034668 8.0751953-10.284668 10.7949219-4.25 2.7207031-9.1245117 4.6757812-14.6201172 5.8652344-5.4985352 1.1894531-11.0791016 1.7851562-16.7451172 1.7851562H51l.0000343-120.3594055zm21.4204064 48.9589844h19.0400391c7.1396484 0 12.5795898-1.4160156 16.3198242-4.25 3.7397461-2.8310547 5.6098633-6.8554688 5.6098633-12.0703125 0-5.4394531-1.9282227-9.2910156-5.7797852-11.5585938-3.8544922-2.2666016-9.8603516-3.4003906-18.0200195-3.4003906H72.4204407v31.2792969zm0 53.3808899h19.2099609c2.7197266 0 5.6655273-.1972656 8.8398438-.5957031 3.1713867-.3955078 6.0908203-1.2167969 8.7548828-2.4648438 2.6616211-1.2460938 4.871582-3.0605469 6.6303711-5.4394531 1.7553711-2.3808594 2.6347656-5.5527344 2.6347656-9.5205383 0-6.3457031-2.1542969-10.765625-6.4599609-13.2597656-4.3085938-2.4912109-10.8242188-3.7402344-19.5498047-3.7402344H72.4204407v35.0205383zM159.5942688 463.4004211h19.5498047v13.5996094h.3398438c2.2661133-4.7597656 5.4399414-8.6113281 9.5200195-11.5605469 4.0800781-2.9453125 8.840332-4.4199219 14.2802734-4.4199219.7915039 0 1.6416016.0292969 2.5498047.0859375.9057617.0585938 1.7001953.1992188 2.3798828.4238281v18.7011719c-1.3598633-.3398438-2.5234375-.5664062-3.4848633-.6806641-.9643555-.1113281-1.8994141-.1699219-2.8051758-.1699219-4.6484375 0-8.3881836.8505859-11.2197266 2.5498047-2.8344727 1.7001953-5.0444336 3.7402344-6.6298828 6.1201172-1.5888672 2.3798828-2.6645508 4.8193359-3.2299805 7.3095703-.5688477 2.4941406-.8500977 4.4785156-.8500977 5.9511719v43.6894836h-20.3999023v-81.5996398zM272.507843 534.6299438h-.5097656c-2.0400391 3.6279297-5.3286133 6.6035156-9.8603516 8.9248047-4.5341797 2.3222656-9.6899414 3.4853516-15.4697266 3.4853516-3.2885742 0-6.7148438-.4248047-10.2851562-1.2744141-3.5698242-.8505859-6.8583984-2.2666016-9.8598633-4.25-3.0043945-1.9824219-5.4985352-4.5908203-7.4799805-7.8203125-1.984375-3.2304688-2.9750977-7.2246094-2.9750977-11.9853516 0-6.1201172 1.7265625-10.9912415 5.1850586-14.6201477 3.4555664-3.625 7.9047852-6.4013672 13.3452148-8.3300781 5.4399414-1.9257812 11.4746094-3.2011719 18.1049805-3.8242188 6.6298828-.6220703 13.1162109-.9355469 19.4648438-.9355469v-2.0400391c0-5.1005859-1.8432617-8.8662109-5.5249023-11.3056641-3.6845703-2.4355469-8.0751953-3.6542969-13.175293-3.6542969-4.3081055 0-8.4438477.9082031-12.409668 2.7207031-3.96875 1.8134766-7.2543945 4.0234375-9.8603516 6.6289062l-10.5400391-12.4101562c4.6459961-4.3046875 10.0009766-7.5351562 16.0654297-9.6894531 6.0615234-2.1513672 12.2104492-3.2304688 18.4448242-3.2304688 7.2514648 0 13.230957 1.0205078 17.9350586 3.0605469 4.7016602 2.0400391 8.4150391 4.7041016 11.1347656 7.9902344 2.7202148 3.2880859 4.6166992 6.9697266 5.6953125 11.0498047 1.0756836 4.0800781 1.6147461 8.1591797 1.6147461 12.2392578v49.6406555H272.507843v-10.370117zm-.3398437-26.860382h-4.5898438c-3.2885742 0-6.7446289.1445312-10.3701172.4257812-3.628418.2832031-6.9702148.9082031-10.0302734 1.8691406-3.0600586.9648438-5.6098633 2.3242493-7.6499023 4.0801086-2.0400391 1.7587891-3.0600586 4.1660156-3.0600586 7.2255859 0 1.9287109.425293 3.5439453 1.2749023 4.8447266.8500977 1.3046875 1.9550781 2.3535156 3.3154297 3.1445312 1.3598633.7949219 2.8896484 1.3613281 4.5898438 1.7011719s3.3999023.5097656 5.1000977.5097656c7.0258789 0 12.3515625-1.8701172 15.9799805-5.6103516 3.6254883-3.7392578 5.4399414-8.8398438 5.4399414-15.2998352v-2.8906248zM411.9228821 461.0195618c5.3256836 0 9.8867188.9355469 13.6850586 2.8056641 3.7958984 1.8701172 6.9116211 4.3349609 9.3500977 7.3955078 2.4355469 3.0585938 4.2207031 6.5742188 5.3549805 10.5390625 1.1313477 3.96875 1.7001953 8.0488281 1.7001953 12.2402344v51.0000305h-20.4003906v-45.2207336c0-2.3789062-.1699219-4.8710938-.5097656-7.4794922-.3398438-2.6054688-1.0786133-4.9560547-2.2099609-7.0546875-1.1342773-2.0957031-2.6933594-3.8251953-4.675293-5.1845703-1.9838867-1.3603516-4.6191406-2.0410156-7.9047852-2.0410156-3.1743164 0-5.894043.6806641-8.1601562 2.0410156-2.2685547 1.359375-4.1381836 3.1171875-5.6098633 5.2695312-1.4741211 2.1542969-2.5498047 4.5634766-3.2299805 7.2246094-.6801758 2.6640625-1.0200195 5.2988281-1.0200195 7.9052734v44.5400696h-20.3999023v-49.2998352c0-5.1005859-1.2192383-9.3212891-3.6552734-12.6650391-2.4384766-3.3417969-6.2631836-5.015625-11.4746094-5.015625-3.0600586 0-5.7246094.6542969-7.9902344 1.9550781-2.2685547 1.3046875-4.109375 2.9755859-5.5249023 5.015625-1.418457 2.0390625-2.4941406 4.3925781-3.2299805 7.0546875-.7387695 2.6640625-1.1049805 5.3554688-1.1049805 8.0751953v44.8799133h-20.3999023v-81.5996399h19.3798828v13.0898438h.3398438c.9057617-2.0400391 2.125-3.9658203 3.6552734-5.7802734 1.5297852-1.8115234 3.3413086-3.4560547 5.4399414-4.9306641 2.0957031-1.4707031 4.5048828-2.6347656 7.2246094-3.484375 2.7202148-.8496094 5.7216797-1.2753906 9.0102539-1.2753906 6.3457031 0 11.6157227 1.4189453 15.8100586 4.25 4.1914062 2.8339844 7.4213867 6.5742188 9.6899414 11.2207031 2.7197266-4.9863281 6.3457031-8.8105469 10.8798828-11.4746094 4.5317381-2.6621094 9.8598631-3.9960937 15.9799803-3.9960937zM595.3530884 545.000061h-19.3803711v-12.2402344h-.3398438c-2.8339844 4.7597656-6.7734375 8.3886719-11.8149414 10.8808594-5.0444336 2.4902344-10.4550781 3.7392578-16.2348633 3.7392578-6.234375 0-11.8150024-1.1630859-16.7451172-3.4853516-4.9301758-2.3212891-9.1245117-5.4394531-12.5800781-9.3496094-3.4584961-3.9101562-6.1201172-8.5-7.9897766-13.7695312-1.8701172-5.2705078-2.8051758-10.9062805-2.8051758-16.9160461 0-6.0058594.9614258-11.6152344 2.8901367-16.8300781 1.9258118-5.2109375 4.6455383-9.7451172 8.1596985-13.5996094 3.5117188-3.8515625 7.7060547-6.8847656 12.5800781-9.0947266 4.871582-2.2099609 10.2001953-3.3154297 15.9799805-3.3154297 3.7402344 0 7.081543.4257812 10.0302734 1.2753906 2.9458008.8496094 5.5249023 1.8994141 7.7348633 3.1445312 2.2099609 1.2490234 4.1064453 2.609375 5.6948242 4.0800781 1.5859375 1.4746094 2.8901367 2.890625 3.9101562 4.25h.5097656v-57.2890625h20.4003906V545.000061zm-67.1503906-41.1406555c0 3.1748047.480957 6.3496094 1.4453125 9.5205383.9614258 3.1748047 2.40625 6.0087891 4.3349609 8.5 1.9257812 2.4941406 4.3613281 4.5341797 7.3100586 6.1201172 2.9458008 1.5878906 6.4013672 2.3798828 10.3696289 2.3798828 3.7402344 0 7.0820312-.7646484 10.0302734-2.2949219 2.9458008-1.5302734 5.4663086-3.5400391 7.5649414-6.0351562 2.0957031-2.4912109 3.6816406-5.2958984 4.7601929-8.4150391 1.0757446-3.1152649 1.6148071-6.2607727 1.6148071-9.4346008 0-3.171875-.5390625-6.3466797-1.6148071-9.5205078-1.0785522-3.171875-2.6644897-6.0058594-4.7601929-8.5-2.0986328-2.4912109-4.6191406-4.53125-7.5649414-6.1191406-2.9482422-1.5859375-6.2900391-2.3808594-10.0302734-2.3808594-3.9682617 0-7.4238281.765625-10.3696289 2.2949219-2.9487305 1.5302734-5.3842773 3.5439453-7.3100586 6.0351562-1.9287109 2.4941406-3.3735352 5.2988281-4.3349609 8.4150391-.9643555 3.1181641-1.4453125 6.2636719-1.4453125 9.4345703zM696.9937134 505.2207336v2.71875c0 .9091797-.0576172 1.8144531-.1699219 2.7207031h-62.0498047c.2255859 2.9482727.9912109 5.6387024 2.2949219 8.0742493 1.3017578 2.4394531 3.03125 4.5351562 5.1855469 6.2910156 2.1513672 1.7578125 4.5898438 3.1445312 7.3095703 4.1640625 2.7197266 1.0205078 5.5517578 1.53125 8.5 1.53125 5.0996094 0 9.40625-.9355469 12.9199219-2.8056641 3.5117188-1.8701172 6.4013672-4.4462891 8.6699219-7.7353516l13.6005859 10.8808594c-8.0488281 10.8789062-19.7207031 16.3193359-35.0205078 16.3193359-6.3486328 0-12.1835938-.9931641-17.5097656-2.9755859-5.328125-1.9804688-9.9453125-4.7851562-13.8554688-8.4140625-3.9091797-3.6259766-6.9697266-8.0751953-9.1796875-13.3457031-2.2099609-5.2695312-3.3144531-11.2461243-3.3144531-17.9346008 0-6.5712891 1.1044922-12.5507812 3.3144531-17.9345703 2.2099609-5.3818359 5.2412109-9.9726562 9.0947266-13.7705078 3.8515625-3.7958984 8.4150391-6.7412109 13.6855469-8.8398438 5.2695312-2.0957031 10.9648438-3.1455078 17.0849609-3.1455078 5.6660156 0 10.90625.9355469 15.7246094 2.8056641 4.8164062 1.8701172 8.9814453 4.6484375 12.4951172 8.3291016 3.5117188 3.6855469 6.2607422 8.2753906 8.2451172 13.7705078 1.9814452 5.4990234 2.9746093 11.9287109 2.9746093 19.2958984zm-20.3994141-9.180664c0-2.6064453-.3691406-5.1005859-1.1054688-7.4794922-.7382812-2.3808594-1.8994141-4.4765625-3.484375-6.2910156-1.5888672-1.8105469-3.5996094-3.2558594-6.0351562-4.3339844-2.4384766-1.0761719-5.2998047-1.6152344-8.5849609-1.6152344-6.1201172 0-11.3056641 1.84375-15.5556641 5.5253906-4.25 3.6835938-6.6025391 8.4140625-7.0546875 14.1943359h41.8203125zM764.3120728 424.6406555h21.4199219v48.6191406h56.2705078v-48.6191406h21.4199219V545.000061h-21.4199219v-53.3799133h-56.2705078v53.3799133h-21.4199219V424.6406555zM939.3950806 534.6299438h-.5107422c-2.0400391 3.6279297-5.328125 6.6035156-9.859375 8.9248047-4.5341797 2.3222656-9.6904297 3.4853516-15.4707031 3.4853516-3.2880859 0-6.7148438-.4248047-10.2841797-1.2744141-3.5703125-.8505859-6.8583984-2.2666016-9.8603516-4.25-3.0039062-1.9824219-5.4980469-4.5908203-7.4804688-7.8203125-1.9833984-3.2304688-2.9746094-7.2246094-2.9746094-11.9853516 0-6.1201172 1.7265625-10.9912415 5.1845703-14.6201477 3.4560547-3.625 7.9052734-6.4013672 13.3457031-8.3300781 5.4394531-1.9257812 11.4746094-3.2011719 18.1044922-3.8242188 6.6298828-.6220703 13.1171875-.9355469 19.4648438-.9355469v-2.0400391c0-5.1005859-1.8427734-8.8662109-5.5244141-11.3056641-3.6845703-2.4355469-8.0751953-3.6542969-13.1748047-3.6542969-4.3085938 0-8.4443359.9082031-12.4101562 2.7207031-3.96875 1.8134766-7.2548828 4.0234375-9.8603516 6.6289062l-10.5400391-12.4101562c4.6455078-4.3046875 10.0009766-7.5351562 16.0654297-9.6894531 6.0615234-2.1513672 12.2109375-3.2304688 18.4443359-3.2304688 7.2519531 0 13.2314453 1.0205078 17.9355469 3.0605469 4.7011719 2.0400391 8.4150391 4.7041016 11.1347656 7.9902344 2.7197266 3.2880859 4.6162109 6.9697266 5.6953125 11.0498047 1.0751953 4.0800781 1.6152344 8.1591797 1.6152344 12.2392578v49.6406555h-19.0400391v-10.370117zm-.3408203-26.860382h-4.5898438c-3.2880859 0-6.7441406.1445312-10.3701172.4257812-3.6279297.2832031-6.9697266.9082031-10.0292969 1.8691406-3.0605469.9648438-5.6103516 2.3242493-7.6503906 4.0801086-2.0400391 1.7587891-3.0595703 4.1660156-3.0595703 7.2255859 0 1.9287109.4248047 3.5439453 1.2744141 4.8447266.8505859 1.3046875 1.9550781 2.3535156 3.3154297 3.1445312 1.359375.7949219 2.8896484 1.3613281 4.5898438 1.7011719s3.4003906.5097656 5.0996094.5097656c7.0263672 0 12.3515625-1.8701172 15.9804688-5.6103516 3.6259766-3.7392578 5.4394531-8.8398438 5.4394531-15.2998352v-2.8906248zM1032.0942383 534.6299438h-.5107422c-2.0400391 3.6279297-5.328125 6.6035156-9.859314 8.9248047-4.5341797 2.3222656-9.6904297 3.4853516-15.4707031 3.4853516-3.2880859 0-6.7148438-.4248047-10.2841797-1.2744141-3.5703125-.8505859-6.8583984-2.2666016-9.8603516-4.25-3.0039062-1.9824219-5.4980469-4.5908203-7.4804688-7.8203125-1.9833984-3.2304688-2.9746094-7.2246094-2.9746094-11.9853516 0-6.1201172 1.7265625-10.9912415 5.1845703-14.6201477 3.4560547-3.625 7.9052734-6.4013672 13.3457031-8.3300781 5.4394531-1.9257812 11.4746094-3.2011719 18.1044922-3.8242188 6.6298828-.6220703 13.1171265-.9355469 19.4647827-.9355469v-2.0400391c0-5.1005859-1.8427734-8.8662109-5.5244141-11.3056641-3.6845093-2.4355469-8.0751343-3.6542969-13.1747437-3.6542969-4.3085938 0-8.4443359.9082031-12.4101562 2.7207031-3.96875 1.8134766-7.2548828 4.0234375-9.8603516 6.6289062l-10.5400391-12.4101562c4.6455078-4.3046875 10.0009766-7.5351562 16.0654297-9.6894531 6.0615234-2.1513672 12.2109375-3.2304688 18.4443359-3.2304688 7.2519531 0 13.2313843 1.0205078 17.9354858 3.0605469 4.7011719 2.0400391 8.4150391 4.7041016 11.1347656 7.9902344 2.7197266 3.2880859 4.6162109 6.9697266 5.6953125 11.0498047 1.0751953 4.0800781 1.6152344 8.1591797 1.6152344 12.2392578v49.6406555h-19.0400391v-10.370117zm-.3408203-26.860382h-4.5898438c-3.2880249 0-6.7440796.1445312-10.3700562.4257812-3.6279297.2832031-6.9697266.9082031-10.0292969 1.8691406-3.0605469.9648438-5.6103516 2.3242493-7.6503906 4.0801086-2.0400391 1.7587891-3.0595703 4.1660156-3.0595703 7.2255859 0 1.9287109.4248047 3.5439453 1.2744141 4.8447266.8505859 1.3046875 1.9550781 2.3535156 3.3154297 3.1445312 1.359375.7949219 2.8896484 1.3613281 4.5898438 1.7011719s3.4003906.5097656 5.0996094.5097656c7.0263672 0 12.3515625-1.8701172 15.9804077-5.6103516 3.6259766-3.7392578 5.4394531-8.8398438 5.4394531-15.2998352v-2.8906248zM1074.0991211 463.4004211h19.3798828v13.0898438h.3398438c1.8115234-4.0800781 4.9570312-7.6767578 9.4345703-10.7949219 4.4765625-3.1162109 9.7753906-4.6757812 15.8955078-4.6757812 5.3261719 0 9.8867188.9355469 13.6845703 2.8056641 3.7958984 1.8701172 6.9121094 4.3349609 9.3505859 7.3955078 2.4355469 3.0585938 4.2207031 6.5742188 5.3544922 10.5390625 1.1318359 3.96875 1.7001953 8.0488281 1.7001953 12.2402344v51.0000305h-20.3994141v-45.2207336c0-2.3789062-.1708984-4.8710938-.5107422-7.4794922-.3398438-2.6054688-1.078125-4.9560547-2.2099609-7.0546875-1.1337891-2.0957031-2.6933594-3.8251953-4.6748047-5.1845703-1.984375-1.3603516-4.6191406-2.0410156-7.9052734-2.0410156-3.2880859 0-6.1201172.6542969-8.5 1.9550781-2.3798828 1.3046875-4.3349609 2.9755859-5.8642578 5.015625-1.5302734 2.0390625-2.6943359 4.3925781-3.4853516 7.0546875-.7939453 2.6640625-1.1904297 5.3554688-1.1904297 8.0751953v44.8799133h-20.3994141v-81.59964z" style="fill:#171511"/><path d="M452.573761 346.0000305V101.7407608h109.3657532v36.5698166H492.249054v64.8598633h64.514679v33.8100586h-64.514679v72.1054688h73.139679v36.9140625H452.573761zM607.7510376 346.0000305V101.7407608h41.7451172v205.9648438h67.2753906v38.2944336H607.7510376zM751.7871704 346.0000305V101.7407608h41.4003906v244.2592773h-41.4003906zM847.625061 346.0000305V101.7407608h109.3652344v36.5698166h-69.6904297v64.8598633h64.515625v33.8100586h-64.515625v72.1054688h73.140625v36.9140625H847.625061zM1103.8867188 346.0000305l-37.9501953-104.1894531h-23.1142578v104.1894531h-40.0204468V101.7407608h69.6903687c10.1181641 0 19.4326172 1.3256836 27.9443359 3.9672852 8.5068359 2.6469727 15.8115234 6.8461914 21.9082031 12.5922852 6.0908203 5.7519531 10.8671875 12.9970627 14.3173828 21.7353439 3.4501953 8.7436523 5.1748047 19.206543 5.1748047 31.3950195 0 9.4335938-1.2070312 17.7670898-3.6220703 25.012207s-5.4667969 13.4013672-9.1425781 18.4575195c-3.6826172 5.0620117-7.7626953 9.1425781-12.2480469 12.2475586-4.484375 3.1049805-8.9160156 5.234375-13.2822266 6.3823242l43.8144531 112.4697266h-43.4697265zm-2.7597657-172.4995117c0-7.3583984-1.0351562-13.4550781-3.1054688-18.2851562-2.0693359-4.8300781-4.7753906-8.625-8.1074219-11.3847656-3.3369141-2.7602539-7.0722656-4.7114258-11.2119141-5.8652344-4.140625-1.1479492-8.2802734-1.7246094-12.4199219-1.7246094h-23.4599609v75.2099609h23.4599609c10.1181641 0 18.4570312-3.1591797 25.0117188-9.487793 6.5556642-6.3232421 9.8330079-15.8105468 9.8330079-28.4624023zM372.7099915 136.9306946v209.0693359H51V49.9306984h249l-13.8847351 51.8100624h132.4799805v35.1899338h-45.8852539z" style="fill:#2c2a25"/><path d="M91 136.9306946h241v140H91z" style="fill:#fff"/><path d="m256.4699707 346.0000305-12.074707-51.7495117h-64.1704102l-12.4199219 51.7495117h-41.3999023l60.7202148-244.2592773h52.784668l59.6850586 244.2592773h-43.125zm-43.125-205.274414h-1.3798828L185.4001923 261.820343h53.819809l-25.8750306-121.0947265z" style="fill:#da9c0b"/></svg>
