<?xml version="1.0" encoding="utf-8"?>
<svg xmlns="http://www.w3.org/2000/svg" xml:space="preserve" style="enable-background:new 0 0 1200 600" viewBox="0 0 1200 600"><path d="M51 431.7206726h39.0400696c4.2651367 0 8.5327148.4804688 12.800293 1.4394531 4.2651367.9609375 8.0800781 2.5605469 11.4399414 4.8007812s6.0800781 5.1738281 8.1601562 8.7988281c2.0795898 3.6289062 3.1196289 8.1601562 3.1196289 13.6005859 0 6.2949219-1.8149414 11.5751953-5.4399414 15.8408203-3.6274414 4.2666016-8.4272461 7.1992188-14.3999023 8.7988281v.3203125c3.625.4277344 6.9848633 1.3603516 10.0800781 2.8007812 3.0922852 1.4394531 5.7597656 3.3339844 8 5.6796875 2.2397461 2.3476562 3.9726562 5.1191406 5.199707 8.3203125 1.2250977 3.1992188 1.840332 6.7744141 1.840332 10.7187805 0 5.4404297-1.1201172 10.1875-3.3598633 14.2402344-2.2402344 4.0546875-5.2802734 7.3876953-9.1201172 10-3.840332 2.6152344-8.3476562 4.5878906-13.5200195 5.9199219-5.175293 1.3359375-10.6953125 2-16.5600586 2H51.0000305L51 431.7206726zm15.8403625 47.8398438h20.6401367c2.9848633 0 5.8398438-.3457031 8.5595703-1.0400391 2.7202148-.6923828 5.0927734-1.7607422 7.1201172-3.2001953 2.0249023-1.4394531 3.625-3.2519531 4.800293-5.4394531 1.1723633-2.1855469 1.7597656-4.8251953 1.7597656-7.9199219 0-6.0800781-2.2397461-10.4257812-6.7202148-13.0410156-4.4799805-2.6113281-10.5073242-3.9199219-18.0795898-3.9199219H66.8403625v34.5605469zm0 52.0000305h19.8398438c3.3051758 0 6.6401367-.2929688 10-.8798828 3.3598633-.5849609 6.3999023-1.625 9.1201172-3.1201172 2.7197266-1.4921875 4.9047852-3.4921875 6.5600586-6 1.6523438-2.5048828 2.4799805-5.6796875 2.4799805-9.5195312 0-6.7207336-2.2949219-11.5732727-6.8798828-14.5605774-4.5878906-2.984375-11.2001953-4.4804688-19.840332-4.4804688H66.8403625v38.5605774zM159.9599915 477.6405945c-.1074219-3.2001953-.2670898-6.0253906-.4799805-8.4804688h14.2402344c.2124023 1.9199219.3725586 4.1347656.4799805 6.640625.1049805 2.5078125.1601562 4.5595703.1601562 6.1601562h.4799805c2.1323242-4.4804688 5.2524414-8.0800781 9.3598633-10.8007812 4.1049805-2.7197266 8.7197266-4.0800781 13.8398438-4.0800781 2.3452148 0 4.3203125.2148438 5.9199219.640625l-.6396484 13.9199219c-2.1352539-.5332031-4.4277344-.8007812-6.8803711-.8007812-3.6274414 0-6.7749023.6679688-9.4399414 2-2.6674805 1.3359375-4.8798828 3.1210938-6.6396484 5.3613281-1.7602539 2.2392578-3.0678711 4.8261719-3.9204102 7.7597656-.8549805 2.9345703-1.2797852 6-1.2797852 9.1992188V545h-15.0400391v-59.5195618c-1e-7-2.0253906-.0551759-4.640625-.1601563-7.8398437zM270.3623352 495.8808289c0-5.6523438-1.7075195-9.8398438-5.1201172-12.5605469-3.4150391-2.7197266-7.9477539-4.0800781-13.6000977-4.0800781-4.2675781 0-8.2949219.828125-12.0800781 2.4804688-3.7875977 1.6542969-6.9599609 3.7597656-9.5200195 6.3203125l-8-9.6005859c3.7324219-3.5205078 8.2924805-6.2919922 13.6801758-8.3193359 5.3847656-2.0253906 11.1723633-3.0410156 17.3598633-3.0410156 5.4399414 0 10.1601562.7753906 14.1601562 2.3203125 4 1.546875 7.2797852 3.6552734 9.8398438 6.3203125 2.5600586 2.6679688 4.4799805 5.8144531 5.7602539 9.4394531 1.2797852 3.6279297 1.9199219 7.5205078 1.9199219 11.6796875v33.1211243c0 2.5595703.0800781 5.2539062.2397461 8.0800781.1601562 2.8271484.4526367 5.1464844.8803711 6.9589844h-13.6000977c-.8549805-3.625-1.2802734-7.2519531-1.2802734-10.8789062h-.4799805c-2.7749023 4.0546875-6.2670898 7.1992188-10.4799805 9.4394531-4.2148438 2.2402344-9.199707 3.359375-14.9599609 3.359375-2.9873047 0-6.1074219-.3994141-9.3598633-1.1992188-3.2548828-.8007812-6.2148438-2.1054688-8.8798828-3.9199219-2.6674805-1.8125-4.8803711-4.2128906-6.6401367-7.2001953-1.7597656-2.9853516-2.6401367-6.6650391-2.6401367-11.0400391 0-5.7597656 1.5449219-10.3203125 4.6401367-13.679718 3.0922852-3.3603516 7.1450195-5.9199219 12.1601562-7.6796875 5.012207-1.7607422 10.6650391-2.90625 16.9599609-3.4414062 6.2924805-.53125 12.6396484-.7988281 19.0400391-.7988281v-2.0800783zm-3.6801758 12.9589843c-3.7348633 0-7.6000977.1601562-11.6000977.4804688s-7.6274414.9599609-10.8798828 1.9199219c-3.2548828.960968-5.9472656 2.4004211-8.0800781 4.320343-2.1347656 1.9199219-3.199707 4.4804688-3.199707 7.6796875 0 2.2402344.4521484 4.1074219 1.3598633 5.5996094.9047852 1.4960938 2.1049805 2.7207031 3.6000977 3.6806641 1.4921875.9599609 3.1450195 1.6279297 4.9599609 2 1.8125.375 3.6796875.5595703 5.6000977.5595703 7.0395508 0 12.4521484-2.1044922 16.2397461-6.3203125 3.7851562-4.2119141 5.6801758-9.5195312 5.6801758-15.9199219v-4.0000305h-3.6801759zM341.0010071 471.320282c4.2124023-2.8242188 9.2001953-4.2402344 14.9599609-4.2402344 5.1201172 0 9.7324219 1.1757812 13.840332 3.5205078 4.1049805 2.3466797 7.3325195 6.2392578 9.6796875 11.6796875 2.5600586-4.9052734 6.1328125-8.6650391 10.7202148-11.2802734 4.5849609-2.6113281 9.6000977-3.9199219 15.0400391-3.9199219 4.9047852 0 9.1201172.828125 12.6396484 2.4804688 3.5200195 1.6542969 6.4526367 3.8671875 8.800293 6.640625 2.3447266 2.7744141 4.0800781 6.0273438 5.199707 9.7597656 1.1201172 3.734375 1.6801758 7.734375 1.6801758 12V545h-15.0400391v-42.0801086c0-3.0917969-.2675781-6.0244141-.7998047-8.7988281-.5351562-2.7734375-1.4399414-5.2255859-2.7202148-7.3613281-1.2797852-2.1318359-2.9873047-3.8398438-5.1201172-5.1191406-2.1347656-1.2802734-4.8549805-1.9199219-8.159668-1.9199219-3.4150391 0-6.3476562.7197266-8.800293 2.1601562-2.4545898 1.4394531-4.4545898 3.3066406-6 5.5996094-1.5473633 2.2949219-2.6674805 4.8798828-3.3598633 7.7597656-.6948242 2.8808594-1.0400391 5.8154297-1.0400391 8.8007812V545h-15.0400391v-45.1191711c0-2.9853516-.2675781-5.7050781-.7998047-8.1601562-.5351562-2.453125-1.4399414-4.5605469-2.7202148-6.3203125-1.2797852-1.7597656-2.9350586-3.1445312-4.9599609-4.1601562-2.0273438-1.0117188-4.534668-1.5195312-7.5200195-1.5195312-5.5473633 0-10.159668 2.2675781-13.8398438 6.7998047-3.6801758 4.5351562-5.5200195 10.5869141-5.5200195 18.1601562V545H317.081085v-59.5195618c0-2.0253906-.0551758-4.640625-.1601562-7.8398438-.1074219-3.2001953-.2670898-6.0253906-.4799805-8.4804688h14.2402344c.2124023 1.9199219.3725586 4.0800781.4799805 6.4804688.1049805 2.4003906.1601562 4.4003906.1601562 6h.4799806c1.9199219-4.0527343 4.9848633-7.4921874 9.1997071-10.3203124zM573.8798828 533c-2.8798828 4.5878906-6.7998047 8.0800781-11.7597656 10.4804688s-10.1601562 3.5996094-15.6000977 3.5996094c-5.8676758 0-11.1474609-1.0390625-15.8398438-3.1191406-4.6953125-2.0800781-8.6953125-4.9335938-12-8.5605469-3.3076172-3.625-5.8676758-7.8925781-7.6801453-12.7998047-1.8149414-4.9052734-2.7202148-10.1328125-2.7202148-15.6806946 0-5.5449219.9052734-10.7441406 2.7202148-15.5996094 1.8124695-4.8525391 4.3998718-9.0917969 7.7597351-12.7197266 3.3603516-3.625 7.3852539-6.4521484 12.0800781-8.4794922 4.6923828-2.0253906 9.8652344-3.0410156 15.5200195-3.0410156 6.1850586 0 11.5727539 1.3085938 16.1601562 3.9199219 4.5849609 2.6152344 8.2124023 5.7880859 10.8798828 9.5205078h.3198242v-56.4794922h15.0400391V545H574.199707v-12h-.3198242zm-49.9199219-26.0000305c0 3.5097656.5327148 6.9160461 1.6000977 10.210968 1.0649414 3.296875 2.6650391 6.2226562 4.7998047 8.7744141 2.1328125 2.5527344 4.7451172 4.6005859 7.8398438 6.1425781 3.0927734 1.5419922 6.7202148 2.3125 10.8803711 2.3125 3.8398438 0 7.3325195-.7431641 10.4799805-2.2324219 3.1450195-1.4902344 5.8398438-3.4824219 8.0800781-5.9824219 2.2397461-2.5 3.972168-5.3974609 5.199707-8.6953125 1.2250977-3.2949219 1.840332-6.7529602 1.840332-10.3701477 0-3.6152344-.6152344-7.0722656-1.840332-10.3691406-1.2275391-3.2949219-2.9599609-6.2207031-5.199707-8.7734375-2.2402344-2.5527344-4.9350586-4.5722656-8.0800781-6.0625-3.1474609-1.4902344-6.6401367-2.234375-10.4799805-2.234375-4.1601562 0-7.7875977.7441406-10.8803711 2.234375-3.0947266 1.4902344-5.7070312 3.5097656-7.8398438 6.0625-2.1347656 2.5527344-3.7348633 5.4785156-4.7998047 8.7734375-1.0673828 3.296875-1.6000977 6.6992188-1.6000977 10.2089844zM693.0786133 506.4403992v2.5595703c0 .8554688-.0546875 1.7080078-.1601562 2.5605469h-60.3193359c.1044922 3.179718.8242188 6.1719055 2.1591797 8.9775696 1.3330078 2.8076172 3.1201172 5.2451172 5.3603516 7.3095703 2.2402344 2.0654297 4.8251953 3.6796875 7.7597656 4.8457031 2.9326172 1.1640625 6.0527344 1.7470703 9.3603516 1.7470703 5.1201172 0 9.5449219-1.1201172 13.2802734-3.3603516 3.7324219-2.2402344 6.6650391-4.9589844 8.7998047-8.1601562l10.5595703 8.4804688c-4.0546875 5.375-8.8271484 9.3320312-14.3193359 11.8730469-5.4951172 2.5371094-11.6005859 3.8066406-18.3203125 3.8066406-5.7597656 0-11.0947266-.9589844-16-2.8789062-4.9072266-1.9208984-9.1201172-4.6132812-12.6396484-8.0800781-3.5205078-3.4658203-6.2949219-7.6533203-8.3203125-12.5605469-2.0273438-4.9052734-3.0400391-10.3457031-3.0400391-16.320343 0-5.8652344.9873047-11.2792969 2.9648438-16.2402344 1.9775391-4.9589844 4.7304688-9.1992188 8.2578125-12.7197266s7.6972656-6.2646484 12.5078125-8.2392578c4.8095703-1.9726562 9.9921875-2.9609375 15.5517578-2.9609375 5.5576172 0 10.6074219.9082031 15.1523438 2.7207031 4.5429688 1.8144531 8.390625 4.4277344 11.5458984 7.8398438 3.1523438 3.4150391 5.5849609 7.546875 7.2949219 12.4003906 1.7099607 4.8544921 2.5644529 10.3193358 2.5644529 16.399414zm-15.359375-6.0800782c-.1083984-2.9853516-.6152344-5.7841797-1.5205078-8.3994141-.9072266-2.6132812-2.2402344-4.8808594-4-6.8007812s-3.9472656-3.4394531-6.5595703-4.5595703c-2.6152344-1.1201172-5.6806641-1.6806641-9.2001953-1.6806641-3.2001953 0-6.2148438.5605469-9.0400391 1.6806641-2.828125 1.1201172-5.2802734 2.6396484-7.3603516 4.5595703s-3.7871094 4.1875-5.1201172 6.8007812c-1.3349609 2.6152344-2.1074219 5.4140625-2.3193359 8.3994141h45.1201172zM769.0786133 431.7206726h15.8398438v47.359375h57.2802734v-47.359375h16V545h-16v-51.8398743H784.918457V545h-15.8398438V431.7206726zM939.315918 495.8808289c0-5.6523438-1.7080078-9.8398438-5.1201172-12.5605469-3.4150391-2.7197266-7.9472656-4.0800781-13.5996094-4.0800781-4.2675781 0-8.2958984.828125-12.0800781 2.4804688-3.7880859 1.6542969-6.9599609 3.7597656-9.5205078 6.3203125l-8-9.6005859c3.7324219-3.5205078 8.2929688-6.2919922 13.6796875-8.3193359 5.3857422-2.0253906 11.1728516-3.0410156 17.3603516-3.0410156 5.4404297 0 10.1601562.7753906 14.1601562 2.3203125 4 1.546875 7.2802734 3.6552734 9.8398438 6.3203125 2.5605469 2.6679688 4.4804688 5.8144531 5.7597656 9.4394531 1.2802734 3.6279297 1.9199219 7.5205078 1.9199219 11.6796875v33.1211243c0 2.5595703.0800781 5.2539062.2402344 8.0800781.1601562 2.8271484.453125 5.1464844.8798828 6.9589844h-13.5996094c-.8554688-3.625-1.2802734-7.2519531-1.2802734-10.8789062h-.4794922c-2.7753906 4.0546875-6.2675781 7.1992188-10.4804688 9.4394531-4.2148438 2.2402344-9.2001953 3.359375-14.9599609 3.359375-2.9873047 0-6.1074219-.3994141-9.3603516-1.1992188-3.2548828-.8007812-6.2148438-2.1054688-8.8798828-3.9199219-2.6669922-1.8125-4.8798828-4.2128906-6.6396484-7.2001953-1.7597656-2.9853516-2.6396484-6.6650391-2.6396484-11.0400391 0-5.7597656 1.5449219-10.3203125 4.6396484-13.679718 3.0927734-3.3603516 7.1445312-5.9199219 12.1601562-7.6796875 5.0126953-1.7607422 10.6650391-2.90625 16.9599609-3.4414062 6.2919922-.53125 12.6396484-.7988281 19.0400391-.7988281v-2.0800783zm-3.6796875 12.9589843c-3.7353516 0-7.6005859.1601562-11.6005859.4804688s-7.6269531.9599609-10.8798828 1.9199219c-3.2548828.960968-5.9472656 2.4004211-8.0800781 4.320343-2.1347656 1.9199219-3.2001953 4.4804688-3.2001953 7.6796875 0 2.2402344.453125 4.1074219 1.3603516 5.5996094.9052734 1.4960938 2.1044922 2.7207031 3.5996094 3.6806641 1.4931641.9599609 3.1455078 1.6279297 4.9599609 2 1.8125.375 3.6806641.5595703 5.6005859.5595703 7.0400391 0 12.4521484-2.1044922 16.2402344-6.3203125 3.7841797-4.2119141 5.6796875-9.5195312 5.6796875-15.9199219v-4.0000305h-3.6796876zM1033.2348633 495.8808289c0-5.6523438-1.7080078-9.8398438-5.1201172-12.5605469-3.4150391-2.7197266-7.9472656-4.0800781-13.5996094-4.0800781-4.2675781 0-8.2958984.828125-12.0800781 2.4804688-3.7880859 1.6542969-6.9599609 3.7597656-9.5205078 6.3203125l-8-9.6005859c3.7324219-3.5205078 8.2929688-6.2919922 13.6796875-8.3193359 5.3857422-2.0253906 11.1728516-3.0410156 17.3603516-3.0410156 5.4404297 0 10.1601562.7753906 14.1601562 2.3203125 4 1.546875 7.2802734 3.6552734 9.8398438 6.3203125 2.5605469 2.6679688 4.4804688 5.8144531 5.7597656 9.4394531 1.2802734 3.6279297 1.9199219 7.5205078 1.9199219 11.6796875v33.1211243c0 2.5595703.0800781 5.2539062.2402344 8.0800781.1601562 2.8271484.453125 5.1464844.8798828 6.9589844h-13.5996094c-.8554688-3.625-1.2802734-7.2519531-1.2802734-10.8789062h-.4794922c-2.7753906 4.0546875-6.2675781 7.1992188-10.4804688 9.4394531-4.2148438 2.2402344-9.2001953 3.359375-14.9599609 3.359375-2.9873047 0-6.1074219-.3994141-9.3603516-1.1992188-3.2548828-.8007812-6.2148438-2.1054688-8.8798828-3.9199219-2.6669922-1.8125-4.8798828-4.2128906-6.6396484-7.2001953-1.7597656-2.9853516-2.6396484-6.6650391-2.6396484-11.0400391 0-5.7597656 1.5449219-10.3203125 4.6396484-13.679718 3.0927734-3.3603516 7.1445312-5.9199219 12.1601562-7.6796875 5.0126953-1.7607422 10.6650391-2.90625 16.9599609-3.4414062 6.2919922-.53125 12.6396484-.7988281 19.0400391-.7988281v-2.0800783zm-3.6796875 12.9589843c-3.7353516 0-7.6005859.1601562-11.6005859.4804688s-7.6269531.9599609-10.8798828 1.9199219c-3.2548828.960968-5.9472656 2.4004211-8.0800781 4.320343-2.1347656 1.9199219-3.2001953 4.4804688-3.2001953 7.6796875 0 2.2402344.453125 4.1074219 1.3603516 5.5996094.9052734 1.4960938 2.1044922 2.7207031 3.5996094 3.6806641 1.4931641.9599609 3.1455078 1.6279297 4.9599609 2 1.8125.375 3.6806641.5595703 5.6005859.5595703 7.0400391 0 12.4521484-2.1044922 16.2402344-6.3203125 3.7841797-4.2119141 5.6796875-9.5195312 5.6796875-15.9199219v-4.0000305h-3.6796876zM1093.5532227 469.1601257c.2128906 1.9199219.3730469 4.0800781.4804688 6.4804688.1044922 2.4003906.1601562 4.4003906.1601562 6h.4794922c.9599609-2.0253906 2.265625-3.9199219 3.9199219-5.6796875 1.6533203-1.7597656 3.5449219-3.3056641 5.6806641-4.640625 2.1318359-1.3320312 4.4794922-2.3730469 7.0400391-3.1191406 2.5595703-.7460938 5.2246094-1.1210938 8-1.1210938 4.9042969 0 9.1201172.828125 12.6396484 2.4804688 3.5205078 1.6542969 6.4521484 3.8671875 8.7998047 6.640625 2.3457031 2.7744141 4.0800781 6.0273438 5.2001953 9.7597656 1.1201172 3.734375 1.6796875 7.734375 1.6796875 12V545h-15.0400391v-42.0801086c0-3.0917969-.2392578-6.0244141-.7197266-8.7988281-.4794922-2.7734375-1.3603516-5.2255859-2.6396484-7.3613281-1.2802734-2.1318359-3.0400391-3.8398438-5.2802734-5.1191406-2.2402344-1.2802734-5.1201172-1.9199219-8.6396484-1.9199219-5.9755859 0-10.8554688 2.2675781-14.640625 6.7998047-3.7871094 4.5351562-5.6796875 10.5869141-5.6796875 18.1601562V545h-15.0400391v-59.5195618c0-2.0253906-.0546875-4.640625-.1601562-7.8398438-.1074219-3.2001953-.2675781-6.0253906-.4794922-8.4804688h14.2392577z" style="fill:#b5b0a6"/><path d="M452.573761 346.0000305V101.7407608h109.3657532v36.5698166H492.249054v64.8598633h64.514679v33.8100586h-64.514679v72.1054688h73.139679v36.9140625H452.573761zM607.7510376 346.0000305V101.7407608h41.7451172v205.9648438h67.2753906v38.2944336H607.7510376zM751.7871704 346.0000305V101.7407608h41.4003906v244.2592773h-41.4003906zM847.625061 346.0000305V101.7407608h109.3652344v36.5698166h-69.6904297v64.8598633h64.515625v33.8100586h-64.515625v72.1054688h73.140625v36.9140625H847.625061zM1103.8867188 346.0000305l-37.9501953-104.1894531h-23.1142578v104.1894531h-40.0204468V101.7407608h69.6903687c10.1181641 0 19.4326172 1.3256836 27.9443359 3.9672852 8.5068359 2.6469727 15.8115234 6.8461914 21.9082031 12.5922852 6.0908203 5.7519531 10.8671875 12.9970627 14.3173828 21.7353439 3.4501953 8.7436523 5.1748047 19.206543 5.1748047 31.3950195 0 9.4335938-1.2070312 17.7670898-3.6220703 25.012207s-5.4667969 13.4013672-9.1425781 18.4575195c-3.6826172 5.0620117-7.7626953 9.1425781-12.2480469 12.2475586-4.484375 3.1049805-8.9160156 5.234375-13.2822266 6.3823242l43.8144531 112.4697266h-43.4697265zm-2.7597657-172.4995117c0-7.3583984-1.0351562-13.4550781-3.1054688-18.2851562-2.0693359-4.8300781-4.7753906-8.625-8.1074219-11.3847656-3.3369141-2.7602539-7.0722656-4.7114258-11.2119141-5.8652344-4.140625-1.1479492-8.2802734-1.7246094-12.4199219-1.7246094h-23.4599609v75.2099609h23.4599609c10.1181641 0 18.4570312-3.1591797 25.0117188-9.487793 6.5556642-6.3232421 9.8330079-15.8105468 9.8330079-28.4624023zM372.7099915 136.9306946v209.0693359H51V49.9306984h249l-13.8847351 51.8100624h132.4799805v35.1899338h-45.8852539z" style="fill:#90897a"/><path d="M91 136.9306946h241v140H91z" style="fill:#fff"/><path d="m256.4699707 346.0000305-12.074707-51.7495117h-64.1704102l-12.4199219 51.7495117h-41.3999023l60.7202148-244.2592773h52.784668l59.6850586 244.2592773h-43.125zm-43.125-205.274414h-1.3798828L185.4001923 261.820343h53.819809l-25.8750306-121.0947265z" style="fill:#2d1c01"/></svg>
