<?xml version="1.0" encoding="utf-8"?>
<svg xmlns="http://www.w3.org/2000/svg" viewBox="0 0 168 60" width="168" height="60"><style>.st0{fill:#2c2a25}</style><g id="Layer_1"><path class="st0" d="M52.939 21.67H33L35 14H0v46h46.176V26.856h6.763zM57.78 57.67v-36H73.9v5.39H63.627v9.56h9.508v4.982h-9.508V52.23h10.78v5.44H57.78zM81.232 57.67v-36h6.153v30.356H97.3v5.644H81.232zM102.549 57.67v-36h6.102v36h-6.102zM117.255 57.67v-36h16.119v5.39h-10.271v9.56h9.508v4.982h-9.508V52.23h10.78v5.44h-16.628zM155.605 57.67l-5.593-15.356h-3.407V57.67h-5.898v-36h10.271c1.492 0 2.864.195 4.119.585 1.254.39 2.33 1.009 3.229 1.856.898.847 1.602 1.915 2.11 3.203.508 1.289.763 2.83.763 4.627 0 1.39-.178 2.619-.534 3.687-.356 1.067-.806 1.975-1.348 2.72-.542.746-1.144 1.347-1.805 1.805-.66.458-1.314.772-1.957.94l6.457 16.577h-6.407zm-.406-25.424c0-1.084-.153-1.983-.458-2.695-.305-.712-.704-1.27-1.195-1.678a4.431 4.431 0 00-1.652-.864 6.824 6.824 0 00-1.831-.254h-3.458v11.084h3.458c1.491 0 2.72-.465 3.686-1.398.967-.932 1.45-2.33 1.45-4.195z"/></g><g id="Layer_2"><path fill="#fff" d="M5.975 26.856h34.2v20.649h-34.2z"/><path d="M29.495 57.67l-1.78-7.627h-9.458l-1.83 7.627h-6.102l8.95-36h7.779l8.797 36h-6.356zm-6.356-30.254h-.204L19.02 45.263h7.932L23.14 27.416z" fill="#e4aa0c"/></g></svg>
