<?xml version="1.0" encoding="utf-8"?>
<svg xmlns="http://www.w3.org/2000/svg" xml:space="preserve" style="enable-background:new 0 0 768 384" viewBox="0 0 768 384"><path d="M273.125 94.298h-78.764L202.262 64H64v172.51h182.41V114.786h26.715zM292.25 236.511V94.298h63.675v21.292h-40.574v37.763h37.561v19.685h-37.561v41.98h42.583v21.493h-65.683zM384.893 236.511V94.298h24.305v119.917h39.169v22.296h-63.474zM469.1 236.511V94.298h24.105v142.213H469.1zM527.195 236.511V94.298h63.674v21.292h-40.575v37.763h37.562v19.685h-37.562v41.98h42.584v21.493h-65.683zM678.69 236.511l-22.094-60.661h-13.458v60.661h-23.3V94.298h40.574c5.891 0 11.315.772 16.27 2.31 4.953 1.541 9.205 3.986 12.755 7.332 3.547 3.348 6.328 7.567 8.336 12.654 2.009 5.09 3.013 11.183 3.013 18.279 0 5.492-.703 10.345-2.109 14.563-1.406 4.218-3.182 7.802-5.323 10.746-2.143 2.947-4.52 5.323-7.13 7.13-2.612 1.809-5.192 3.048-7.734 3.717L704 236.51h-25.31zm-1.606-100.433c0-4.284-.603-7.834-1.808-10.646-1.205-2.812-2.78-5.021-4.72-6.628a17.504 17.504 0 0 0-6.528-3.415 26.958 26.958 0 0 0-7.231-1.004h-13.66v43.788h13.66c5.89 0 10.746-1.839 14.562-5.523 3.817-3.682 5.725-9.206 5.725-16.572z" style="fill:#2c2a25"/><path d="M87.606 114.786h135.102v81.57H87.606z" style="fill:#fff"/><path d="m180.514 236.511-7.03-30.13h-37.361l-7.231 30.13h-24.104L140.14 94.298h30.733l34.75 142.213h-25.109zm-25.108-119.515h-.804L139.136 187.5h31.335l-15.065-70.504z" style="fill:#da9c0b"/><path d="M126.971 262.879h19.824c3.415 0 6.37.365 8.862 1.093 2.49.727 4.536 1.75 6.132 3.065 1.596 1.317 2.772 2.885 3.528 4.705.756 1.82 1.134 3.821 1.134 6.006 0 2.633-.84 5.068-2.52 7.308-1.68 2.24-4.088 3.92-7.224 5.04 3.976 1.008 7.084 2.687 9.324 5.04 2.239 2.351 3.36 5.124 3.36 8.315 0 5.265-1.793 9.339-5.376 12.223-3.584 2.885-9.296 4.326-17.136 4.326H126.97v-57.121zm19.068 24.192c6.271 0 9.408-2.716 9.408-8.147 0-2.576-.798-4.578-2.394-6.006s-4.074-2.143-7.434-2.143h-7.896v16.296h8.316zm-.42 25.033c2.016 0 3.808-.126 5.376-.378 1.567-.252 2.87-.714 3.906-1.386a6.434 6.434 0 0 0 2.352-2.689c.532-1.12.798-2.547.798-4.284 0-3.023-.966-5.207-2.898-6.552-1.932-1.343-4.746-2.016-8.442-2.016h-8.988v17.305h7.896zM178.546 279.512h10.332v4.87h.252c1.063-1.398 2.575-2.63 4.536-3.694 1.96-1.063 4.17-1.596 6.636-1.596 1.063 0 2.071.084 3.024.252v8.652h-.756c-.449-.112-.924-.196-1.428-.252s-1.008-.084-1.512-.084c-2.129 0-4.187.377-6.174 1.133-1.988.756-3.515 1.863-4.578 3.318V320h-10.332v-40.488zM232.558 316.22h-.336c-1.008 1.12-2.478 2.17-4.41 3.15-1.932.979-4.326 1.47-7.182 1.47-2.016 0-3.837-.309-5.46-.924-1.625-.616-3.01-1.456-4.158-2.52a10.476 10.476 0 0 1-2.604-3.738c-.588-1.429-.882-2.982-.882-4.662 0-4.369 1.581-7.574 4.746-9.619 3.163-2.043 7.63-3.065 13.398-3.065h6.384v-2.521c0-2.687-.672-4.562-2.016-5.627-1.344-1.063-3.752-1.597-7.224-1.597-2.352 0-4.592.183-6.72.546-2.129.366-3.696.8-4.704 1.303h-.756v-7.477c1.287-.615 3.247-1.146 5.88-1.595 2.632-.448 5.487-.672 8.568-.672 3.304 0 6.061.28 8.274.84 2.211.56 3.99 1.4 5.334 2.52 1.344 1.12 2.295 2.548 2.856 4.283.559 1.737.84 3.78.84 6.132V320h-9.828v-3.78zm-14.784-7.856c0 1.667.559 2.973 1.68 3.918 1.12.945 2.575 1.417 4.368 1.417.951 0 1.89-.125 2.814-.375.924-.25 1.75-.57 2.478-.958a11.088 11.088 0 0 0 1.89-1.25c.532-.444.882-.862 1.05-1.252v-7.337h-5.124c-3.024 0-5.306.46-6.846 1.375-1.541.918-2.31 2.406-2.31 4.462zM253.978 279.512h10.164v3.947h.336c1.399-1.287 3.177-2.406 5.334-3.36 2.155-.95 4.662-1.427 7.518-1.427 5.823 0 9.744 1.988 11.76 5.964 1.791-1.624 3.822-3.025 6.09-4.2s4.998-1.764 8.19-1.764c8.68 0 13.02 4.06 13.02 12.18V320h-10.248v-26.209c0-2.52-.56-4.297-1.68-5.334-1.121-1.035-2.857-1.554-5.209-1.554a12.15 12.15 0 0 0-4.913 1.01c-1.541.671-2.87 1.455-3.99 2.35V320h-10.332v-26.209c0-2.52-.546-4.297-1.638-5.334-1.092-1.035-2.815-1.554-5.166-1.554-1.793 0-3.473.35-5.04 1.05-1.569.701-2.856 1.527-3.864 2.479V320h-10.332v-40.488zM372.5 316.388h-.335c-.954 1.064-2.325 2.072-4.117 3.024-1.793.951-4.06 1.428-6.803 1.428-2.52 0-4.817-.463-6.889-1.387a15.334 15.334 0 0 1-5.376-3.99c-1.512-1.734-2.674-3.821-3.485-6.258-.813-2.435-1.219-5.166-1.219-8.19 0-3.471.517-6.593 1.555-9.366 1.035-2.772 2.52-5.109 4.451-7.013 1.932-1.904 4.27-3.36 7.014-4.368 2.744-1.008 5.824-1.512 9.24-1.512 1.176 0 2.281.084 3.318.252 1.036.168 1.862.336 2.479.504V258.68h10.332V320H372.5v-3.612zm-17.388-15.876c0 4.199.883 7.265 2.646 9.197 1.764 1.933 3.934 2.898 6.51 2.898 1.903 0 3.528-.32 4.873-.965 1.343-.644 2.406-1.442 3.192-2.394v-22.345c-.45-.168-1.149-.336-2.1-.504a16.897 16.897 0 0 0-2.94-.252c-3.696 0-6.65 1.177-8.862 3.529-2.213 2.351-3.319 5.964-3.319 10.836zM412.063 278.672c2.968 0 5.545.49 7.729 1.47s3.976 2.338 5.376 4.073c1.4 1.737 2.436 3.753 3.108 6.049.672 2.297 1.008 4.76 1.008 7.391 0 1.68-.084 3.222-.252 4.62h-26.544c.336 3.865 1.512 6.609 3.528 8.233 2.016 1.625 5.18 2.435 9.492 2.435 2.128 0 4.185-.195 6.174-.588 1.987-.39 3.513-.867 4.578-1.427h.756v7.391c-1.065.673-2.814 1.261-5.25 1.765s-5.195.756-8.274.756c-3.81 0-7.085-.477-9.828-1.428-2.744-.952-5.013-2.324-6.804-4.117-1.793-1.791-3.108-3.961-3.948-6.51-.84-2.547-1.26-5.445-1.26-8.693s.448-6.188 1.344-8.82c.895-2.631 2.211-4.885 3.948-6.762 1.735-1.876 3.864-3.319 6.384-4.326 2.52-1.008 5.43-1.512 8.735-1.512zm-.335 7.307c-2.688 0-4.802.729-6.342 2.185-1.541 1.457-2.507 4.088-2.898 7.896h16.632c-.113-3.136-.743-5.6-1.89-7.392-1.149-1.792-2.982-2.689-5.502-2.689zM458.515 262.879h10.836v23.688h25.536V262.88h10.752V320h-10.752v-24.612H469.35V320h-10.836v-57.121zM541.086 316.22h-.336c-1.008 1.12-2.478 2.17-4.41 3.15-1.932.979-4.325 1.47-7.182 1.47-2.015 0-3.836-.309-5.46-.924-1.625-.616-3.01-1.456-4.158-2.52a10.475 10.475 0 0 1-2.603-3.738c-.588-1.429-.882-2.982-.882-4.662 0-4.369 1.58-7.574 4.746-9.619 3.163-2.043 7.629-3.065 13.397-3.065h6.384v-2.521c0-2.687-.672-4.562-2.016-5.627-1.343-1.063-3.753-1.597-7.223-1.597-2.353 0-4.593.183-6.72.546-2.13.366-3.696.8-4.705 1.303h-.756v-7.477c1.288-.615 3.247-1.146 5.88-1.595 2.632-.448 5.488-.672 8.568-.672 3.304 0 6.062.28 8.275.84 2.21.56 3.989 1.4 5.334 2.52 1.344 1.12 2.295 2.548 2.855 4.283.56 1.737.84 3.78.84 6.132V320h-9.828v-3.78zm-14.783-7.856c0 1.667.558 2.973 1.68 3.918 1.119.945 2.575 1.417 4.368 1.417.95 0 1.89-.125 2.813-.375s1.75-.57 2.479-.958a11.127 11.127 0 0 0 1.89-1.25c.53-.444.881-.862 1.049-1.252v-7.337h-5.124c-3.023 0-5.306.46-6.846 1.375-1.54.918-2.31 2.406-2.31 4.462zM585.018 316.22h-.336c-1.008 1.12-2.478 2.17-4.41 3.15-1.932.979-4.326 1.47-7.182 1.47-2.016 0-3.836-.309-5.46-.924-1.625-.616-3.01-1.456-4.158-2.52a10.475 10.475 0 0 1-2.604-3.738c-.588-1.429-.882-2.982-.882-4.662 0-4.369 1.581-7.574 4.746-9.619 3.164-2.043 7.63-3.065 13.398-3.065h6.384v-2.521c0-2.687-.672-4.562-2.016-5.627-1.344-1.063-3.753-1.597-7.224-1.597-2.352 0-4.592.183-6.72.546-2.13.366-3.696.8-4.704 1.303h-.756v-7.477c1.288-.615 3.247-1.146 5.88-1.595 2.631-.448 5.488-.672 8.568-.672 3.304 0 6.062.28 8.274.84 2.211.56 3.99 1.4 5.334 2.52 1.344 1.12 2.295 2.548 2.856 4.283.56 1.737.84 3.78.84 6.132V320h-9.828v-3.78zm-14.784-7.856c0 1.667.559 2.973 1.68 3.918 1.12.945 2.575 1.417 4.368 1.417.951 0 1.89-.125 2.814-.375s1.75-.57 2.478-.958a11.127 11.127 0 0 0 1.89-1.25c.531-.444.882-.862 1.05-1.252v-7.337h-5.124c-3.024 0-5.306.46-6.846 1.375-1.541.918-2.31 2.406-2.31 4.462zM606.438 279.512h10.164v3.947h.336c1.399-1.287 3.177-2.406 5.333-3.36 2.156-.95 4.663-1.427 7.519-1.427 4.255 0 7.488 1.021 9.701 3.065 2.212 2.045 3.319 5.082 3.319 9.115V320h-10.332v-26.209c0-2.52-.546-4.297-1.638-5.334-1.092-1.035-2.815-1.554-5.166-1.554-1.793 0-3.473.35-5.04 1.05-1.569.701-2.857 1.527-3.864 2.479V320h-10.332v-40.488z" style="fill:#9b814e"/></svg>
