<?xml version="1.0" encoding="utf-8"?>
<svg xmlns="http://www.w3.org/2000/svg" xml:space="preserve" style="enable-background:new 0 0 768 384" viewBox="0 0 768 384"><path d="M110.2997818 252.0000305h19.10009c3.800293 0 7.1000977.4335938 9.8999023 1.2988281 2.800293.8671875 5.1000977 2.0849609 6.9003906 3.6503906 1.7998047 1.5673828 3.1328125 3.4179688 4 5.5507812.8652344 2.1337891 1.2998047 4.4667969 1.2998047 7 0 3.2666016-.984375 6.234375-2.9501953 8.8994141-1.9667969 2.6669922-4.75 4.6669922-8.3496094 6 4.7998047 1.2001953 8.5 3.234375 11.0996094 6.1005859 2.6000977 2.8671875 3.9003906 6.2666016 3.9003906 10.1992188 0 6.0673828-2.0175781 10.8007812-6.050293 14.2001953-4.0341797 3.3994141-10.449707 5.1005859-19.25 5.1005859h-19.60009v-67.9999999zm19.4999924 29.8994141c4.2001953 0 7.4658203-.9833984 9.800293-2.9501953 2.3325195-1.9648438 3.5-4.9492188 3.5-8.9492188 0-3.6660156-1.1674805-6.5507812-3.5-8.6503906-2.3344727-2.0996094-5.8999023-3.1503906-10.7001953-3.1503906h-10.4999924v23.7001953h11.3998947zm-1 31.899414c2.800293 0 5.300293-.1992188 7.5-.5996094 2.2001953-.4003906 4.050293-1.0996094 5.550293-2.0996094s2.6499023-2.3496094 3.449707-4.0507812c.800293-1.6992188 1.2001953-3.8144531 1.2001953-6.3496094 0-4.265625-1.4501953-7.4326172-4.3500977-9.5-2.8999023-2.0654297-6.8168945-3.0996094-11.75-3.0996094h-11.9999924v25.6992188h10.3998948zM168.6996765 272.1992493h7.800293v5.5996094h.3999023c1.2001953-1.7324219 2.9658203-3.2148438 5.2998047-4.4492188 2.3330078-1.2324219 4.9331055-1.8496094 7.800293-1.8496094.7329102 0 1.449707.0332031 2.1499023.0996094s1.3154297.1669922 1.8500977.2998047v7h-.800293c-1-.2001953-2.1669922-.2998047-3.5-.2998047-2.5341797 0-5.0341797.4667969-7.5 1.4003906-2.4667969.9335938-4.3671875 2.3671875-5.699707 4.2988281v35.7011719h-7.800293v-47.8007812zM229.2006531 315.4082336h-.3999023c-1.1342773 1.2880859-2.8999023 2.5429688-5.2998047 3.7617188-2.4003906 1.21875-5.2001953 1.8300781-8.4003906 1.8300781-2.3339844 0-4.434082-.3515625-6.2998047-1.0537109-1.8671875-.703125-3.4501953-1.65625-4.75-2.8603516-1.2998047-1.203125-2.2841797-2.625-2.9501953-4.2646484-.6669922-1.6396484-1-3.3955078-1-5.2705078 0-2.5410156.4829102-4.7304688 1.4501953-6.5722656.9658203-1.8398438 2.3154297-3.3613281 4.0498047-4.5664062 1.7329102-1.203125 3.800293-2.0908203 6.2001953-2.6601562 2.3999023-.5683594 5.0654297-.8525391 8-.8525391h9.2001953V287.59964c0-3.8007812-.9174805-6.4501953-2.75-7.9501953-1.8344727-1.5-4.8847656-2.25-9.1503906-2.25-2.6669922 0-5.199707.234375-7.5996094.7001953-2.4003906.4667969-4.1674805 1-5.300293 1.5996094h-.699707v-5.9404297c1.465332-.7216797 3.515625-1.328125 6.1499023-1.8203125 2.6328125-.4921875 5.515625-.7392578 8.6499023-.7392578 6.7998047 0 11.5654297 1.25 14.2998047 3.75 2.7329102 2.5 4.1000977 6.3173828 4.1000977 11.4501953v33.6005859h-7.5v-4.591797zm-21.2998047-8.508789c0 2.5341797.7998047 4.484375 2.3999023 5.8505859 1.6000977 1.3671875 3.7998047 2.0488281 6.6000977 2.0488281 1.3325195 0 2.6499023-.1650391 3.949707-.5 1.300293-.3320312 2.5-.7822266 3.6000977-1.3496094 1.1000977-.5654297 2.050293-1.1660156 2.8500977-1.7998047.7998047-.6328125 1.3657227-1.25 1.7001953-1.8505859v-11.0996094h-8.2001953c-4.2001953 0-7.3999023.7001953-9.6000977 2.0996094-2.1997071 1.4003907-3.2998047 3.600586-3.2998047 6.600586zM253.1005554 272.1992493h7.800293v4.5h.2998047c1.7329102-1.4648438 3.9155273-2.75 6.550293-3.8496094 2.6328125-1.0996094 5.5498047-1.6503906 8.75-1.6503906 6.7324219 0 11.1655273 2.2675781 13.2998047 6.8007812 2.3330078-1.9335938 4.8828125-3.5507812 7.6499023-4.8505859 2.765625-1.2998047 5.9155273-1.9501953 9.4501953-1.9501953 9.9326172 0 14.8999023 4.6679688 14.8999023 14v34.8007812h-7.7998047v-32.7011719c0-3.4648438-.7675781-5.9492188-2.300293-7.4492188-1.5341797-1.5-4-2.25-7.3999023-2.25-2.4672852 0-4.8671875.5175781-7.2001953 1.5498047-2.3339844 1.0341797-4.3339844 2.2177734-6 3.5498047.065918.3339844.1157227.734375.1503906 1.2001953.0327148.4677734.0498047.8994141.0498047 1.2998047v34.8007812h-7.7001953v-32.7011719c0-3.4648438-.7670898-5.9492188-2.2998047-7.4492188-1.5341797-1.5-4-2.25-7.3999023-2.25-2.534668 0-4.9501953.5175781-7.25 1.5498047-2.300293 1.0341797-4.2172852 2.25-5.75 3.6494141v37.2011719h-7.800293v-47.8007811zM390.4989929 315.5000305h-.3994141c-1.1337891 1.2666016-2.7666016 2.5-4.8999023 3.6992188-2.1342773 1.2001953-4.8344727 1.8007812-8.1000977 1.8007812-3 0-5.75-.5351562-8.25-1.6005859s-4.6499023-2.6162109-6.449707-4.6494141c-1.800293-2.0332031-3.1845703-4.4833984-4.1503906-7.3505859-.9667969-2.8662109-1.449707-6.1005859-1.449707-9.7001953 0-4.0654297.6000977-7.75 1.7998047-11.0498047 1.2001953-3.2998047 2.9155273-6.0830078 5.1499023-8.3505859 2.2329102-2.265625 4.9829102-4.015625 8.25-5.25 3.265625-1.2324219 6.9658203-1.8496094 11.1000977-1.8496094 1.6000977 0 3.0498047.0996094 4.3505859.3007812 1.2988281.1992188 2.3144531.4335938 3.0488281.6992188v-25.1992188h7.7011719v73h-7.7011719v-4.5zm-25.4995117-18.1005859c0 2.9345703.3500977 5.4677734 1.050293 7.6005859.699707 2.1337891 1.6655273 3.8994141 2.8999023 5.2988281 1.2329102 1.4003906 2.6826172 2.4355469 4.3500977 3.1005859 1.6655273.6669922 3.465332 1 5.3999023 1 2.7998047 0 5.1826172-.5 7.1499023-1.5 1.9658203-1 3.515625-2.1650391 4.6494141-3.5v-31.2001953c-.6660156-.265625-1.6660156-.5-3-.6992188-1.3339844-.2011719-2.7666016-.3007812-4.2993164-.3007812-5.6000977 0-10.0341797 1.6679688-13.2998047 5-3.2675781 3.3339844-4.9003906 8.4003907-4.9003906 15.2001954zM433.4003601 271.1992493c3.265625 0 6.0654297.5664062 8.3994141 1.6933594 2.3330078 1.1308594 4.265625 2.6738281 5.7998047 4.6328125 1.5332031 1.9599609 2.6660156 4.2333984 3.4003906 6.8242188.7324219 2.5898438 1.0996094 5.3457031 1.0996094 8.2675781v2.2421875c0 .7636719-.0664062 1.5097656-.1992188 2.2402344h-32.6005859c.2001953 6.2714844 1.6503906 10.7890625 4.3505859 13.5527344 2.6992188 2.765625 6.9824219 4.1464844 12.8496094 4.1464844 2.5332031 0 4.9824219-.265625 7.3496094-.7988281 2.3662109-.5332031 4.1835938-1.1660156 5.4501953-1.9003906h.7001953v5.9472656c-1.1347656.7207031-3 1.3945312-5.5996094 2.0175781-2.6005859.6230469-5.6679688.9355469-9.2001953.9355469-8.2001953 0-14.2675781-2.1835938-18.2001953-6.5507812-3.9345703-4.3652344-5.9003906-10.3828125-5.9003906-18.0498047 0-3.7998047.5-7.25 1.5-10.3505859 1-3.0996094 2.4501953-5.75 4.3505859-7.9492188 1.8994141-2.2001953 4.2324219-3.9003906 7-5.0996094 2.765625-1.2011721 5.9150391-1.8007814 9.4501953-1.8007814zm-.3007812 5.8007812c-4 0-7.1669922 1.1660156-9.5 3.5-2.3339844 2.3339844-3.734375 6.0996094-4.1992188 11.2988281h24.8994141c-.1337891-4.4648438-1.0839844-8.0488281-2.8496094-10.75-1.7675781-2.6992187-4.5498047-4.0488281-8.3505859-4.0488281zM488.7997742 252.0000305h8.1005859v29.5996094H533v-29.5996094h8.2001953v68H533v-31.9003906h-36.0996399v31.9003906h-8.1005859v-68zM585.5 315.4082336h-.4003906c-1.1347656 1.2880859-2.9003906 2.5429688-5.2998047 3.7617188-2.4003906 1.21875-5.2001953 1.8300781-8.4003906 1.8300781-2.3339844 0-4.4345703-.3515625-6.2998047-1.0537109-1.8671875-.703125-3.4501953-1.65625-4.75-2.8603516-1.2998047-1.203125-2.2841797-2.625-2.9501953-4.2646484-.6669922-1.6396484-1-3.3955078-1-5.2705078 0-2.5410156.4833984-4.7304688 1.4501953-6.5722656.9658203-1.8398438 2.3154297-3.3613281 4.0498047-4.5664062 1.7333984-1.203125 3.7998047-2.0908203 6.2001953-2.6601562 2.4003906-.5683594 5.0654297-.8525391 8-.8525391h9.2001953V287.59964c0-3.8007812-.9169922-6.4501953-2.75-7.9501953-1.8349609-1.5-4.8847656-2.25-9.1503906-2.25-2.6669922 0-5.2001953.234375-7.5996094.7001953-2.4003906.4667969-4.1669922 1-5.2998047 1.5996094h-.7001953v-5.9404297c1.4658203-.7216797 3.515625-1.328125 6.1494141-1.8203125 2.6328125-.4921875 5.515625-.7392578 8.6503906-.7392578 6.7998047 0 11.5654297 1.25 14.2998047 3.75 2.7333984 2.5 4.1005859 6.3173828 4.1005859 11.4501953v33.6005859h-7.5v-4.591797zm-21.3007812-8.508789c0 2.5341797.8007812 4.484375 2.4003906 5.8505859 1.5996094 1.3671875 3.7998047 2.0488281 6.5996094 2.0488281 1.3330078 0 2.6503906-.1650391 3.9501953-.5 1.2998047-.3320312 2.5-.7822266 3.6005859-1.3496094 1.0996094-.5654297 2.0498047-1.1660156 2.8496094-1.7998047.7998047-.6328125 1.3652344-1.25 1.7001953-1.8505859v-11.0996094h-8.2001953c-4.2001953 0-7.4003906.7001953-9.5996094 2.0996094-2.2001953 1.4003907-3.3007812 3.600586-3.3007812 6.600586zM635.5 315.4082336h-.4003906c-1.1347656 1.2880859-2.9003906 2.5429688-5.2998047 3.7617188-2.4003906 1.21875-5.2001953 1.8300781-8.4003906 1.8300781-2.3339844 0-4.4345703-.3515625-6.2998047-1.0537109-1.8671875-.703125-3.4501953-1.65625-4.75-2.8603516-1.2998047-1.203125-2.2841797-2.625-2.9501953-4.2646484-.6669922-1.6396484-1-3.3955078-1-5.2705078 0-2.5410156.4833984-4.7304688 1.4501953-6.5722656.9658203-1.8398438 2.3154297-3.3613281 4.0498047-4.5664062 1.7333984-1.203125 3.7998047-2.0908203 6.2001953-2.6601562 2.4003906-.5683594 5.0654297-.8525391 8-.8525391h9.2001953V287.59964c0-3.8007812-.9169922-6.4501953-2.75-7.9501953-1.8349609-1.5-4.8847656-2.25-9.1503906-2.25-2.6669922 0-5.2001953.234375-7.5996094.7001953-2.4003906.4667969-4.1669922 1-5.2998047 1.5996094h-.7001953v-5.9404297c1.4658203-.7216797 3.515625-1.328125 6.1494141-1.8203125 2.6328125-.4921875 5.515625-.7392578 8.6503906-.7392578 6.7998047 0 11.5654297 1.25 14.2998047 3.75 2.7333984 2.5 4.1005859 6.3173828 4.1005859 11.4501953v33.6005859h-7.5v-4.591797zm-21.3007812-8.508789c0 2.5341797.8007812 4.484375 2.4003906 5.8505859 1.5996094 1.3671875 3.7998047 2.0488281 6.5996094 2.0488281 1.3330078 0 2.6503906-.1650391 3.9501953-.5 1.2998047-.3320312 2.5-.7822266 3.6005859-1.3496094 1.0996094-.5654297 2.0498047-1.1660156 2.8496094-1.7998047.7998047-.6328125 1.3652344-1.25 1.7001953-1.8505859v-11.0996094h-8.2001953c-4.2001953 0-7.4003906.7001953-9.5996094 2.0996094-2.2001953 1.4003907-3.3007812 3.600586-3.3007812 6.600586zM659.3994141 272.1992493h7.7998047v4.5H667.5c1.7324219-1.4648438 3.9326172-2.75 6.5996094-3.8496094 2.6660156-1.0996094 5.6328125-1.6503906 8.9003906-1.6503906 4.9326172 0 8.6650391 1.1845703 11.1992188 3.5507812C696.7324219 277.117218 698 280.5996399 698 285.1992493v34.8007812h-7.8007812v-32.7011719c0-3.5322266-.7841797-6.0322266-2.3496094-7.5-1.5673828-1.4648438-4.0498047-2.1992188-7.4501953-2.1992188-2.5341797 0-4.984375.5175781-7.3496094 1.5498047-2.3671875 1.0341797-4.3173828 2.25-5.8505859 3.6494141v37.2011719h-7.7998047v-47.8007812z" style="fill:#b5b0a6"/><path d="M299.5234375 117.9995117h67.0400391v16h-46.3999023v29.2797852h40.3198242v15.8398438h-40.3198242v31.6801758h48.4799805v15.9995117h-69.1201172V117.9995117zM391.8417969 117.9995117h20.640625v92.7998047h42.4003906v15.9995117h-63.0410156V117.9995117zM475.5214844 117.9995117h20.6396484v108.7993164h-20.6396484V117.9995117zM526.7197266 117.9995117h67.0400391v16H547.359375v29.2797852h40.3203125v15.8398438H547.359375v31.6801758h48.4794922v15.9995117h-69.1191406V117.9995117zM619.0390625 117.9995117h40.3193359c12.3730469 0 21.6523438 2.8271484 27.8398438 8.4799805 6.1855469 5.6547852 9.2802734 13.4399414 9.2802734 23.3598633 0 7.5751953-2.0800781 13.8149414-6.2402344 18.7197266-4.1591797 4.9077148-9.5996094 8.5351562-16.3193359 10.8803711l31.1992188 47.359375h-23.359375l-27.2001953-43.0395508H639.678711v43.0395508h-20.6396484V117.9995117zm33.4394531 50.5595703c8 0 13.7324219-1.5722656 17.2001953-4.7197266 3.4648438-3.1450195 5.2001953-7.6000977 5.2001953-13.3598633 0-5.9726562-1.7353516-10.2651367-5.2001953-12.8803711-3.4677734-2.6123047-8.2402344-3.9199219-14.3203125-3.9199219h-15.6796875v34.8798828h12.7998047zM64 59.0000038h148l-18.7163086 58.9995079h87.6801758v15.8398438h-33.6000977v92.9594727L64 226.7987976V59.0000038z" style="fill:#90897a"/><path d="M84.4800034 134h142.4037933v63H84.4800034z" style="fill:#2d1c01"/><path d="M144.1235352 117.9995117h24.6401367l38.8798828 108.7993164h-21.7597656l-9.4399414-27.5195312H134.84375l-9.2802734 27.5195312h-20.4799805l39.0400391-108.7993164zm27.040039 65.5996094-9.2797852-27.3598633c-.215332-.5322266-.6152344-1.7851562-1.2001953-3.7597656-.5874023-1.9726562-1.199707-4.0527344-1.8398438-6.2402344-.6401367-2.1850586-1.2275391-4.2124023-1.7602539-6.0800781-.534668-1.8647461-.8549805-3.012207-.9599609-3.4399414h-.6396484c-.1079102.4277344-.4277344 1.5751953-.9599609 3.4399414-.5351562 1.8676758-1.1479492 3.8950195-1.840332 6.0800781-.6948242 2.1875-1.3349609 4.2675781-1.9199219 6.2402344-.5874023 1.9746094-.9873047 3.2275391-1.2001953 3.7597656l-9.2797852 27.3598633h30.8798828z" style="fill:#f4b625"/></svg>
