<?xml version="1.0" encoding="utf-8"?>
<svg xmlns="http://www.w3.org/2000/svg" xml:space="preserve" style="enable-background:new 0 0 768 384" viewBox="0 0 768 384"><path d="M64.0996094 314.257843h4.4980469c1.5947266 0 2.3925781-.796875 2.3925781-2.3925781v-48.8085938c0-1.5947266-.7978516-2.3925781-2.3925781-2.3925781h-4.4980469v-5.7421722h28.9023438c3.8916016 0 7.2412109.359375 10.0488281 1.0761719 2.8066406.7187347 5.1118164 1.7392426 6.9145508 3.0624847 1.8017578 1.3242188 3.1259766 2.9199219 3.9716797 4.7851562.8447266 1.8671875 1.2680664 3.9648438 1.2680664 6.2929688 0 2.1376953-.4628906 4.0673828-1.3876953 5.7900391-.9257812 1.7226562-2.1137695 3.2138672-3.5649414 4.4736328-1.4521484 1.2607422-3.0625 2.2900391-4.8330078 3.0869141-1.7705078.7978516-3.4858398 1.3242188-5.144043 1.5791016v.2871094c2.0410156.2236328 4.1225586.7099609 6.2446289 1.4589844 2.1210938.75 4.0507812 1.7792969 5.7900391 3.0869141 1.7382812 1.3085938 3.1655273 2.8876953 4.2827148 4.7373047 1.1162109 1.8505859 1.6748047 3.9882812 1.6748047 6.4121094 0 2.8076172-.4628906 5.3671875-1.3876953 7.6796875-.9257812 2.3134766-2.3852539 4.3066406-4.378418 5.9824219-1.9941406 1.6738281-4.5698242 2.9746094-7.7280273 3.8994141-3.1582031.9257812-6.9550781 1.3876953-11.3886719 1.3876953H64.0996094v-5.7421878zm19.4277344-31.2949219h6.5078125c4.0830078 0 7.1611328-.9169922 9.2353516-2.7519531 2.0732422-1.8339844 3.1103516-4.7763672 3.1103516-8.828125 0-3.2851562-1.0371094-5.8144531-3.1103516-7.5839844-2.0742188-1.7714844-5.0566406-2.65625-8.9482422-2.65625h-6.7949219v21.8203125zm6.6992187 30.8164063c2.4560547 0 4.609375-.2314453 6.4599609-.6933594 1.8496094-.4628906 3.3974609-1.1972656 4.6416016-2.2011719 1.2441406-1.0058594 2.1772461-2.2890625 2.7993164-3.8525391.6220703-1.5625.9331055-3.4609375.9331055-5.6943359 0-4.1464844-1.2680664-7.2412109-3.8041992-9.2832031-2.5361328-2.0410156-6.309082-3.0625-11.3168945-3.0625h-6.4121094v24.7871094h6.6992187zM127.328125 314.257843h3.4453125c1.5947266 0 2.3925781-.796875 2.3925781-2.3925781v-29.859375c0-1.5947266-.7978516-2.3925781-2.3925781-2.3925781h-3.4453125v-5.7421875h15.2167969c1.5947266 0 2.3925781.8300781 2.3925781 2.4882812v4.8808594h.2871094c.4785156-1.0205078 1.0922852-2.0332031 1.8422852-3.0390625.7490234-1.0039062 1.6269531-1.8974609 2.6318359-2.6796875 1.0048828-.78125 2.1210938-1.4111328 3.3496094-1.8896484 1.2275391-.4785156 2.5756836-.7177734 4.043457-.7177734 1.1796875 0 2.296875.0957031 3.3496094.2871094v9.6660156h-.8613281c-.5429688-.0957031-1.0932617-.1835938-1.6508789-.2636719-.5585938-.0791016-1.1567383-.1191406-1.7944336-.1191406-2.4570312 0-4.6499023.4306641-6.5795898 1.2919922-1.9306641.8613281-3.4692383 2.0898438-4.6176758 3.6845703v24.4042969c0 1.5957031.765625 2.3925781 2.296875 2.3925781h4.6894531v5.7421875H127.328125v-5.7421876zM170.2670898 275.820343c.7011719-.4199219 1.6186523-.8154297 2.7514648-1.1865234 1.1318359-.3710938 2.4165039-.6777344 3.8520508-.9208984 1.4355469-.2421875 2.9980469-.4355469 4.6894531-.5800781 1.6904297-.1455078 3.4765625-.21875 5.359375-.21875 3.4765625 0 6.3881836.2714844 8.7329102.8134766 2.3447266.5429688 4.2348633 1.3876953 5.6704102 2.5361328s2.4560547 2.6318359 3.0625 4.4501953c.6054688 1.8183594.9091797 4.0039062.9091797 6.5556641v23.9257812c0 .6386719.0634766 1.15625.1914062 1.5546875.1269531.3994141.3183594.7109375.5742188.9335938.2548828.2236328.5898438.375 1.0048828.4550781.4140625.0791016.9091797.1191406 1.4833984.1191406h2.4882812v5.7421875c-.4785156.0634766-1.1005859.1513672-1.8662109.2636719-.765625.1113281-1.6030273.2148438-2.512207.3105469s-1.8662109.1835938-2.8710938.2636719c-1.0048828.0791016-2.0024414.1191406-2.9907227.1191406-1.3085938 0-2.3852539-.1279297-3.2299805-.3828125-.8457031-.2558594-1.515625-.6298828-2.0097656-1.125-.4951172-.4941406-.8457031-1.1074219-1.0527344-1.8417969-.2080078-.7333984-.3110352-1.5947266-.3110352-2.5839844h-.3828125c-.6064453.6699219-1.3085938 1.3564453-2.1054688 2.0576172-.7978516.7021484-1.730957 1.3398438-2.7993164 1.9140625-1.0693359.5742188-2.28125 1.0449219-3.6367188 1.4111328-1.3564453.3671875-2.8793945.5507812-4.5698242.5507812-2.296875 0-4.3149414-.3193359-6.0532227-.9570312-1.7392578-.6376953-3.1821289-1.5146484-4.3305664-2.6318359-1.1484375-1.1162109-2.0180664-2.4482422-2.6079102-3.9951172-.5908203-1.5478516-.8852539-3.2304688-.8852539-5.0488281 0-4.625 1.6508789-8.1113281 4.9526367-10.4550781 3.3017578-2.3457031 8.5415039-3.5175781 15.7192383-3.5175781h6.0292969v-4.9414062c0-1.5839844-.184082-2.9296875-.550293-4.0390625-.3671875-1.1083984-.9570312-2.0039062-1.7705078-2.6845703-.8134766-.6816406-1.8828125-1.1728516-3.2060547-1.4736328-1.3242188-.2998047-2.9594727-.4511719-4.9047852-.4511719-2.5527344 0-4.8808594.1914062-6.9863281.5742188s-3.7646484.8935547-4.9765625 1.53125h-.8613281v-7.0468753zm23.2558594 23.9863281h-4.4980469c-1.8828125 0-3.4775391.1601562-4.7851562.4785156-1.3085938.3193359-2.3686523.7822266-3.1821289 1.3876953-.8134766.6064453-1.3959961 1.3564453-1.746582 2.2490234-.3515625.8935547-.5263672 1.9140625-.5263672 3.0625 0 2.265625.5742188 3.9638672 1.7226562 5.0957031 1.1484375 1.1328125 2.7753906 1.6992188 4.8808594 1.6992188.9570312 0 1.8662109-.1357422 2.7275391-.40625.8613281-.2714844 1.6508789-.6142578 2.3686523-1.0292969.7177734-.4140625 1.3398438-.8769531 1.8662109-1.3876953.5263672-.5097656.9165039-1.0048828 1.1723633-1.4833984v-9.6660156zM275.7006836 314.257843h3.1582031c.8291016 0 1.4189453-.1914062 1.7705078-.5742188.3505859-.3828125.5263672-.9882812.5263672-1.8183594v-22.3945312c0-2.8710938-.5585938-4.9599609-1.6748047-6.2685547-1.1171875-1.3076172-2.9833984-1.9619141-5.5986328-1.9619141-1.5957031 0-3.1904297.359375-4.7851562 1.0761719-1.5957031.71875-2.9667969 1.6357422-4.1152344 2.7519531.0634766.3515625.0957031.6865234.0957031 1.0048828v25.7919922c0 1.5957031.765625 2.3925781 2.296875 2.3925781h3.2539062v5.7421875h-22.7773438v-5.7421875h3.2539062c1.53125 0 2.296875-.796875 2.296875-2.3925781v-22.3945312c0-2.9023438-.5668945-5-1.6987305-6.2929688-1.1328125-1.2910156-3.0229492-1.9375-5.6704102-1.9375-.9257812 0-1.8266602.1279297-2.7036133.3828125-.8779297.2558594-1.715332.5742188-2.512207.9570312-.7978516.3828125-1.53125.8212891-2.2011719 1.3164062-.6699219.4941406-1.2285156.9804688-1.6748047 1.4589844v26.5097656c0 1.5957031.765625 2.3925781 2.296875 2.3925781h3.2539062v5.7421875H219.331543v-5.7421875h3.4453125c1.5947266 0 2.3925781-.796875 2.3925781-2.3925781v-29.859375c0-1.5947266-.7978516-2.3925781-2.3925781-2.3925781h-3.4453125v-5.7421875h15.2167969c1.5947266 0 2.3925781.8300781 2.3925781 2.4882812v2.9667969h.2871094c.6699219-.765625 1.4833984-1.53125 2.4404297-2.296875s2.0493164-1.4511719 3.277832-2.0576172c1.2275391-.6054688 2.5673828-1.1005859 4.0195312-1.4833984 1.4511719-.3828125 3.0219727-.5742188 4.7133789-.5742188 3.2851562 0 5.9169922.5908203 7.8955078 1.7705078 1.9775391 1.1806641 3.4287109 2.9189453 4.3544922 5.2158203.8291016-.8925781 1.8017578-1.7626953 2.9189453-2.6074219 1.1162109-.8457031 2.3364258-1.5957031 3.6606445-2.25 1.3232422-.6533203 2.7348633-1.171875 4.2348633-1.5546875 1.4990234-.3828125 3.0625-.5742188 4.6894531-.5742188 4.625 0 8.0307617 1.171875 10.2163086 3.5175781 2.1845703 2.34375 3.277832 5.8935547 3.277832 10.6464844v24.7871094c0 .8300781.1748047 1.4355469.5263672 1.8183594.3505859.3828125.9404297.5742188 1.7705078.5742188h3.4453125v5.7421875h-22.96875v-5.7421873zM363.7807617 314.9277649h-.3828125c-.5429688.734375-1.1962891 1.4589844-1.9619141 2.1777344-.765625.7167969-1.6748047 1.3632812-2.7275391 1.9375s-2.265625 1.0361328-3.6367188 1.3876953c-1.3720703.3505859-2.9355469.5263672-4.6894531.5263672-2.9667969 0-5.6308594-.5185547-7.9912109-1.5546875-2.3613281-1.0371094-4.3710938-2.5371094-6.0292969-4.4980469-1.6591797-1.9628906-2.9272461-4.3554688-3.8041992-7.1777344-.8779297-2.8242188-1.315918-6.0058594-1.315918-9.546875 0-3.7324219.6137695-7.1455078 1.8422852-10.2402344 1.2275391-3.09375 2.9584961-5.7578125 5.1918945-7.9912109 2.2324219-2.2324219 4.9121094-3.9638672 8.0390625-5.1923828 3.1259766-1.2275391 6.5869141-1.8417969 10.3837891-1.8417969 1.5947266 0 2.9824219.0800781 4.1630859.2392578 1.1796875.1601562 2.1533203.3671875 2.9189453.6220703V256.835968c0-1.5947113-.765625-2.3925629-2.296875-2.3925629h-3.4453125v-5.7421875h15.2167969c1.53125 0 2.296875.7978516 2.296875 2.3925781v60.7714691c0 1.5957031.765625 2.3925781 2.296875 2.3925781h3.5410156v5.7421875h-15.3125c-1.53125 0-2.296875-.796875-2.296875-2.3925781v-2.6796874zm0-34.8359375c-.5429688-.1914062-1.1806641-.3662109-1.9140625-.5263672-.734375-.1591797-1.6269531-.2392578-2.6796875-.2392578-5.2324219 0-9.0917969 1.5078125-11.5800781 4.5214844-2.4882812 3.015625-3.7324219 7.4101562-3.7324219 13.1835938 0 2.8076172.2631836 5.2236328.7895508 7.25.5263672 2.0253906 1.2836914 3.6923828 2.2729492 5 .9882812 1.3085938 2.1845703 2.2734375 3.5888672 2.8945312 1.4033203.6230469 2.9824219.9335938 4.7373047.9335938 1.0839844 0 2.0732422-.1269531 2.9667969-.3828125.8925781-.2548828 1.6987305-.5742188 2.4165039-.9570312s1.3398438-.8134766 1.8662109-1.2919922.9487305-.9404297 1.2680664-1.3876953v-28.998047zM402.1259766 297.1230774c0 5.5195312 1.2675781 9.5634766 3.8046875 12.1328125 2.5351562 2.5693359 6.3710938 3.8535156 11.5078125 3.8535156 2.296875 0 4.4658203-.1914062 6.5078125-.5742188 2.0410156-.3828125 3.6679688-.8925781 4.8808594-1.53125h.9570312v7.046875c-.6386719.3876953-1.4912109.7587891-2.5605469 1.1142578-1.0683594.3544922-2.296875.6611328-3.6835938.9199219-1.3886719.2578125-2.9033203.46875-4.546875.6298828-1.6425781.1611328-3.3417969.2421875-5.0957031.2421875-4.1474609 0-7.7441406-.5341797-10.7910156-1.6035156-3.0458984-1.0683594-5.5742188-2.6074219-7.5839844-4.6171875s-3.5009766-4.4658203-4.4746094-7.3691406c-.9726562-2.9023438-1.4589844-6.1884766-1.4589844-9.8574219 0-3.6679688.5341797-7.0097656 1.6035156-10.0253906 1.0683594-3.0136719 2.5996094-5.5976562 4.59375-7.7519531 1.9931641-2.1523438 4.4179688-3.828125 7.2734375-5.0234375 2.8544922-1.1972656 6.0839844-1.7949219 9.6894531-1.7949219 3.2539062 0 6.0927734.4550781 8.5175781 1.3632812 2.4238281.9101562 4.4335938 2.1542969 6.0292969 3.7324219 1.5947266 1.5800781 2.7910156 3.4384766 3.5888672 5.5751953.796875 2.1376953 1.1962891 4.4501953 1.1962891 6.9384766 0 1.1171875-.0400391 2.1933594-.1191406 3.2304688-.0800781 1.0361328-.1679688 1.9375-.2636719 2.703125h-29.5722656v.6660156zm15.5996093-6.1210938c.9248047 0 1.5869141-.2060547 1.9863281-.6171875.3984375-.4111328.5976562-1.0908203.5976562-2.0410156 0-2.8798828-.6777344-5.1337891-2.0332031-6.7636719-1.3564453-1.6298828-3.3583984-2.4453125-6.0058594-2.4453125-1.5634766 0-2.9355469.2929688-4.1152344.8789062-1.1806641.5849609-2.1855469 1.4003906-3.0146484 2.4433594-.8300781 1.0449219-1.4755859 2.2949219-1.9384766 3.7509766-.4619141 1.4550781-.7578125 3.0537109-.8847656 4.7939453h15.4082032zM510.0166016 314.257843h4.4980469c1.5947266 0 2.3925781-.796875 2.3925781-2.3925781V289.757843h-31.0078125v22.1074219c0 1.5957031.796875 2.3925781 2.3925781 2.3925781h4.59375v5.7421875h-26.3183594v-5.7421875h4.59375c1.53125 0 2.296875-.796875 2.296875-2.3925781v-48.8085938c0-1.5947266-.765625-2.3925781-2.296875-2.3925781h-4.59375v-5.7421722h26.3183594v5.7421722h-4.59375c-1.5957031 0-2.3925781.7978516-2.3925781 2.3925781v20.2890625h31.0078125v-20.2890625c0-1.5947266-.7978516-2.3925781-2.3925781-2.3925781h-4.4980469v-5.7421722h26.2226562v5.7421722h-4.59375c-1.53125 0-2.296875.7978516-2.296875 2.3925781v48.8085938c0 1.5957031.765625 2.3925781 2.296875 2.3925781h4.59375v5.7421875h-26.2226562v-5.7421875zM549.3193359 275.820343c.7011719-.4199219 1.6191406-.8154297 2.7519531-1.1865234 1.1318359-.3710938 2.4160156-.6777344 3.8515625-.9208984 1.4355469-.2421875 2.9980469-.4355469 4.6894531-.5800781 1.6904297-.1455078 3.4765625-.21875 5.359375-.21875 3.4765625 0 6.3886719.2714844 8.7324219.8134766 2.3457031.5429688 4.2353516 1.3876953 5.6708984 2.5361328s2.4560547 2.6318359 3.0625 4.4501953c.6054688 1.8183594.9091797 4.0039062.9091797 6.5556641v23.9257812c0 .6386719.0634766 1.15625.1914062 1.5546875.1269531.3994141.3183594.7109375.5742188.9335938.2548828.2236328.5898438.375 1.0048828.4550781.4140625.0791016.9091797.1191406 1.4833984.1191406h2.4882812v5.7421875c-.4785156.0634766-1.1005859.1513672-1.8662109.2636719-.765625.1113281-1.6025391.2148438-2.5126953.3105469-.9082031.0957031-1.8652344.1835938-2.8710938.2636719-1.0039062.0791016-2.0019531.1191406-2.9902344.1191406-1.3085938 0-2.3847656-.1279297-3.2304688-.3828125-.8447266-.2558594-1.5146484-.6298828-2.0097656-1.125-.4941406-.4941406-.8447266-1.1074219-1.0527344-1.8417969-.2070312-.7333984-.3105469-1.5947266-.3105469-2.5839844h-.3828125c-.6064453.6699219-1.3085938 1.3564453-2.1054688 2.0576172-.7978516.7021484-1.7304688 1.3398438-2.7988281 1.9140625-1.0693359.5742188-2.28125 1.0449219-3.6367188 1.4111328-1.3564453.3671875-2.8798828.5507812-4.5703125.5507812-2.296875 0-4.3144531-.3193359-6.0527344-.9570312-1.7392578-.6376953-3.1826172-1.5146484-4.3310547-2.6318359-1.1484375-1.1162109-2.0175781-2.4482422-2.6083984-3.9951172-.5898438-1.5478516-.8847656-3.2304688-.8847656-5.0488281 0-4.625 1.6503906-8.1113281 4.953125-10.4550781 3.3007812-2.3457031 8.5410156-3.5175781 15.71875-3.5175781h6.0292969v-4.9414062c0-1.5839844-.1835938-2.9296875-.5507812-4.0390625-.3662109-1.1083984-.9570312-2.0039062-1.7695312-2.6845703-.8144531-.6816406-1.8828125-1.1728516-3.2070312-1.4736328-1.3232422-.2998047-2.9589844-.4511719-4.9042969-.4511719-2.5527344 0-4.8808594.1914062-6.9863281.5742188s-3.7646484.8935547-4.9765625 1.53125h-.8613281v-7.0468753zm23.2558594 23.9863281h-4.4980469c-1.8828125 0-3.4775391.1601562-4.7851562.4785156-1.3085938.3193359-2.3691406.7822266-3.1816406 1.3876953-.8144531.6064453-1.3964844 1.3564453-1.7470703 2.2490234-.3515625.8935547-.5263672 1.9140625-.5263672 3.0625 0 2.265625.5742188 3.9638672 1.7226562 5.0957031 1.1484375 1.1328125 2.7753906 1.6992188 4.8808594 1.6992188.9570312 0 1.8662109-.1357422 2.7275391-.40625.8613281-.2714844 1.6513672-.6142578 2.3681641-1.0292969.71875-.4140625 1.3398438-.8769531 1.8671875-1.3876953.5253906-.5097656.9160156-1.0048828 1.171875-1.4833984v-9.6660156zM601.4462891 275.820343c.7011719-.4199219 1.6191406-.8154297 2.7519531-1.1865234 1.1318359-.3710938 2.4160156-.6777344 3.8515625-.9208984 1.4355469-.2421875 2.9980469-.4355469 4.6894531-.5800781 1.6904297-.1455078 3.4765625-.21875 5.359375-.21875 3.4765625 0 6.3886719.2714844 8.7324219.8134766 2.3457031.5429688 4.2353516 1.3876953 5.6708984 2.5361328s2.4560547 2.6318359 3.0625 4.4501953c.6054688 1.8183594.9091797 4.0039062.9091797 6.5556641v23.9257812c0 .6386719.0634766 1.15625.1914062 1.5546875.1269531.3994141.3183594.7109375.5742188.9335938.2548828.2236328.5898438.375 1.0048828.4550781.4140625.0791016.9091797.1191406 1.4833984.1191406h2.4882812v5.7421875c-.4785156.0634766-1.1005859.1513672-1.8662109.2636719-.765625.1113281-1.6025391.2148438-2.5126953.3105469-.9082031.0957031-1.8652344.1835938-2.8710938.2636719-1.0039062.0791016-2.0019531.1191406-2.9902344.1191406-1.3085938 0-2.3847656-.1279297-3.2304688-.3828125-.8447266-.2558594-1.5146484-.6298828-2.0097656-1.125-.4941406-.4941406-.8447266-1.1074219-1.0527344-1.8417969-.2070312-.7333984-.3105469-1.5947266-.3105469-2.5839844h-.3828125c-.6064453.6699219-1.3085938 1.3564453-2.1054688 2.0576172-.7978516.7021484-1.7304688 1.3398438-2.7988281 1.9140625-1.0693359.5742188-2.28125 1.0449219-3.6367188 1.4111328-1.3564453.3671875-2.8798828.5507812-4.5703125.5507812-2.296875 0-4.3144531-.3193359-6.0527344-.9570312-1.7392578-.6376953-3.1826172-1.5146484-4.3310547-2.6318359-1.1484375-1.1162109-2.0175781-2.4482422-2.6083984-3.9951172-.5898438-1.5478516-.8847656-3.2304688-.8847656-5.0488281 0-4.625 1.6503906-8.1113281 4.953125-10.4550781 3.3007812-2.3457031 8.5410156-3.5175781 15.71875-3.5175781h6.0292969v-4.9414062c0-1.5839844-.1835938-2.9296875-.5507812-4.0390625-.3662109-1.1083984-.9570312-2.0039062-1.7695312-2.6845703-.8144531-.6816406-1.8828125-1.1728516-3.2070312-1.4736328-1.3232422-.2998047-2.9589844-.4511719-4.9042969-.4511719-2.5527344 0-4.8808594.1914062-6.9863281.5742188s-3.7646484.8935547-4.9765625 1.53125h-.8613281v-7.0468753zm23.2558593 23.9863281h-4.4980469c-1.8828125 0-3.4775391.1601562-4.7851562.4785156-1.3085938.3193359-2.3691406.7822266-3.1816406 1.3876953-.8144531.6064453-1.3964844 1.3564453-1.7470703 2.2490234-.3515625.8935547-.5263672 1.9140625-.5263672 3.0625 0 2.265625.5742188 3.9638672 1.7226562 5.0957031 1.1484375 1.1328125 2.7753906 1.6992188 4.8808594 1.6992188.9570312 0 1.8662109-.1357422 2.7275391-.40625.8613281-.2714844 1.6513672-.6142578 2.3681641-1.0292969.71875-.4140625 1.3398438-.8769531 1.8671875-1.3876953.5253906-.5097656.9160156-1.0048828 1.171875-1.4833984v-9.6660156zM650.5097656 314.257843h3.4453125c1.5947266 0 2.3925781-.796875 2.3925781-2.3925781v-29.859375c0-1.5947266-.7978516-2.3925781-2.3925781-2.3925781h-3.4453125v-5.7421875h15.2167969c1.5947266 0 2.3925781.8300781 2.3925781 2.4882812v2.9667969h.3828125c.7333984-.796875 1.5947266-1.5791016 2.5839844-2.3447266.9882812-.765625 2.0976562-1.4511719 3.3261719-2.0576172 1.2275391-.6054688 2.5751953-1.0927734 4.0429688-1.4589844 1.4667969-.3671875 3.0625-.5507812 4.7851562-.5507812 4.8486328 0 8.3896484 1.1962891 10.6230469 3.5888672 2.2324219 2.3925781 3.3496094 5.9501953 3.3496094 10.6708984v24.6914062c0 1.5957031.765625 2.3925781 2.296875 2.3925781h3.5410156V320l-23.2558594.0000305v-5.7421875h3.3496094c1.53125 0 2.296875-.796875 2.296875-2.3925781v-22.5859375c0-2.9345703-.6064453-5.0078125-1.8183594-6.2207031-1.2128906-1.2119141-3.0947266-1.8183594-5.6464844-1.8183594-2.1699219 0-4.0917969.4228516-5.765625 1.2675781-1.6757812.8457031-3.0390625 1.7949219-4.0917969 2.8476562v26.5097656c0 1.5957031.765625 2.3925781 2.296875 2.3925781h3.3496094v5.7421875h-23.2558594v-5.7421874z" style="fill:#171511"/><path d="M299.5234375 122.9995117h67.0400391v16h-46.3999023v29.2797852h40.3198242v15.8398438h-40.3198242v31.6801758h48.4799805v15.9995117h-69.1201172V122.9995117zM391.8417969 122.9995117h20.640625v92.7998047h42.4003906v15.9995117h-63.0410156V122.9995117zM475.5214844 122.9995117h20.6396484v108.7993164h-20.6396484V122.9995117zM526.7197266 122.9995117h67.0400391v16H547.359375v29.2797852h40.3203125v15.8398438H547.359375v31.6801758h48.4794922v15.9995117h-69.1191406V122.9995117zM619.0390625 122.9995117h40.3193359c12.3730469 0 21.6523438 2.8271484 27.8398438 8.4799805 6.1855469 5.6547852 9.2802734 13.4399414 9.2802734 23.3598633 0 7.5751953-2.0800781 13.8149414-6.2402344 18.7197266-4.1591797 4.9077148-9.5996094 8.5351562-16.3193359 10.8803711l31.1992188 47.359375h-23.359375l-27.2001953-43.0395508H639.678711v43.0395508h-20.6396484V122.9995117zm33.4394531 50.5595703c8 0 13.7324219-1.5722656 17.2001953-4.7197266 3.4648438-3.1450195 5.2001953-7.6000977 5.2001953-13.3598633 0-5.9726562-1.7353516-10.2651367-5.2001953-12.8803711-3.4677734-2.6123047-8.2402344-3.9199219-14.3203125-3.9199219h-15.6796875v34.8798828h12.7998047zM64 64h148l-18.7163086 58.9995117h87.6801758v15.8398438h-33.6000977v92.9594727L64 231.7987976V64z" style="fill:#2c2a25"/><path d="M84.4800034 139h142.4037933v63H84.4800034z" style="fill:#fff"/><path d="M144.1235352 122.9995117h24.6401367l38.8798828 108.7993164h-21.7597656l-9.4399414-27.5195312H134.84375l-9.2802734 27.5195312h-20.4799805l39.0400391-108.7993164zm27.040039 65.5996094-9.2797852-27.3598633c-.215332-.5322266-.6152344-1.7851562-1.2001953-3.7597656-.5874023-1.9726562-1.199707-4.0527344-1.8398438-6.2402344-.6401367-2.1850586-1.2275391-4.2124023-1.7602539-6.0800781-.534668-1.8647461-.8549805-3.012207-.9599609-3.4399414h-.6396484c-.1079102.4277344-.4277344 1.5751953-.9599609 3.4399414-.5351562 1.8676758-1.1479492 3.8950195-1.840332 6.0800781-.6948242 2.1875-1.3349609 4.2675781-1.9199219 6.2402344-.5874023 1.9746094-.9873047 3.2275391-1.2001953 3.7597656l-9.2797852 27.3598633h30.8798828z" style="fill:#da9c0b"/></svg>
