<?xml version="1.0" encoding="utf-8"?>
<svg xmlns="http://www.w3.org/2000/svg" xml:space="preserve" style="enable-background:new 0 0 768 384" viewBox="0 0 768 384"><path d="M273.125 94.298h-78.764L202.262 64H64v172.51h182.41V114.786h26.715zM292.25 236.511V94.298h63.675v21.292h-40.574v37.763h37.561v19.685h-37.561v41.98h42.583v21.493h-65.683zM384.893 236.511V94.298h24.305v119.917h39.169v22.296h-63.474zM469.1 236.511V94.298h24.105v142.213H469.1zM527.195 236.511V94.298h63.674v21.292h-40.575v37.763h37.562v19.685h-37.562v41.98h42.584v21.493h-65.683zM678.69 236.511l-22.094-60.661h-13.458v60.661h-23.3V94.298h40.574c5.891 0 11.315.772 16.27 2.31 4.953 1.541 9.205 3.986 12.755 7.332 3.547 3.348 6.328 7.567 8.336 12.654 2.009 5.09 3.013 11.183 3.013 18.279 0 5.492-.703 10.345-2.109 14.563-1.406 4.218-3.182 7.802-5.323 10.746-2.143 2.947-4.52 5.323-7.13 7.13-2.612 1.809-5.192 3.048-7.734 3.717L704 236.51h-25.31zm-1.606-100.433c0-4.284-.603-7.834-1.808-10.646-1.205-2.812-2.78-5.021-4.72-6.628a17.504 17.504 0 0 0-6.528-3.415 26.958 26.958 0 0 0-7.231-1.004h-13.66v43.788h13.66c5.89 0 10.746-1.839 14.562-5.523 3.817-3.682 5.725-9.206 5.725-16.572z" style="fill:#90897a"/><path d="M87.606 114.786h135.102v81.57H87.606z" style="fill:#fff"/><path d="m180.514 236.511-7.03-30.13h-37.361l-7.231 30.13h-24.104L140.14 94.298h30.733l34.75 142.213h-25.109zm-25.108-119.515h-.804L139.136 187.5h31.335l-15.065-70.504z" style="fill:#da9c0b"/><path d="M126.205 260.16h16.808c3.344 0 6.248.382 8.712 1.144 2.464.762 4.488 1.834 6.072 3.212 1.584 1.379 2.757 3.006 3.52 4.883.762 1.878 1.144 3.931 1.144 6.16 0 2.876-.866 5.487-2.596 7.833-1.731 2.346-4.18 4.106-7.348 5.28 4.224 1.056 7.48 2.846 9.768 5.367 2.288 2.524 3.432 5.516 3.432 8.977 0 5.339-1.775 9.504-5.324 12.496-3.55 2.992-9.196 4.488-16.94 4.488h-17.248v-59.84zm17.16 26.312c3.696 0 6.57-.866 8.624-2.597 2.053-1.728 3.08-4.355 3.08-7.875 0-3.227-1.027-5.765-3.08-7.612-2.054-1.849-5.192-2.773-9.416-2.773h-9.24v20.857h10.032zm-.88 28.071c2.464 0 4.664-.176 6.6-.527s3.564-.97 4.884-1.848c1.32-.88 2.332-2.068 3.036-3.564.704-1.497 1.056-3.358 1.056-5.588 0-3.754-1.276-6.541-3.828-8.36-2.552-1.818-6-2.728-10.34-2.728h-10.56v22.615h9.152zM177.597 277.936h6.864v4.927h.352c1.056-1.524 2.61-2.83 4.664-3.916 2.053-1.084 4.34-1.628 6.864-1.628.645 0 1.276.03 1.892.09a11.14 11.14 0 0 1 1.628.263v6.16h-.704c-.88-.177-1.907-.265-3.08-.265-2.23 0-4.43.412-6.6 1.232-2.171.822-3.843 2.084-5.016 3.785V320h-6.864v-42.064zM230.838 315.96h-.352c-.998 1.133-2.552 2.237-4.664 3.31-2.112 1.072-4.576 1.609-7.392 1.609-2.055 0-3.902-.309-5.544-.926-1.643-.619-3.036-1.458-4.18-2.517a10.375 10.375 0 0 1-2.596-3.753c-.587-1.443-.88-2.988-.88-4.638 0-2.236.425-4.164 1.276-5.783a11.133 11.133 0 0 1 3.564-4.02c1.525-1.058 3.344-1.84 5.456-2.34s4.458-.75 7.04-.75h8.096v-4.665c0-3.343-.807-5.675-2.42-6.995-1.615-1.32-4.298-1.98-8.052-1.98-2.347 0-4.576.206-6.688.615-2.112.412-3.667.88-4.664 1.408h-.616v-5.227c1.29-.636 3.093-1.17 5.412-1.602 2.317-.433 4.854-.65 7.612-.65 5.984 0 10.178 1.1 12.584 3.3 2.405 2.2 3.608 5.558 3.608 10.076V320h-6.6v-4.04zm-18.744-7.488c0 2.23.704 3.946 2.112 5.147 1.408 1.203 3.344 1.805 5.808 1.805 1.173 0 2.332-.147 3.476-.44 1.144-.294 2.2-.689 3.168-1.189.968-.497 1.804-1.025 2.508-1.584.704-.557 1.202-1.1 1.496-1.627v-9.769h-7.216c-3.696 0-6.512.617-8.448 1.85-1.936 1.23-2.904 3.167-2.904 5.807zM251.87 277.936h6.864v3.96h.264c1.525-1.29 3.446-2.42 5.764-3.388 2.317-.969 4.884-1.452 7.7-1.452 5.925 0 9.826 1.995 11.704 5.983a31.546 31.546 0 0 1 6.732-4.267c2.434-1.145 5.206-1.716 8.316-1.716 8.74 0 13.112 4.106 13.112 12.319V320h-6.864v-28.776c0-3.05-.675-5.237-2.024-6.556-1.35-1.32-3.52-1.98-6.512-1.98-2.171 0-4.283.455-6.336 1.363-2.054.91-3.814 1.951-5.28 3.125.058.294.102.646.132 1.055.029.412.044.792.044 1.144V320h-6.776v-28.776c0-3.05-.675-5.237-2.024-6.556-1.35-1.32-3.52-1.98-6.512-1.98-2.23 0-4.356.455-6.38 1.363-2.024.91-3.711 1.98-5.06 3.213V320h-6.864v-42.064zM372.781 316.04h-.352c-.998 1.114-2.435 2.2-4.312 3.255-1.878 1.057-4.254 1.584-7.128 1.584-2.64 0-5.06-.47-7.26-1.407a15.718 15.718 0 0 1-5.676-4.093c-1.584-1.788-2.802-3.944-3.652-6.467-.851-2.522-1.276-5.369-1.276-8.537 0-3.577.528-6.82 1.584-9.724 1.056-2.903 2.566-5.352 4.532-7.347 1.965-1.994 4.385-3.534 7.26-4.62 2.874-1.085 6.13-1.628 9.768-1.628 1.408 0 2.684.088 3.828.263 1.144.177 2.038.382 2.684.617V255.76h6.776V320h-6.776v-3.96zm-22.44-15.929c0 2.582.308 4.812.924 6.688.616 1.879 1.466 3.432 2.552 4.664 1.085 1.232 2.361 2.142 3.828 2.728 1.466.588 3.05.88 4.752.88 2.464 0 4.561-.44 6.292-1.319 1.73-.88 3.094-1.906 4.092-3.08v-27.457c-.587-.233-1.467-.44-2.64-.615a25.59 25.59 0 0 0-3.784-.264c-4.928 0-8.83 1.467-11.704 4.4-2.875 2.934-4.312 7.391-4.312 13.375zM410.532 277.056c2.874 0 5.338.497 7.393 1.49 2.053.994 3.753 2.352 5.103 4.077 1.349 1.725 2.346 3.725 2.993 6.004.644 2.28.967 4.705.967 7.275v1.974c0 .673-.058 1.33-.176 1.972h-28.688c.177 5.52 1.452 9.494 3.828 11.926 2.376 2.434 6.146 3.65 11.309 3.65 2.228 0 4.385-.235 6.468-.704 2.082-.47 3.68-1.027 4.795-1.673h.617v5.234c-.998.635-2.641 1.228-4.93 1.776-2.286.548-4.985.822-8.095.822-7.216 0-12.554-1.92-16.015-5.764-3.463-3.842-5.193-9.136-5.193-15.884 0-3.343.44-6.38 1.32-9.108.88-2.727 2.157-5.06 3.829-6.996 1.672-1.936 3.724-3.432 6.16-4.487 2.433-1.056 5.205-1.584 8.315-1.584zm-.263 5.104c-3.521 0-6.308 1.027-8.36 3.08-2.055 2.054-3.287 5.367-3.697 9.944h21.912c-.118-3.93-.954-7.084-2.508-9.46-1.554-2.376-4.004-3.564-7.347-3.564zM459.283 260.16h7.128v26.047h31.768V260.16h7.217V320h-7.217v-28.072H466.41V320h-7.128v-59.84zM544.379 315.96h-.353c-.998 1.133-2.551 2.237-4.664 3.31s-4.576 1.609-7.391 1.609c-2.055 0-3.903-.309-5.544-.926-1.644-.619-3.036-1.458-4.18-2.517a10.38 10.38 0 0 1-2.597-3.753c-.587-1.443-.88-2.988-.88-4.638 0-2.236.425-4.164 1.277-5.783a11.132 11.132 0 0 1 3.563-4.02c1.526-1.058 3.344-1.84 5.456-2.34s4.458-.75 7.04-.75h8.096v-4.665c0-3.343-.806-5.675-2.42-6.995-1.614-1.32-4.298-1.98-8.052-1.98-2.346 0-4.576.206-6.688.615-2.111.412-3.667.88-4.663 1.408h-.616v-5.227c1.289-.636 3.093-1.17 5.412-1.602 2.316-.433 4.853-.65 7.611-.65 5.985 0 10.178 1.1 12.584 3.3 2.405 2.2 3.609 5.558 3.609 10.076V320h-6.6v-4.04zm-18.744-7.488c0 2.23.704 3.946 2.111 5.147 1.408 1.203 3.345 1.805 5.809 1.805a13.91 13.91 0 0 0 3.475-.44c1.145-.294 2.2-.689 3.168-1.189.968-.497 1.805-1.025 2.508-1.584.704-.557 1.202-1.1 1.496-1.627v-9.769h-7.216c-3.696 0-6.511.617-8.448 1.85-1.935 1.23-2.903 3.167-2.903 5.807zM588.379 315.96h-.353c-.998 1.133-2.551 2.237-4.664 3.31s-4.576 1.609-7.391 1.609c-2.055 0-3.903-.309-5.544-.926-1.644-.619-3.036-1.458-4.18-2.517a10.38 10.38 0 0 1-2.597-3.753c-.587-1.443-.88-2.988-.88-4.638 0-2.236.425-4.164 1.277-5.783a11.132 11.132 0 0 1 3.563-4.02c1.526-1.058 3.344-1.84 5.456-2.34s4.458-.75 7.04-.75h8.096v-4.665c0-3.343-.806-5.675-2.42-6.995-1.614-1.32-4.298-1.98-8.052-1.98-2.346 0-4.576.206-6.688.615-2.111.412-3.667.88-4.663 1.408h-.616v-5.227c1.289-.636 3.093-1.17 5.412-1.602 2.316-.433 4.853-.65 7.611-.65 5.985 0 10.178 1.1 12.584 3.3 2.405 2.2 3.609 5.558 3.609 10.076V320h-6.6v-4.04zm-18.744-7.488c0 2.23.704 3.946 2.111 5.147 1.408 1.203 3.345 1.805 5.809 1.805a13.91 13.91 0 0 0 3.475-.44c1.145-.294 2.2-.689 3.168-1.189.968-.497 1.805-1.025 2.508-1.584.704-.557 1.202-1.1 1.496-1.627v-9.769h-7.216c-3.696 0-6.511.617-8.448 1.85-1.935 1.23-2.903 3.167-2.903 5.807zM609.41 277.936h6.864v3.96h.264c1.525-1.29 3.461-2.42 5.809-3.388 2.345-.969 4.957-1.452 7.832-1.452 4.34 0 7.625 1.042 9.855 3.124 2.23 2.083 3.345 5.148 3.345 9.195V320h-6.864v-28.776c0-3.109-.69-5.31-2.069-6.6s-3.563-1.936-6.555-1.936c-2.23 0-4.387.455-6.468 1.363-2.084.91-3.8 1.98-5.149 3.213V320h-6.864v-42.064z" style="fill:#9b814e"/></svg>
