<?xml version="1.0" encoding="utf-8"?>
<svg xmlns="http://www.w3.org/2000/svg" xml:space="preserve" style="enable-background:new 0 0 768 384" viewBox="0 0 768 384"><path d="M108.4731522 254.719696h22.6562424c3.902832 0 7.2792969.4169922 10.1279297 1.2480469 2.8466797.8330078 5.184082 2.0009766 7.0078125 3.5039062 1.8242188 1.5048828 3.1679688 3.296875 4.0322266 5.3759766.8637695 2.0810547 1.2958984 4.3681641 1.2958984 6.8642578 0 3.0087891-.9599609 5.7929688-2.8798828 8.3525391-1.9204102 2.5595703-4.6728516 4.4804688-8.2563477 5.7597656 4.543457 1.1513672 8.0957031 3.0722656 10.65625 5.7597656 2.559082 2.6884766 3.8398438 5.8564453 3.8398438 9.5039062 0 6.0166016-2.0488281 10.6728516-6.144043 13.9677734-4.0961914 3.296875-10.6245117 4.9443359-19.5839844 4.9443359h-22.7519455V254.719696zm21.7919845 27.6484375c7.1669922 0 10.7519531-3.1035156 10.7519531-9.3125 0-2.9423828-.9121094-5.2314453-2.7358398-6.8632812-1.8242188-1.6328125-4.65625-2.4482422-8.4960938-2.4482422h-9.0239182v18.6240234h9.5038987zm-.4799805 28.6074219c2.3041992 0 4.3515625-.1435547 6.144043-.4316406 1.7910156-.2880859 3.2788086-.8164062 4.4638672-1.5839844 1.1835938-.7675781 2.0791016-1.7910156 2.6879883-3.0722656.6074219-1.2792969.9121094-2.9111328.9121094-4.8955078 0-3.4560547-1.1040039-5.9521484-3.3120117-7.4882812s-5.4238281-2.3037109-9.6479492-2.3037109h-10.271965v19.7753906h9.023918zM167.4165039 273.7275085h11.8076172v5.5683594h.2880859c1.2148438-1.5986328 2.9428711-3.0078125 5.184082-4.2236328 2.2392578-1.2148438 4.7670898-1.8242188 7.5839844-1.8242188 1.2148438 0 2.3671875.0957031 3.4560547.2880859v9.8876953h-.8642578c-.5126953-.1269531-1.0556641-.2236328-1.6318359-.2880859-.5761719-.0625-1.1518555-.0957031-1.7280273-.0957031-2.4331055 0-4.7851562.4316406-7.0561523 1.2958984-2.2724609.8642578-4.0166016 2.1289062-5.2319336 3.7919922v31.8720703H167.416504v-46.2724609zM229.1445312 315.679657h-.3842773c-1.1518555 1.28125-2.8320312 2.4814453-5.0400391 3.6005859s-4.9438477 1.6796875-8.2080078 1.6796875c-2.3037109 0-4.3842773-.3525391-6.2397461-1.0556641-1.8569336-.7041016-3.4414062-1.6640625-4.7519531-2.8798828-1.3125-1.2158203-2.3041992-2.640625-2.9760742-4.2724609-.6723633-1.6318359-1.0083008-3.4082031-1.0083008-5.328125 0-4.9921875 1.8076172-8.6552734 5.4243164-10.9921875 3.6147461-2.3349609 8.7192383-3.5039062 15.3120117-3.5039062h7.2958984v-2.8798828c0-3.0722656-.7680664-5.2158203-2.3041992-6.4316406-1.5356445-1.2148438-4.2885742-1.8242188-8.2558594-1.8242188-2.6879883 0-5.2485352.2089844-7.6801758.6240234-2.4326172.4169922-4.2236328.9121094-5.3759766 1.4882812h-.8637695v-8.5439453c1.4711914-.7041016 3.7109375-1.3115234 6.7197266-1.8242188 3.0078125-.5117188 6.2714844-.7685547 9.7919922-.7685547 3.7758789 0 6.9272461.3212891 9.4560547.9599609 2.527832.640625 4.5600586 1.6005859 6.0961914 2.8808594s2.6235352 2.9130859 3.2641602 4.8955078c.6386719 1.984375.9599609 4.3203125.9599609 7.0078125v31.4882812h-11.2319336v-4.3203123zm-16.8964843-8.9775391c0 1.9052734.6391602 3.3974609 1.9204102 4.4775391 1.2792969 1.0800781 2.9428711 1.6201172 4.9916992 1.6201172 1.0874023 0 2.1601562-.1425781 3.2163086-.4287109 1.0556641-.2851562 1.9995117-.6513672 2.8320312-1.0947266.8305664-.4443359 1.5507812-.9208984 2.159668-1.4296875.6074219-.5068359 1.0083008-.984375 1.2001953-1.4296875v-8.3847656h-5.855957c-3.4560547 0-6.0644531.5244141-7.8242188 1.5712891-1.7607422 1.048828-2.6401367 2.7480468-2.6401367 5.0986327zM253.6240234 273.7275085h11.6157227v4.5126953h.3842773c1.5986328-1.4716797 3.6313477-2.7509766 6.0957031-3.8398438 2.4628906-1.0878906 5.328125-1.6328125 8.5922852-1.6328125 6.6552734 0 11.1357422 2.2724609 13.4399414 6.8164062 2.0473633-1.8554688 4.3676758-3.4560547 6.9599609-4.7998047 2.5917969-1.34375 5.7119141-2.0166016 9.3598633-2.0166016 9.9194336 0 14.8798828 4.6416016 14.8798828 13.9208984v33.3115234H313.239746V290.047821c0-2.8798828-.640625-4.9111328-1.9199219-6.0957031-1.28125-1.1835938-3.2641602-1.7763672-5.9521484-1.7763672-1.984375 0-3.8564453.3837891-5.6157227 1.1523438-1.7612305.7675781-3.2807617 1.6650391-4.5600586 2.6875v33.984375h-11.8081055V290.047821c0-2.8798828-.6240234-4.9111328-1.8720703-6.0957031-1.2480469-1.1835938-3.2158203-1.7763672-5.9038086-1.7763672-2.0493164 0-3.9692383.4003906-5.7602539 1.2001953-1.7924805.8007812-3.2636719 1.7441406-4.4160156 2.8320312v33.7919922h-11.8076172v-46.2724609zM389.0791016 315.8720398h-.3847656c-1.0888672 1.2167969-2.65625 2.3681641-4.7036133 3.4560547-2.0493164 1.0869141-4.6411133 1.6318359-7.7763672 1.6318359-2.8798828 0-5.5048828-.5283203-7.8720703-1.5839844-2.3681641-1.0556641-4.4160156-2.5751953-6.1435547-4.5595703-1.7280273-1.9833984-3.0571289-4.3681641-3.984375-7.1523438-.9282227-2.7841797-1.3920898-5.9042969-1.3920898-9.3603516 0-3.9667969.5913086-7.5361328 1.7763672-10.7041016 1.1835938-3.1679688 2.8798828-5.8388672 5.0878906-8.015625 2.2080078-2.1748047 4.8793945-3.8398438 8.0161133-4.9921875 3.1347656-1.1513672 6.6552734-1.7275391 10.5600586-1.7275391 1.34375 0 2.6069336.0957031 3.7919922.2880859 1.1826172.1914062 2.1269531.3837891 2.8320312.5751953v-23.8076172h11.8076172v70.0800781h-11.6152344v-4.1279294zm-19.8725586-18.1445313c0 4.8007812 1.0078125 8.3046875 3.0239258 10.5126953s4.4956055 3.3115234 7.4399414 3.3115234c2.175293 0 4.0322266-.3671875 5.5678711-1.1035156 1.5361328-.7353516 2.7509766-1.6474609 3.6484375-2.7363281v-25.5361328c-.5126953-.1914062-1.3125-.3837891-2.4003906-.5761719-1.0888672-.1914062-2.2080078-.2880859-3.3598633-.2880859-4.2241211 0-7.6005859 1.3447266-10.1279297 4.0322266-2.5288086 2.6884765-3.7919922 6.8164062-3.7919922 12.383789zM434.2929688 272.7675476c3.3916016 0 6.3359375.5615234 8.8320312 1.6806641 2.4960938 1.1201172 4.5439453 2.6728516 6.1445312 4.6552734 1.5986328 1.9853516 2.7832031 4.2890625 3.5517578 6.9121094.7675781 2.625 1.1513672 5.4404297 1.1513672 8.4482422 0 1.9199219-.0957031 3.6806641-.2871094 5.2802734h-30.3369141c.3847656 4.4160156 1.7285156 7.5527344 4.0322266 9.4082031 2.3046875 1.8564453 5.9189453 2.7832031 10.8486328 2.7832031 2.4306641 0 4.7832031-.2226562 7.0556641-.671875 2.2705078-.4462891 4.015625-.9912109 5.2314453-1.6318359h.8642578v8.4482422c-1.2158203.7675781-3.2158203 1.4394531-6 2.015625s-5.9365234.8642578-9.4560547.8642578c-4.3525391 0-8.0966797-.5449219-11.2314453-1.6318359-3.1367188-1.0878906-5.7285156-2.6552734-7.7763672-4.7041016-2.0488281-2.0478516-3.5517578-4.5273438-4.5117188-7.4404297-.9599609-2.9111328-1.4404297-6.2226562-1.4404297-9.9355469 0-3.7109375.5117188-7.0712891 1.5361328-10.0800781 1.0234375-3.0078125 2.5273438-5.5830078 4.5117188-7.7275391 1.9833984-2.1435547 4.4160156-3.7919922 7.296875-4.9443359 2.8798829-1.1523437 6.2060548-1.7285156 9.9833986-1.7285156zm-.3837891 8.3525391c-3.0722656 0-5.4882812.8320312-7.2480469 2.4960938-1.7607422 1.6650391-2.8652344 4.671875-3.3125 9.0234375h19.0087891c-.1289062-3.5830078-.8496094-6.3984375-2.1601562-8.4472656-1.3125001-2.0478517-3.4082032-3.0722657-6.288086-3.0722657zM487.3798828 254.719696h12.3837891v27.0722656h29.1835938V254.719696h12.2880859v65.2802734h-12.2880859v-28.1279297h-29.1835938v28.1279297h-12.3837891V254.719696zM581.7460938 315.679657h-.3837891c-1.1523438 1.28125-2.8320312 2.4814453-5.0400391 3.6005859s-4.9443359 1.6796875-8.2080078 1.6796875c-2.3046875 0-4.3847656-.3525391-6.2402344-1.0556641-1.8574219-.7041016-3.4414062-1.6640625-4.7519531-2.8798828-1.3125-1.2158203-2.3046875-2.640625-2.9765625-4.2724609s-1.0078125-3.4082031-1.0078125-5.328125c0-4.9921875 1.8076172-8.6552734 5.4238281-10.9921875 3.6152344-2.3349609 8.7197266-3.5039062 15.3125-3.5039062h7.2958984v-2.8798828c0-3.0722656-.7685547-5.2158203-2.3037109-6.4316406-1.5361328-1.2148438-4.2890625-1.8242188-8.2568359-1.8242188-2.6875 0-5.2480469.2089844-7.6796875.6240234-2.4326172.4169922-4.2236328.9121094-5.3759766 1.4882812h-.8642578v-8.5439453c1.4716797-.7041016 3.7109375-1.3115234 6.7207031-1.8242188 3.0068359-.5117188 6.2714844-.7685547 9.7919922-.7685547 3.7753906 0 6.9267578.3212891 9.4560547.9599609 2.5273438.640625 4.5595703 1.6005859 6.0957031 2.8808594s2.6230469 2.9130859 3.2636719 4.8955078c.6396484 1.984375.9599609 4.3203125.9599609 7.0078125v31.4882812h-11.2314453v-4.3203123zm-16.8964844-8.9775391c0 1.9052734.6396484 3.3974609 1.9199219 4.4775391s2.9433594 1.6201172 4.9921875 1.6201172c1.0878906 0 2.1601562-.1425781 3.2158203-.4287109 1.0566406-.2851562 2-.6513672 2.8320312-1.0947266.8310547-.4443359 1.5517578-.9208984 2.1601562-1.4296875.6074219-.5068359 1.0078125-.984375 1.2001953-1.4296875v-8.3847656h-5.8564453c-3.4560547 0-6.0644531.5244141-7.8232422 1.5712891-1.7617187 1.048828-2.6406249 2.7480468-2.6406249 5.0986327zM631.953125 315.679657h-.3837891c-1.1523438 1.28125-2.8320312 2.4814453-5.0400391 3.6005859s-4.9443359 1.6796875-8.2080078 1.6796875c-2.3046875 0-4.3847656-.3525391-6.2402344-1.0556641-1.8574219-.7041016-3.4414062-1.6640625-4.7519531-2.8798828-1.3125-1.2158203-2.3046875-2.640625-2.9765625-4.2724609s-1.0078125-3.4082031-1.0078125-5.328125c0-4.9921875 1.8076172-8.6552734 5.4238281-10.9921875 3.6152344-2.3349609 8.7197266-3.5039062 15.3125-3.5039062h7.2958984v-2.8798828c0-3.0722656-.7685547-5.2158203-2.3037109-6.4316406-1.5361328-1.2148438-4.2890625-1.8242188-8.2568359-1.8242188-2.6875 0-5.2480469.2089844-7.6796875.6240234-2.4326172.4169922-4.2236328.9121094-5.3759766 1.4882812h-.8642578v-8.5439453c1.4716797-.7041016 3.7109375-1.3115234 6.7207031-1.8242188 3.0068359-.5117188 6.2714844-.7685547 9.7919922-.7685547 3.7753906 0 6.9267578.3212891 9.4560547.9599609 2.5273438.640625 4.5595703 1.6005859 6.0957031 2.8808594s2.6230469 2.9130859 3.2636719 4.8955078c.6396484 1.984375.9599609 4.3203125.9599609 7.0078125v31.4882812H631.953125v-4.3203123zm-16.8964844-8.9775391c0 1.9052734.6396484 3.3974609 1.9199219 4.4775391s2.9433594 1.6201172 4.9921875 1.6201172c1.0878906 0 2.1601562-.1425781 3.2158203-.4287109 1.0566406-.2851562 2-.6513672 2.8320312-1.0947266.8310547-.4443359 1.5517578-.9208984 2.1601562-1.4296875.6074219-.5068359 1.0078125-.984375 1.2001953-1.4296875v-8.3847656h-5.8564453c-3.4560547 0-6.0644531.5244141-7.8232422 1.5712891-1.7617186 1.048828-2.6406249 2.7480468-2.6406249 5.0986327zM656.4316406 273.7275085h11.6162109v4.5126953h.3837891c1.5996094-1.4716797 3.6318359-2.7509766 6.0966797-3.8398438 2.4628906-1.0878906 5.3271484-1.6328125 8.5917969-1.6328125 4.8632812 0 8.5585938 1.1689453 11.0878906 3.5048828C696.7353516 278.6093445 698 282.0800476 698 286.688446v33.3115234h-11.8076172V290.047821c0-2.8798828-.6240234-4.9111328-1.8720703-6.0957031-1.2480469-1.1835938-3.2167969-1.7763672-5.9042969-1.7763672-2.0488281 0-3.96875.4003906-5.7597656 1.2001953-1.7929688.8007812-3.2646484 1.7441406-4.4160156 2.8320312v33.7919922h-11.8085938v-46.2724609z" style="fill:#171511"/><path d="M299.5234375 117.9995117h67.0400391v16h-46.3999023v29.2797852h40.3198242v15.8398438h-40.3198242v31.6801758h48.4799805v15.9995117h-69.1201172V117.9995117zM391.8417969 117.9995117h20.640625v92.7998047h42.4003906v15.9995117h-63.0410156V117.9995117zM475.5214844 117.9995117h20.6396484v108.7993164h-20.6396484V117.9995117zM526.7197266 117.9995117h67.0400391v16H547.359375v29.2797852h40.3203125v15.8398438H547.359375v31.6801758h48.4794922v15.9995117h-69.1191406V117.9995117zM619.0390625 117.9995117h40.3193359c12.3730469 0 21.6523438 2.8271484 27.8398438 8.4799805 6.1855469 5.6547852 9.2802734 13.4399414 9.2802734 23.3598633 0 7.5751953-2.0800781 13.8149414-6.2402344 18.7197266-4.1591797 4.9077148-9.5996094 8.5351562-16.3193359 10.8803711l31.1992188 47.359375h-23.359375l-27.2001953-43.0395508H639.678711v43.0395508h-20.6396484V117.9995117zm33.4394531 50.5595703c8 0 13.7324219-1.5722656 17.2001953-4.7197266 3.4648438-3.1450195 5.2001953-7.6000977 5.2001953-13.3598633 0-5.9726562-1.7353516-10.2651367-5.2001953-12.8803711-3.4677734-2.6123047-8.2402344-3.9199219-14.3203125-3.9199219h-15.6796875v34.8798828h12.7998047zM64 59h148l-18.7163086 58.9995117h87.6801758v15.8398438h-33.6000977v92.9594727L64 226.7987976V59z" style="fill:#2c2a25"/><path d="M84.4800034 134h142.4037933v63H84.4800034z" style="fill:#fff"/><path d="M144.1235352 117.9995117h24.6401367l38.8798828 108.7993164h-21.7597656l-9.4399414-27.5195312H134.84375l-9.2802734 27.5195312h-20.4799805l39.0400391-108.7993164zm27.040039 65.5996094-9.2797852-27.3598633c-.215332-.5322266-.6152344-1.7851562-1.2001953-3.7597656-.5874023-1.9726562-1.199707-4.0527344-1.8398438-6.2402344-.6401367-2.1850586-1.2275391-4.2124023-1.7602539-6.0800781-.534668-1.8647461-.8549805-3.012207-.9599609-3.4399414h-.6396484c-.1079102.4277344-.4277344 1.5751953-.9599609 3.4399414-.5351562 1.8676758-1.1479492 3.8950195-1.840332 6.0800781-.6948242 2.1875-1.3349609 4.2675781-1.9199219 6.2402344-.5874023 1.9746094-.9873047 3.2275391-1.2001953 3.7597656l-9.2797852 27.3598633h30.8798828z" style="fill:#da9c0b"/></svg>

