<?xml version="1.0" encoding="utf-8"?>
<svg xmlns="http://www.w3.org/2000/svg" xml:space="preserve" style="enable-background:new 0 0 768 384" viewBox="0 0 768 384"><path d="M65.1381836 315.6172485h5.6777344c1.3945312 0 2.0917969-.7636719 2.0917969-2.2910156v-54.3867188c0-1.5263672-.6972656-2.2910156-2.0917969-2.2910156h-5.6777344v-4.3828278h26.296875c3.7851562 0 7.0473633.3730469 9.7866211 1.1210938 2.7392578.7460938 5.0053711 1.8173828 6.7983398 3.2119293 1.7929688 1.3945312 3.112793 3.0712891 3.9594727 5.0302734.8466797 1.9599609 1.2700195 4.1513672 1.2700195 6.5742188 0 2.2910156-.4404297 4.3417969-1.3198242 6.1503906-.8803711 1.8105469-1.9921875 3.3623047-3.3369141 4.6572266s-2.8227539 2.3496094-4.4326172 3.1630859c-1.6108398.8134766-3.1298828 1.3691406-4.5571289 1.6679688v.2988281c1.925293.2988281 3.8847656.8642578 5.8769531 1.6933594 1.9921875.8300781 3.8100586 1.9257812 5.4536133 3.2871094 1.6435547 1.3623047 2.9882812 2.9970703 4.0341797 4.90625s1.5688477 4.0917969 1.5688477 6.5488281c0 2.8564453-.4482422 5.4785156-1.3447266 7.8691406s-2.324707 4.4414062-4.2832031 6.1503906c-1.9594727 1.7109375-4.4824219 3.0390625-7.5703125 3.984375-3.0878906.9472656-6.8232422 1.4199219-11.2060547 1.4199219H65.1381836v-4.3828125zm16.1367187-33.46875h9.3632812c4.5483398 0 7.9936523-1.0625 10.3344727-3.1875 2.3408203-2.1240234 3.5112305-5.4111328 3.5112305-9.8613281 0-1.8251953-.2827148-3.4775391-.8466797-4.9550781-.5649414-1.4775391-1.4194336-2.7402344-2.5649414-3.7851562-1.1455078-1.046875-2.5898438-1.859375-4.3330078-2.4414062-1.7431641-.5800781-3.7773438-.8710938-6.1010742-.8710938h-9.3632812v25.1015624zm9.6621094 33.0703125c5.4116211 0 9.5375977-1.1367188 12.3764648-3.4121094 2.8388672-2.2734375 4.2583008-5.9511719 4.2583008-11.03125 0-4.4150391-1.453125-7.8603516-4.3579102-10.3339844-2.9057617-2.4736328-7.0644531-3.7109375-12.4760742-3.7109375h-9.4628906v28.4882812h9.6621094zM127.4609375 315.6172485h4.6816406c1.3945312 0 2.0917969-.7636719 2.0917969-2.2910156v-34.265625c0-1.5263672-.6972656-2.2910156-2.0917969-2.2910156h-4.6816406v-4.3828125h12.4511719c.7631836 0 1.3027344.1738281 1.6186523.5234375.3149414.3476562.4731445.9042969.4731445 1.6679688v4.6816406h.3984375c.4980469-.9960938 1.1367188-1.9667969 1.9174805-2.9140625.7797852-.9453125 1.6762695-1.7841797 2.6894531-2.5146484 1.012207-.7294922 2.1328125-1.3193359 3.3618164-1.7685547 1.2280273-.4472656 2.5561523-.671875 3.984375-.671875.6972656 0 1.3945312.0253906 2.0917969.0742188.6972656.0507812 1.3276367.1582031 1.8925781.3242188v6.9726562h-.6972656c-.5649414-.0996094-1.1376953-.1904297-1.7182617-.2734375-.581543-.0830078-1.1704102-.125-1.7680664-.125-2.5898438 0-4.9228516.5068359-6.9975586 1.5195312-2.0756836 1.0126953-3.7939453 2.4980469-5.1547852 4.4570312v28.9863281c0 .7646484.1572266 1.3369141.4731445 1.71875.3149414.3818359.8544922.5722656 1.6186523.5722656h5.4785156v4.3828125h-22.1132812v-4.3828125zM169.4633789 274.2793579c.6972656-.4306641 1.5766602-.8291016 2.6396484-1.1953125 1.0620117-.3652344 2.2490234-.671875 3.5610352-.921875 1.3110352-.2480469 2.7304688-.4394531 4.2583008-.5722656 1.5268555-.1318359 3.1206055-.1992188 4.78125-.1992188 3.0209961 0 5.578125.2734375 7.6699219.8222656 2.0917969.546875 3.7763672 1.3945312 5.0551758 2.5390625 1.277832 1.1464844 2.1992188 2.5898438 2.7641602 4.3339844.5639648 1.7421875.8466797 3.7929688.8466797 6.1503906v27.2929688c0 1.2949219.2402344 2.1337891.722168 2.515625.480957.3818359 1.3027344.5722656 2.465332.5722656h3.5859375v4.3828125c-.4321289.0664062-.9711914.140625-1.6186523.2246094-.6474609.0820312-1.3447266.1650391-2.0917969.2480469s-1.5112305.1572266-2.2910156.2246094c-.7807617.0664062-1.5361328.0996094-2.2661133.0996094-1.1293945 0-2.059082-.125-2.7890625-.3730469-.730957-.25-1.3198242-.6054688-1.7680664-1.0712891-.4482422-.4648438-.7641602-1.0458984-.9462891-1.7431641-.1831055-.6972656-.2739258-1.4941406-.2739258-2.390625v-.2988281h-.3984375c-.6313477.6972656-1.3696289 1.4033203-2.2163086 2.1171875s-1.8178711 1.3691406-2.9135742 1.9667969-2.3330078 1.078125-3.7104492 1.4443359c-1.378418.3652344-2.9135742.5478516-4.6069336.5478516-2.2583008 0-4.2504883-.3320312-5.9765625-.9960938-1.7270508-.6640625-3.1713867-1.5761719-4.3330078-2.7392578-1.1625977-1.1621094-2.0419922-2.53125-2.6396484-4.1083984s-.8964844-3.2792969-.8964844-5.1054688c0-9.2304688 6.4746094-13.8457031 19.4238281-13.8457031h7.7695312v-7.171875c0-1.8251953-.1914062-3.3691406-.5727539-4.6318359-.3823242-1.2617188-1.0209961-2.2910156-1.9174805-3.0878906s-2.059082-1.3701172-3.4863281-1.7177734c-1.4282227-.3496094-3.1875-.5234375-5.2792969-.5234375-2.5898438 0-4.9145508.2167969-6.9726562.6474609-2.059082.4316406-3.6855469.9794922-4.8808594 1.6435547h-.6972656v-5.0800782zm23.8066406 24.3046875h-6.7734375c-2.2583008 0-4.1757812.1816406-5.7524414.5449219-1.5776367.3632812-2.855957.9082031-3.8349609 1.6337891-.9799805.7265625-1.6855469 1.6259766-2.1166992 2.6982422-.4321289 1.0722656-.6474609 2.3183594-.6474609 3.7373047 0 2.6416016.7470703 4.6552734 2.2412109 6.0410156 1.4941406 1.3867188 3.668457 2.0791016 6.5244141 2.0791016 1.1953125 0 2.3408203-.1728516 3.4365234-.5195312s2.0917969-.7841797 2.9882812-1.3125c.8964844-.5273438 1.6845703-1.1054688 2.3657227-1.7324219.6801758-.6279297 1.203125-1.2216797 1.5688477-1.7822266v-11.3876954zM274.1201172 315.6172485h4.6816406c.7631836 0 1.3027344-.1904297 1.6186523-.5722656.3149414-.3818359.4731445-.9541016.4731445-1.71875V287.328186c0-3.453125-.7143555-5.9589844-2.1416016-7.5205078-1.4282227-1.5605469-3.769043-2.3408203-7.0224609-2.3408203-1.9921875 0-4.0092773.4482422-6.0512695 1.3447266s-3.8100586 2.0751953-5.3041992 3.5361328c.065918.4980469.1157227.9960938.1494141 1.4941406.0327148.4980469.0498047.9960938.0498047 1.4941406v27.9902344c0 .7646484.1572266 1.3369141.4731445 1.71875.3149414.3818359.8544922.5722656 1.6186523.5722656h4.6816406v4.3828125h-21.3164062v-4.3828125h4.6816406c.7631836 0 1.3027344-.1904297 1.6186523-.5722656.3149414-.3818359.4731445-.9541016.4731445-1.71875V287.328186c0-3.453125-.7143555-5.9589844-2.1416016-7.5205078-1.4282227-1.5605469-3.769043-2.3408203-7.0224609-2.3408203-1.1625977 0-2.3081055.1494141-3.4365234.4482422-1.1293945.2988281-2.2001953.6972656-3.2124023 1.1953125-1.0131836.4980469-1.9511719 1.0546875-2.8139648 1.6689453-.8637695.6142578-1.59375 1.2373047-2.1914062 1.8671875v30.6796875c0 .7646484.1572266 1.3369141.4731445 1.71875.3149414.3818359.8544922.5722656 1.6186523.5722656h4.6816406v4.3828125h-21.3164062v-4.3828125h4.6816406c1.3945312 0 2.0917969-.7636719 2.0917969-2.2910156v-34.265625c0-1.5263672-.6972656-2.2910156-2.0917969-2.2910156h-4.6816406v-4.3828125h12.4511719c.7631836 0 1.3027344.1738281 1.6186523.5234375.3149414.3476562.4731445.9042969.4731445 1.6679688v3.2871094h.2988281c.7299805-.796875 1.6098633-1.5849609 2.6396484-2.3652344 1.0288086-.7802734 2.1743164-1.4697266 3.4365234-2.0673828 1.2612305-.5976562 2.6225586-1.0869141 4.0839844-1.4697266 1.4604492-.3808594 3.0209961-.5722656 4.6816406-.5722656 3.2202148 0 5.8271484.5976562 7.8193359 1.7929688s3.4365234 2.921875 4.3330078 5.1796875c.9624023-.9287109 2.0498047-1.8183594 3.262207-2.6640625 1.2114258-.8476562 2.4980469-1.59375 3.8598633-2.2421875 1.3608398-.6464844 2.7802734-1.1523438 4.2583008-1.5185547 1.4770508-.3652344 2.9960938-.5478516 4.5571289-.5478516 4.4487305 0 7.8022461 1.1630859 10.0605469 3.4863281 2.2573242 2.3242188 3.3867188 5.8105469 3.3867188 10.4589844v27.9902344c0 1.5273438.6972656 2.2910156 2.0917969 2.2910156h4.6816406v4.3828125h-21.3164062v-4.3828126zM364.4003906 315.0195923h-.3984375c-.5649414.7304688-1.2539062 1.453125-2.0668945 2.1660156-.8139648.7148438-1.7680664 1.3535156-2.8637695 1.9179688-1.0957031.5654297-2.3408203 1.0214844-3.7353516 1.3691406-1.3945312.3496094-2.9555664.5234375-4.6816406.5234375-3.1547852 0-5.9516602-.5478516-8.3920898-1.6435547s-4.4995117-2.6650391-6.1757812-4.7060547c-1.6772461-2.0429688-2.9555664-4.515625-3.8349609-7.421875-.8803711-2.9042969-1.3198242-6.1503906-1.3198242-9.7363281 0-3.8515625.5976562-7.3789062 1.7929688-10.5839844 1.1953125-3.203125 2.9047852-5.9511719 5.1298828-8.2421875 2.2241211-2.2910156 4.921875-4.0751953 8.0932617-5.3535156 3.1704102-1.2783203 6.7314453-1.9179688 10.6831055-1.9179688 1.8588867 0 3.4443359.0996094 4.7563477.2988281 1.3110352.1992188 2.315918.4316406 3.0131836.6972656v-19.9218903c0-.7636719-.1582031-1.3359375-.4731445-1.71875-.315918-.3808594-.8554688-.5722656-1.6186523-.5722656h-4.6816406v-4.3828125h12.4511719c.7631836 0 1.3027344.1914062 1.6186523.5722656.3149414.3828125.4731445.9550781.4731445 1.71875v65.2441559c0 .7646484.1572266 1.3369141.4731445 1.71875.3149414.3818359.8544922.5722656 1.6186523.5722656h4.6816406v4.3828125h-12.4511719c-.7641602 0-1.3037109-.1904297-1.6186523-.5722656-.315918-.3818359-.4731445-.9541016-.4731445-1.71875v-2.689453zm0-37.7460938c-.6645508-.3007812-1.4863281-.5595703-2.465332-.7763672-.9799805-.2158203-2.2163086-.3251953-3.7104492-.3251953-3.1875 0-5.96875.4501953-8.3422852 1.3515625-2.3745117.9013672-4.3417969 2.2285156-5.9018555 3.9794922-1.5610352 1.7529297-2.7314453 3.9052734-3.5112305 6.4580078-.7807617 2.5527344-1.1704102 5.4648438-1.1704102 8.7353516 0 3.1699219.3237305 5.9238281.9711914 8.2597656s1.5849609 4.2724609 2.8139648 5.8066406c1.2280273 1.5351562 2.7143555 2.6787109 4.4575195 3.4296875s3.7104492 1.1259766 5.9018555 1.1259766c1.3608398 0 2.6225586-.1669922 3.7851562-.5 1.1616211-.3339844 2.1992188-.7597656 3.112793-1.2773438.9125977-.5166016 1.7094727-1.0751953 2.390625-1.6767578.6801758-.6005859 1.2363281-1.1835938 1.668457-1.7519531v-32.8388672zM397.1396484 295.5010376c0 3.5029297.3730469 6.5058594 1.1210938 9.0078125.7460938 2.5019531 1.8583984 4.5537109 3.3359375 6.1552734s3.3125 2.7783203 5.5039062 3.5283203c2.1914062.7509766 4.7480469 1.1259766 7.6699219 1.1259766 1.1279297 0 2.2578125-.0576172 3.3867188-.1738281 1.1279297-.1162109 2.1992188-.2744141 3.2128906-.4736328 1.0117188-.1992188 1.9492188-.4394531 2.8134766-.7216797.8632812-.2822266 1.6103516-.5898438 2.2412109-.921875h.6972656v5.0322266c-.5976562.359375-1.3867188.7099609-2.3652344 1.0527344-.9804688.3417969-2.109375.6523438-3.3867188.9296875-1.2792969.2763672-2.6982422.5048828-4.2587891.6845703-1.5615234.1796875-3.2050781.2695312-4.9306641.2695312-3.8847656 0-7.2890625-.5654297-10.2099609-1.6933594-2.921875-1.1279297-5.3544922-2.7470703-7.2958984-4.8554688-1.9433594-2.1083984-3.3955078-4.6738281-4.3583984-7.6953125-.9638672-3.0205078-1.4443359-6.4414062-1.4443359-10.2597656 0-3.7177734.5234375-7.1132812 1.5683594-10.1855469 1.046875-3.0703125 2.5234375-5.7099609 4.4335938-7.9179688 1.9082031-2.2080078 4.2158203-3.9267578 6.921875-5.1552734 2.7060547-1.2275391 5.7353516-1.8427734 9.0898438-1.8427734 3.0205078 0 5.6689453.4658203 7.9433594 1.3945312 2.2744141.9296875 4.1669922 2.2001953 5.6777344 3.8105469s2.640625 3.4941406 3.3867188 5.6523438c.7480469 2.1591797 1.1210938 4.4501953 1.1210938 6.8730469 0 .8964844-.0087891 1.8349609-.0253906 2.8144531s-.0742188 1.8671875-.1738281 2.6640625h-31.6757812v.9013672zm21.4160157-5.2841797c.8632812 0 1.4765625-.2070312 1.8427734-.6230469.3652344-.4140625.5478516-1.1025391.5478516-2.0664062 0-1.6259766-.2167969-3.1289062-.6474609-4.5078125-.4316406-1.3769531-1.0791016-2.5722656-1.9423828-3.5859375-.8642578-1.0117188-1.9511719-1.8085938-3.2617188-2.390625-1.3125-.5800781-2.8476562-.8710938-4.6074219-.8710938-2.0253906 0-3.8027344.3486328-5.3291016 1.0458984-1.5273438.6972656-2.8310547 1.6689453-3.9091797 2.9130859-1.0800781 1.2460938-1.9355469 2.7324219-2.5654297 4.4580078-.6308594 1.7265625-1.0458984 3.6035156-1.2451172 5.6279297h21.1171876zM513.0195312 315.6172485h5.7773438c1.3945312 0 2.0917969-.765625 2.0917969-2.2988281v-25.7910156h-37.8515625v25.7910156c0 .7666016.1572266 1.3417969.4726562 1.7246094s.8544922.5742188 1.6191406.5742188h5.6777344v4.3828125h-23.90625v-4.3828125h5.6777344c.7636719 0 1.3027344-.1904297 1.6191406-.5722656.3144531-.3818359.4726562-.9541016.4726562-1.71875v-54.3867188c0-.7636719-.1582031-1.3359375-.4726562-1.71875-.3164062-.3808594-.8554688-.5722656-1.6191406-.5722656h-5.6777344v-4.3828278h23.90625v4.3828278h-5.6777344c-.7646484 0-1.3037109.1914062-1.6191406.5722656-.3154297.3828125-.4726562.9550781-.4726562 1.71875v23.8066406h37.8515625v-23.8066406c0-1.5263672-.6972656-2.2910156-2.0917969-2.2910156h-5.7773438v-4.3828278h24.0058594v4.3828278h-5.7773438c-1.328125 0-1.9921875.7646484-1.9921875 2.2910156v54.3867188c0 1.5273438.6640625 2.2910156 1.9921875 2.2910156h5.7773438v4.3828125h-24.0058594v-4.3828126zM552.2333984 274.2793579c.6972656-.4306641 1.5761719-.8291016 2.6396484-1.1953125 1.0625-.3652344 2.2490234-.671875 3.5615234-.921875 1.3105469-.2480469 2.7304688-.4394531 4.2578125-.5722656 1.5263672-.1318359 3.1201172-.1992188 4.78125-.1992188 3.0205078 0 5.578125.2734375 7.6699219.8222656 2.0917969.546875 3.7763672 1.3945312 5.0546875 2.5390625 1.2783203 1.1464844 2.1992188 2.5898438 2.7646484 4.3339844.5644531 1.7421875.8466797 3.7929688.8466797 6.1503906v27.2929688c0 1.2949219.2402344 2.1337891.7226562 2.515625.4804688.3818359 1.3017578.5722656 2.4648438.5722656h3.5859375v4.3828125c-.4316406.0664062-.9707031.140625-1.6191406.2246094-.6464844.0820312-1.34375.1650391-2.0917969.2480469-.7460938.0830078-1.5107422.1572266-2.2910156.2246094-.7802734.0664062-1.5361328.0996094-2.265625.0996094-1.1289062 0-2.0595703-.125-2.7890625-.3730469-.7304688-.25-1.3203125-.6054688-1.7675781-1.0712891-.4492188-.4648438-.7646484-1.0458984-.9472656-1.7431641s-.2734375-1.4941406-.2734375-2.390625v-.2988281h-.3984375c-.6308594.6972656-1.3691406 1.4033203-2.2167969 2.1171875-.8457031.7138672-1.8173828 1.3691406-2.9130859 1.9667969s-2.3330078 1.078125-3.7099609 1.4443359c-1.3789062.3652344-2.9140625.5478516-4.6074219.5478516-2.2587891 0-4.2509766-.3320312-5.9765625-.9960938-1.7265625-.6640625-3.1708984-1.5761719-4.3330078-2.7392578-1.1630859-1.1621094-2.0419922-2.53125-2.6396484-4.1083984s-.8964844-3.2792969-.8964844-5.1054688c0-9.2304688 6.4746094-13.8457031 19.4238281-13.8457031h7.7695312v-7.171875c0-1.8251953-.1914062-3.3691406-.5722656-4.6318359-.3828125-1.2617188-1.0214844-2.2910156-1.9179688-3.0878906s-2.0595703-1.3701172-3.4863281-1.7177734c-1.4277344-.3496094-3.1875-.5234375-5.2792969-.5234375-2.5898438 0-4.9140625.2167969-6.9726562.6474609-2.0595703.4316406-3.6855469.9794922-4.8808594 1.6435547h-.6972656v-5.0800782zm23.8066407 24.3046875h-6.7734375c-2.2587891 0-4.1757812.1816406-5.7519531.5449219-1.578125.3632812-2.8564453.9082031-3.8359375 1.6337891-.9794922.7265625-1.6855469 1.6259766-2.1162109 2.6982422-.4316406 1.0722656-.6474609 2.3183594-.6474609 3.7373047 0 2.6416016.7470703 4.6552734 2.2412109 6.0410156 1.4941406 1.3867188 3.6679688 2.0791016 6.5244141 2.0791016 1.1953125 0 2.3408203-.1728516 3.4365234-.5195312s2.0917969-.7841797 2.9882812-1.3125c.8964844-.5273438 1.6845703-1.1054688 2.3662109-1.7324219.6796875-.6279297 1.2021484-1.2216797 1.5683594-1.7822266v-11.3876954zM603.5986328 274.2793579c.6972656-.4306641 1.5761719-.8291016 2.6396484-1.1953125 1.0625-.3652344 2.2490234-.671875 3.5615234-.921875 1.3105469-.2480469 2.7304688-.4394531 4.2578125-.5722656 1.5263672-.1318359 3.1201172-.1992188 4.78125-.1992188 3.0205078 0 5.578125.2734375 7.6699219.8222656 2.0917969.546875 3.7763672 1.3945312 5.0546875 2.5390625 1.2783203 1.1464844 2.1992188 2.5898438 2.7646484 4.3339844.5644531 1.7421875.8466797 3.7929688.8466797 6.1503906v27.2929688c0 1.2949219.2402344 2.1337891.7226562 2.515625.4804688.3818359 1.3017578.5722656 2.4648438.5722656h3.5859375v4.3828125c-.4316406.0664062-.9707031.140625-1.6191406.2246094-.6464844.0820312-1.34375.1650391-2.0917969.2480469-.7460938.0830078-1.5107422.1572266-2.2910156.2246094-.7802734.0664062-1.5361328.0996094-2.265625.0996094-1.1289062 0-2.0595703-.125-2.7890625-.3730469-.7304688-.25-1.3203125-.6054688-1.7675781-1.0712891-.4492188-.4648438-.7646484-1.0458984-.9472656-1.7431641s-.2734375-1.4941406-.2734375-2.390625v-.2988281h-.3984375c-.6308594.6972656-1.3691406 1.4033203-2.2167969 2.1171875-.8457031.7138672-1.8173828 1.3691406-2.9130859 1.9667969s-2.3330078 1.078125-3.7099609 1.4443359c-1.3789062.3652344-2.9140625.5478516-4.6074219.5478516-2.2587891 0-4.2509766-.3320312-5.9765625-.9960938-1.7265625-.6640625-3.1708984-1.5761719-4.3330078-2.7392578-1.1630859-1.1621094-2.0419922-2.53125-2.6396484-4.1083984s-.8964844-3.2792969-.8964844-5.1054688c0-9.2304688 6.4746094-13.8457031 19.4238281-13.8457031h7.7695312v-7.171875c0-1.8251953-.1914062-3.3691406-.5722656-4.6318359-.3828125-1.2617188-1.0214844-2.2910156-1.9179688-3.0878906s-2.0595703-1.3701172-3.4863281-1.7177734c-1.4277344-.3496094-3.1875-.5234375-5.2792969-.5234375-2.5898438 0-4.9140625.2167969-6.9726562.6474609-2.0595703.4316406-3.6855469.9794922-4.8808594 1.6435547h-.6972656v-5.0800782zm23.8066406 24.3046875h-6.7734375c-2.2587891 0-4.1757812.1816406-5.7519531.5449219-1.578125.3632812-2.8564453.9082031-3.8359375 1.6337891-.9794922.7265625-1.6855469 1.6259766-2.1162109 2.6982422-.4316406 1.0722656-.6474609 2.3183594-.6474609 3.7373047 0 2.6416016.7470703 4.6552734 2.2412109 6.0410156 1.4941406 1.3867188 3.6679688 2.0791016 6.5244141 2.0791016 1.1953125 0 2.3408203-.1728516 3.4365234-.5195312s2.0917969-.7841797 2.9882812-1.3125c.8964844-.5273438 1.6845703-1.1054688 2.3662109-1.7324219.6796875-.6279297 1.2021484-1.2216797 1.5683594-1.7822266v-11.3876954zM651.578125 315.6172485h4.6816406c1.3945312 0 2.0917969-.7636719 2.0917969-2.2910156v-34.265625c0-1.5263672-.6972656-2.2910156-2.0917969-2.2910156h-4.6816406v-4.3828125h12.4511719c.7636719 0 1.3027344.1738281 1.6191406.5234375.3144531.3476562.4726562.9042969.4726562 1.6679688v3.2871094h.3984375c.8291016-.8291016 1.7675781-1.6347656 2.8144531-2.4160156 1.0449219-.7792969 2.1982422-1.46875 3.4609375-2.0664062 1.2617188-.5976562 2.6308594-1.078125 4.109375-1.4443359 1.4765625-.3652344 3.0625-.5478516 4.7558594-.5478516 4.8134766 0 8.3417969 1.1699219 10.5839844 3.5117188 2.2402344 2.3398438 3.3613281 5.8193359 3.3613281 10.4335938v27.9902344c0 .7646484.1572266 1.3369141.4726562 1.71875s.8544922.5722656 1.6191406.5722656h4.6816406V320l-21.3164061.000061v-4.3828125h4.6816406c.7636719 0 1.3027344-.1904297 1.6191406-.5722656.3144531-.3818359.4726562-.9541016.4726562-1.71875v-26.1972656c0-3.453125-.7646484-5.9267578-2.2910156-7.4208984-1.5273438-1.4941406-3.8525391-2.2412109-6.9726562-2.2412109-2.6894531 0-5.0888672.53125-7.1972656 1.59375-2.1083984 1.0634766-3.859375 2.2910156-5.2539062 3.6855469v30.5800781c0 .7646484.1572266 1.3369141.4726562 1.71875s.8544922.5722656 1.6191406.5722656h4.6816406v4.3828125H651.578125v-4.3828126z" style="fill:#b5b0a6"/><path d="M299.5234375 97.9995117h67.0400391v16h-46.3999023v29.2797852h40.3198242v15.8398438h-40.3198242v31.6801758h48.4799805v15.9995117h-69.1201172V97.9995117zM391.8417969 97.9995117h20.640625v92.7998047h42.4003906v15.9995117h-63.0410156V97.9995117zM475.5214844 97.9995117h20.6396484v108.7993164h-20.6396484V97.9995117zM526.7197266 97.9995117h67.0400391v16H547.359375v29.2797852h40.3203125v15.8398438H547.359375v31.6801758h48.4794922v15.9995117h-69.1191406V97.9995117zM619.0390625 97.9995117h40.3193359c12.3730469 0 21.6523438 2.8271484 27.8398438 8.4799805 6.1855469 5.6547852 9.2802734 13.4399414 9.2802734 23.3598633 0 7.5751953-2.0800781 13.8149414-6.2402344 18.7197266-4.1591797 4.9077148-9.5996094 8.5351562-16.3193359 10.8803711l31.1992188 47.359375h-23.359375l-27.2001953-43.0395508H639.678711v43.0395508h-20.6396484V97.9995117zm33.4394531 50.5595703c8 0 13.7324219-1.5722656 17.2001953-4.7197266 3.4648438-3.1450195 5.2001953-7.6000977 5.2001953-13.3598633 0-5.9726562-1.7353516-10.2651367-5.2001953-12.8803711-3.4677734-2.6123047-8.2402344-3.9199219-14.3203125-3.9199219h-15.6796875v34.8798828h12.7998047zM64 64h140l-10.7163086 33.9995117h87.6801758v15.8398438h-33.6000977v92.9594727L64 206.7987976V64z" style="fill:#90897a"/><path d="M84.4800034 114h142.4037933v63H84.4800034z" style="fill:#2d1c01"/><path d="M144.1235352 97.9995117h24.6401367l38.8798828 108.7993164h-21.7597656l-9.4399414-27.5195312H134.84375l-9.2802734 27.5195312h-20.4799805l39.0400391-108.7993164zm27.040039 65.5996094-9.2797852-27.3598633c-.215332-.5322266-.6152344-1.7851562-1.2001953-3.7597656-.5874023-1.9726562-1.199707-4.0527344-1.8398438-6.2402344-.6401367-2.1850586-1.2275391-4.2124023-1.7602539-6.0800781-.534668-1.8647461-.8549805-3.012207-.9599609-3.4399414h-.6396484c-.1079102.4277344-.4277344 1.5751953-.9599609 3.4399414-.5351562 1.8676758-1.1479492 3.8950195-1.840332 6.0800781-.6948242 2.1875-1.3349609 4.2675781-1.9199219 6.2402344-.5874023 1.9746094-.9873047 3.2275391-1.2001953 3.7597656l-9.2797852 27.3598633h30.8798828z" style="fill:#fff5e6"/></svg>
