<svg xmlns="http://www.w3.org/2000/svg" width="1584" height="1056" viewBox="0 0 1584 1056"><style>.a{fill:#004FA8;}.b{fill:#FFF;}</style><rect width="1584" height="1056" fill="#EDF7F8"/><rect x="72" y="48" width="1440" height="960" fill="#267AD9"/><rect x="72" y="838" width="1440" height="170" fill="#22282F"/><path d="M1512 687.6103516c0-0.003479 0-0.006897 0-0.010376C1512 334.0411987 1189.6450195 48 792 48S72 334.0411987 72 687.5999756h56.4005585l323.8573608-203.9999695h686.5421143l287.9996338 203.9999695H1512V687.6103516z" fill="#4189DD"/><polygon points="795.3995361 435.7653503 944.5648193 545.9080811 885.9074707 370.0075073 1036.7540283 262.178894 851.3364868 263.6090698 795.3995361 86.8246078 739.4625854 263.6090698 554.045105 262.178894 704.8916016 370.0075073 646.2342529 545.9080811 " style="fill:#FFF;stroke-width:10;stroke:#267AD9"/><path d="M792 367.725708c-316.6641235 0-590.3463745 110.915802-720 271.8148804v103.281189 26.7925415 53.585144h1440v-53.585144 -26.7925415 -103.281189C1382.3464355 478.64151 1108.6640625 367.725708 792 367.725708zM929.5 535.6732788L792 637.690979 654.4866943 535.6732788H929.5zM160.2266235 742.8217773L432 560.2973022l249.9363403 182.5244751H160.2266235zM902.0636597 742.8217773L1152 560.2973022l271.7736816 182.5244751H902.0636597z" class="a"/><rect x="417.6000061" y="553.7999878" width="28.7999992" height="200.3999939" class="a"/><rect x="1137.5999756" y="553.7999878" width="28.7999992" height="200.3999939" class="a"/><path d="M711.2738037 371.6000061l-52.0897827 156.665863L795.2999878 427.758667l136.1160278 100.5072021 -51.7160034-156.2060852c-27.6123047-1.7476196-56.015564-2.90979-84.4000244-2.90979C766.9155884 369.1499939 738.8861084 369.8523865 711.2738037 371.6000061z" style="fill:#BDDCFF;stroke-width:3;stroke:#99C9FF"/><path d="M236.5603333 837.0087891V598.4980469c0 0 31.3734436-7.8425293 64.8861389-7.8425293 56.3298645 0 81.9993286 27.8087158 81.9993286 62.0338135 0 35.6513062-31.3734436 50.6245728-31.3734436 50.6245728s54.1906128 8.9128418 54.1906128 65.6005249c0 50.9817505-38.1476746 75.9381714-94.1210022 75.9381714C266.1510925 844.8526001 236.5603333 837.0087891 236.5603333 837.0087891zM295.3859558 689.7667847c35.6519165 0 44.9212646-15.3292236 44.9212646-33.156189 0-18.8945923-13.9043579-29.2335205-34.2257385-29.2335205 -13.1912842 0-22.4606323 2.1379395-22.4606323 2.1379395v60.25177H295.3859558zM283.6208496 803.8526001c0 0 9.9824219 2.4951172 26.7384338 2.4951172 27.0956421 0 49.1997375-10.6948242 49.1997375-39.215332 0-27.4528198-18.5387268-41.3571777-62.3903809-41.3571777h-13.5477905V803.8526001z" class="b"/><path d="M437.2721558 593.5078125h47.4170227v175.7625122c0 23.1743774 9.625885 37.7918091 34.2257385 37.7918091 24.9564209 0 34.5823364-14.6174316 34.5823364-37.7918091V593.5078125h47.4169922v174.6922607c0 53.8353882-29.5913696 78.0786743-81.9993286 78.0786743 -52.4085388 0-81.6427612-24.2432861-81.6427612-77.7214966V593.5078125z" class="b"/><path d="M646.9013062 592.9833984h47.4169922v209.2758179h76.6512451v39.2166138H646.9013062V592.9833984z" class="b"/><path d="M794.1394043 791.7302856c0 0 37.078064 14.6174316 64.8867798 14.6174316 27.8074341 0 37.7905273-13.1912231 37.7905273-32.0858765 0-54.9042969-96.9733276-58.4684448-96.9733276-129.4163208 0-40.9987183 31.7299805-55.6161499 66.6694946-55.6161499 36.7214966 0 61.3207397 10.6948853 61.3207397 10.6948853l-9.9818115 36.3656006c0 0-23.8874512-7.843811-46.3474121-7.843811 -13.5484619 0-24.6005249 4.2771606-24.6005249 17.4684448 0 35.6525269 98.0422974 46.3486938 98.0422974 129.0604248 0 39.9297485-23.5302734 70.5907593-80.5725708 70.5907593 -40.2868652 0-82.7124023-18.1828003-82.7124023-18.1828003L794.1394043 791.7302856z" class="b"/><path d="M979.5206909 593.5078125h47.4176636v91.2686768h71.303833v-91.2686768h47.4163818v248.4924927h-47.4163818V723.9918823h-71.303833v118.0084229h-47.4176636V593.5078125z" class="b"/><path d="M1275.427002 588.5150146c65.6004639 0 91.2686768 63.4612427 91.2686768 134.4078979 0 73.0858765-26.3812256 124.0689087-94.4769287 124.0689087 -67.3824463 0-91.2686768-50.9830322-91.2686768-124.0689087C1180.9500732 651.9762573 1210.5408936 588.5150146 1275.427002 588.5150146zM1318.2089844 722.9229126c0-48.4853516-14.2602539-94.8341064-44.5640869-94.8341064 -29.947876 0-44.2081299 46.3487549-44.2081299 94.8341064 0 49.199707 13.5471191 84.4951172 44.2081299 84.4951172C1304.6618652 807.4180298 1318.2089844 772.1226196 1318.2089844 722.9229126z" class="b"/></svg>
