<?xml version="1.0" encoding="utf-8"?>
<svg version="1.1" id="Layer_1" xmlns="http://www.w3.org/2000/svg" xml:space="preserve" viewBox="0 0 800 800"><style>.st2{fill:#ccf6ff}.st3{fill:#222b59}.st4{fill:#3020df}.st5{fill:#d6f8ff}</style><path d="M759.5 716.8c0 23.857-19.343 43.2-43.2 43.2H82.7c-23.857 0-43.2-19.343-43.2-43.2V83.2C39.5 59.343 58.843 40 82.7 40h633.6c23.857 0 43.2 19.343 43.2 43.2v633.6z" fill="#7881dd"/><path fill="#5b64c8" d="M111.5 112h576v576h-576z"/><path class="st2" d="M298.7 472c0 11.932-9.675 21.6-21.6 21.6h-144c-11.928 0-21.6-9.668-21.6-21.6V328c0-11.932 9.672-21.6 21.6-21.6h144c11.925 0 21.6 9.668 21.6 21.6v144z"/><path class="st3" d="M298.7 277.6c0 11.932-9.675 21.6-21.6 21.6h-144c-11.928 0-21.6-9.668-21.6-21.6v-144c0-11.932 9.672-21.6 21.6-21.6h144c11.925 0 21.6 9.668 21.6 21.6v144zM687.5 277.6c0 11.932-9.675 21.6-21.6 21.6h-144c-11.925 0-21.6-9.668-21.6-21.6v-144c0-11.932 9.675-21.6 21.6-21.6h144c11.925 0 21.6 9.668 21.6 21.6v144zM471.5 112h-144c-11.928 0-21.6 9.668-21.6 21.6v144c0 11.932 9.672 21.6 21.6 21.6h10.8c1.143 7.2 5.154 21.6 16.826 21.6h88.748c11.468 0 15.49-14.4 16.826-21.6h10.8c11.925 0 21.6-9.668 21.6-21.6v-144c0-11.932-9.675-21.6-21.6-21.6zM687.5 472V328c0-11.925-9.668-21.6-21.6-21.6h-144c-11.932 0-21.6 9.675-21.6 21.6v10.8c-7.2 1.139-21.6 5.154-21.6 16.826v88.748c0 11.468 14.4 15.49 21.6 16.826V472c0 11.925 9.668 21.6 21.6 21.6h144c11.932 0 21.6-9.675 21.6-21.6z"/><path class="st2" d="M181.444 159.88v35.482h54.463v11.883h-54.463v37.027h62.95V256h-75.29V148h73.283v11.88h-60.943zM372.166 243.383h70.478l-.148 11.422h-86.108v-9.62l69.725-84.005h-67.77v-11.574h83.556v9.62l-69.733 84.157zM570.247 159.88v35.482h54.464v11.883h-54.464v37.027h62.943V256H557.9V148h73.28v11.88h-60.933zM570.247 354.28v35.482h54.464v11.883h-54.464v37.027h62.943V450.4H557.9v-108h73.28v11.88h-60.933z"/><path class="st4" d="M242.158 429.327v20.989h-66.913V351.71h25.073v77.617h41.84z"/><path class="st5" d="M475.1 410.807c0 47.714-38.686 86.393-86.393 86.393-47.71 0-86.407-38.68-86.407-86.393 0-47.71 38.696-86.407 86.407-86.407 47.707 0 86.393 38.696 86.393 86.407z"/><ellipse class="st4" cx="388.7" cy="459.4" rx="46.8" ry="25.2"/><path d="M388.7 320.793c-49.704 0-90 40.296-90 90s40.296 90 90 90 90-40.296 90-90-40.296-90-90-90zm0 158.407c-37.78 0-68.4-30.62-68.4-68.4s30.62-68.4 68.4-68.4c37.786 0 68.4 30.62 68.4 68.4s-30.614 68.4-68.4 68.4z" fill="#99c3ff"/><circle class="st4" cx="388.7" cy="396.4" r="25.2"/><path class="st2" d="M298.7 666.4c0 11.932-9.672 21.6-21.6 21.6h-144c-11.928 0-21.6-9.668-21.6-21.6v-144c0-11.932 9.672-21.6 21.6-21.6h144c11.928 0 21.6 9.668 21.6 21.6v144zM493.1 666.4c0 11.932-9.675 21.6-21.6 21.6h-144c-11.928 0-21.6-9.668-21.6-21.6v-144c0-11.932 9.672-21.6 21.6-21.6h144c11.925 0 21.6 9.668 21.6 21.6v144zM687.5 666.4c0 11.932-9.675 21.6-21.6 21.6h-144c-11.925 0-21.6-9.668-21.6-21.6v-144c0-11.932 9.675-21.6 21.6-21.6h144c11.925 0 21.6 9.668 21.6 21.6v144z"/><path class="st5" d="M388.7 342.4c-37.78 0-68.4 30.62-68.4 68.4s30.62 68.4 68.4 68.4c37.772 0 68.4-30.62 68.4-68.4s-30.628-68.4-68.4-68.4zm0 133.2c-35.79 0-64.8-29.01-64.8-64.8 0-35.782 29.01-64.8 64.8-64.8s64.8 29.018 64.8 64.8c0 35.79-29.011 64.8-64.8 64.8z"/><path class="st4" d="M246.13 586.363V634h-24.092v-40.908c0-8.838-5.193-14.294-13.317-14.294-8.82 0-14.425 6.3-15.412 15.272V634h-24.233v-75.516h24.233v12.333c5.333-8.831 14.013-13.31 25.224-13.45 16.675 0 27.598 11.348 27.598 28.996zM437.855 633.972h-24.243v-12.473c-5.21 8.972-13.61 13.457-24.546 13.457-16.404 0-27.067-11.229-27.067-28.891V558.4h24.26v40.802c0 8.98 4.91 14.443 12.619 14.443 9.249-.141 14.734-7.72 14.734-17.944V558.4h24.243v75.572zM605.712 558.4h26.515l-23.99 36.752L633.907 634h-27.906l-13.739-23.702L576.835 634h-26.648l25.812-38.707-24.14-36.893h27.768l12.635 21.748 13.45-21.748z"/></svg>
