<svg xmlns="http://www.w3.org/2000/svg" width="1200" height="800" viewBox="0 0 1200 800"><style>.a{fill:#CCF6FF;}.b{fill:#222B59;}.c{fill:#3020DF;}.d{fill:#D6F8FF;}</style><path d="M960 716.7999878C960 740.6572266 940.6572266 760 916.7999878 760H283.2000122C259.3429565 760 240 740.6572266 240 716.7999878V83.1999969C240 59.3429451 259.3429565 40 283.2000122 40h633.5999756C940.6572266 40 960 59.3429451 960 83.1999969V716.7999878z" fill="#7881DD"/><rect x="312" y="112" width="576" height="576" fill="#5B64C8"/><path d="M499.2000122 472c0 11.9318542-9.6746521 21.6000061-21.6000061 21.6000061h-144C321.6717529 493.6000061 312 483.9318542 312 472V328c0-11.9318542 9.6717529-21.6000061 21.6000061-21.6000061h144c11.925354 0 21.6000061 9.6681519 21.6000061 21.6000061V472z" class="a"/><path d="M499.2000122 277.6000061c0 11.9318237-9.6746521 21.6000061-21.6000061 21.6000061h-144C321.6717529 299.2000122 312 289.5318298 312 277.6000061v-144C312 121.6681595 321.6717529 112 333.6000061 112h144c11.925354 0 21.6000061 9.6681595 21.6000061 21.6000061V277.6000061z" class="b"/><path d="M888 277.6000061c0 11.9318237-9.6746216 21.6000061-21.5999756 21.6000061h-144c-11.9246826 0-21.6000366-9.6681824-21.6000366-21.6000061v-144c0-11.9318466 9.675354-21.6000061 21.6000366-21.6000061h144C878.3253784 112 888 121.6681595 888 133.6000061V277.6000061z" class="b"/><path d="M672 112H528c-11.9282227 0-21.6000061 9.6681595-21.6000061 21.6000061v144c0 11.9318237 9.6717834 21.6000061 21.6000061 21.6000061h10.7999878c1.1426392 7.1999817 5.1537476 21.5999756 16.8256836 21.5999756h88.7486572c11.4681396 0 15.4900513-14.3999939 16.8256836-21.5999756H672c11.925354 0 21.5999756-9.6681824 21.5999756-21.6000061v-144C693.5999756 121.6681595 683.925354 112 672 112z" class="b"/><path d="M888 472V328c0-11.9246521-9.6681519-21.6000061-21.5999756-21.6000061h-144c-11.9318848 0-21.6000366 9.675354-21.6000366 21.6000061v10.7999878c-7.2000122 1.1390381-21.5999756 5.1537781-21.5999756 16.8256836v88.7486572c0 11.4681396 14.3999634 15.4900818 21.5999756 16.8256836V472c0 11.925354 9.6681519 21.6000061 21.6000366 21.6000061h144C878.3318481 493.6000061 888 483.925354 888 472z" class="b"/><path d="M381.9436951 159.8792725v35.4830475h54.4636536v11.8828735h-54.4636536v37.0267334h62.9503174V256h-75.2904053V148h73.28302v11.8792725H381.9436951z" class="a"/><path d="M572.6658936 243.3827209h70.4779663l-0.147644 11.4220734h-86.1083984v-9.6192017l69.7255249-84.0052795h-67.7706909v-11.5739899h83.5559692v9.6192017L572.6658936 243.3827209z" class="a"/><path d="M770.746582 159.8792725v35.4830475h54.4643555v11.8828735H770.746582v37.0267334h62.9438477V256h-75.2904053V148h73.2794189v11.8792725H770.746582z" class="a"/><path d="M770.746582 354.2792664v35.4830627h54.4643555v11.8828735H770.746582v37.0267029h62.9438477v11.7280884h-75.2904053v-108h73.2794189v11.8792725H770.746582z" class="a"/><path d="M442.6583862 429.3270264v20.988739h-66.9131775v-98.6061707h25.0732727v77.6174316H442.6583862z" class="c"/><path d="M675.5999756 410.8071899c0 47.7136841-38.6855469 86.3928223-86.3927612 86.3928223 -47.7108154 0-86.4072266-38.6791382-86.4072266-86.3928223 0-47.7107849 38.6964111-86.407196 86.4072266-86.407196C636.9144287 324.3999939 675.5999756 363.096405 675.5999756 410.8071899z" class="d"/><ellipse cx="589.2000122" cy="459.3999939" rx="46.7999992" ry="25.2000008" class="c"/><path d="M589.2000122 320.7927856c-49.7037964 0-90 40.2962646-90 90s40.2962036 90 90 90c49.7037354 0 90-40.2962341 90-90S638.9037476 320.7927856 589.2000122 320.7927856zM589.2000122 479.2000122c-37.7791138 0-68.4000244-30.6208801-68.4000244-68.4000244s30.6209106-68.3999939 68.4000244-68.3999939c37.7855835 0 68.3999634 30.6208801 68.3999634 68.3999939S626.9855957 479.2000122 589.2000122 479.2000122z" fill="#99C3FF"/><circle cx="589.2000122" cy="396.3999939" r="25.2000008" class="c"/><path d="M499.2000122 666.4000244c0 11.9318237-9.6717834 21.5999756-21.6000061 21.5999756h-144C321.6717529 688 312 678.3318481 312 666.4000244v-144c0-11.9318542 9.6717529-21.6000366 21.6000061-21.6000366h144c11.9282227 0 21.6000061 9.6681824 21.6000061 21.6000366V666.4000244z" class="a"/><path d="M693.5999756 666.4000244C693.5999756 678.3318481 683.925354 688 672 688H528c-11.9282227 0-21.6000061-9.6681519-21.6000061-21.5999756v-144c0-11.9318542 9.6717834-21.6000366 21.6000061-21.6000366h144c11.925354 0 21.5999756 9.6681824 21.5999756 21.6000366V666.4000244z" class="a"/><path d="M888 666.4000244C888 678.3318481 878.3253784 688 866.4000244 688h-144c-11.9246826 0-21.6000366-9.6681519-21.6000366-21.5999756v-144c0-11.9318542 9.675354-21.6000366 21.6000366-21.6000366h144c11.925354 0 21.5999756 9.6681824 21.5999756 21.6000366V666.4000244z" class="a"/><path d="M589.2000122 342.3999939c-37.7791138 0-68.4000244 30.6208801-68.4000244 68.3999939s30.6209106 68.4000244 68.4000244 68.4000244c37.7719116 0 68.3999634-30.6208801 68.3999634-68.4000244S626.9719238 342.3999939 589.2000122 342.3999939zM589.2000122 475.6000061c-35.7890625 0-64.7999878-29.0109558-64.7999878-64.8000183C524.4000244 375.018158 553.4109497 346 589.2000122 346 624.9890137 346 654 375.018158 654 410.7999878 654 446.5890503 624.9890137 475.6000061 589.2000122 475.6000061z" class="d"/><path d="M446.6306458 586.3633423V634h-24.0926514v-40.9075317c0-8.8386841-5.192627-14.2948608-13.3171082-14.2948608 -8.8207397 0-14.4244995 6.2999878-15.412323 15.2719116V634H369.575531v-75.5157471h24.2330322v12.3328857c5.3330383-8.831543 14.0133667-13.3099365 25.2244873-13.4510498C435.7075195 557.3660889 446.6306458 568.7147217 446.6306458 586.3633423z" class="c"/><path d="M638.3551025 633.9719238h-24.243103v-12.4732666c-5.2106323 8.9719238-13.609436 13.4575195-24.5462646 13.4575195 -16.4037476 0-27.0669556-11.229126-27.0669556-28.8914795v-47.6646729h24.2611694v40.8023682c0 8.979126 4.9082031 14.4425049 12.617981 14.4425049 9.2490845-0.1411133 14.7340698-7.7205811 14.7340698-17.9438477v-37.3010254h24.243103V633.9719238z" class="c"/><path d="M806.2123413 558.4000244h26.5147095l-23.9904175 36.7523804L834.4075317 634h-27.9064941l-13.7390137-23.7023926L777.3352661 634h-26.6486206l25.8120117-38.7072144 -24.1387329-36.8927612h27.7667847l12.6353149 21.7475586L806.2123413 558.4000244z" class="c"/></svg>
