<?xml version="1.0" encoding="utf-8"?>
<svg xmlns="http://www.w3.org/2000/svg" viewBox="0 0 170 96"><style>.st2{fill:#082545}.st3{fill:#0f4a8a}</style><g id="Layer_7"><rect width="170" height="96" fill="#fff"></rect><path opacity=".45" fill="#e6b61a" d="M167 31L15 45 0 28l152-14z"/><path opacity=".25" fill="#12b7f3" d="M151 58l-86-3 6-15h88z"/></g><g id="Layer_4"><path class="st2" d="M28.025 16.614c0 2.24-.288 4.25-.864 6.032-.576 1.781-1.472 3.184-2.688 4.208-1.216 1.024-2.763 1.536-4.64 1.536-1.963 0-3.547-.523-4.751-1.568-1.206-1.045-2.092-2.459-2.657-4.24-.565-1.781-.848-3.781-.848-6 0-3.776.688-6.666 2.064-8.672 1.377-2.005 3.44-3.008 6.192-3.008 1.899 0 3.45.507 4.656 1.52 1.205 1.014 2.096 2.405 2.672 4.176.576 1.77.864 3.776.864 6.016zm-13.567 0c0 3.008.442 5.312 1.327 6.912s2.224 2.4 4.016 2.4 3.125-.79 4-2.368c.875-1.579 1.312-3.893 1.312-6.944 0-3.029-.437-5.328-1.312-6.896-.875-1.568-2.197-2.352-3.968-2.352-1.813 0-3.163.79-4.048 2.368-.885 1.579-1.327 3.872-1.327 6.88zM40.729 23.43c0 1.6-.485 2.827-1.456 3.68-.971.853-2.299 1.28-3.984 1.28-.939 0-1.766-.091-2.48-.272a7.642 7.642 0 01-1.872-.72v-2.656c.512.363 1.157.677 1.936.944.778.267 1.563.4 2.352.4.96 0 1.685-.224 2.176-.672.49-.448.736-1.067.736-1.856 0-.661-.224-1.226-.672-1.696-.448-.469-1.259-.992-2.432-1.568a15.615 15.615 0 01-2.176-1.328 5.088 5.088 0 01-1.44-1.6c-.341-.608-.512-1.36-.512-2.256 0-1.387.49-2.49 1.472-3.312.98-.82 2.261-1.232 3.84-1.232.81 0 1.578.101 2.304.304a9.848 9.848 0 012.08.848l-.96 2.112a9.673 9.673 0 00-1.664-.736 5.635 5.635 0 00-1.792-.288c-.853 0-1.52.203-2 .608s-.72.939-.72 1.6c0 .683.24 1.237.72 1.664.48.427 1.317.95 2.512 1.568 1.237.661 2.219 1.355 2.944 2.08.725.725 1.088 1.76 1.088 3.104zM48.825 26.086c.299 0 .608-.032.928-.096.32-.064.608-.138.864-.224v2.112c-.32.15-.699.272-1.136.368a6.47 6.47 0 01-1.392.144c-1.195 0-2.128-.373-2.8-1.12-.672-.747-1.008-1.973-1.008-3.68V13.062h-1.856v-1.376l1.952-.832.832-3.84h1.728v3.872h3.488v2.176h-3.488v10.272c0 .917.149 1.605.448 2.064.299.459.779.688 1.44.688zM58.777 10.598c1.258 0 2.32.33 3.183.992.865.661 1.515 1.568 1.953 2.72.437 1.152.656 2.453.656 3.904v1.792H55.32c.064 4.075 1.504 6.112 4.32 6.112 1.429 0 2.837-.395 4.224-1.184v2.368a9.324 9.324 0 01-2.096.816 9.706 9.706 0 01-2.384.272c-1.515 0-2.768-.368-3.76-1.104-.992-.736-1.734-1.765-2.224-3.088-.491-1.323-.736-2.859-.736-4.608 0-2.88.533-5.099 1.6-6.656 1.066-1.557 2.57-2.336 4.512-2.336zm0 2.176c-2.07 0-3.212 1.707-3.424 5.12h6.624c-.022-1.43-.289-2.64-.8-3.632-.512-.992-1.312-1.488-2.4-1.488zM80.249 19.462c0 2.73-.545 4.901-1.633 6.512-1.088 1.611-2.699 2.416-4.832 2.416-2.005 0-3.568-.805-4.688-2.416-1.12-1.61-1.68-3.781-1.68-6.512 0-2.837.544-5.03 1.632-6.576 1.088-1.547 2.688-2.32 4.8-2.32 1.985 0 3.547.757 4.688 2.272 1.141 1.515 1.713 3.723 1.713 6.624zm-10.113 0c0 2.133.3 3.77.896 4.912s1.536 1.712 2.816 1.712c1.259 0 2.193-.56 2.8-1.68s.913-2.768.913-4.944c0-2.155-.305-3.792-.913-4.912s-1.541-1.68-2.8-1.68c-1.301 0-2.245.56-2.832 1.68s-.88 2.757-.88 4.912zM90.873 10.566c1.791 0 3.184.741 4.176 2.224s1.488 3.707 1.488 6.672c0 2.859-.492 5.061-1.473 6.608-.982 1.547-2.347 2.32-4.095 2.32-.983 0-1.84-.235-2.576-.704a5.027 5.027 0 01-1.745-1.888h-.128c.021.427.048.859.08 1.296.033.437.048.827.048 1.168v7.488h-2.656V10.886h2.176l.32 2.336h.16c.49-.875 1.077-1.536 1.76-1.984.682-.448 1.504-.672 2.465-.672zm-.545 2.272c-1.28 0-2.207.496-2.783 1.488-.576.992-.875 2.533-.897 4.624v.608c0 2.219.288 3.861.864 4.928.576 1.067 1.525 1.6 2.847 1.6 1.153 0 2.012-.565 2.577-1.696.566-1.13.85-2.773.85-4.928 0-2.133-.274-3.77-.817-4.912-.545-1.141-1.424-1.712-2.64-1.712zM105.528 10.598c1.75 0 3.014.496 3.792 1.488.779.992 1.168 2.448 1.168 4.368V28.07h-1.983l-.448-2.4h-.096c-.534.917-1.148 1.6-1.84 2.048-.694.448-1.574.672-2.64.672-1.387 0-2.449-.485-3.184-1.456-.736-.97-1.105-2.192-1.105-3.664 0-1.685.544-3.003 1.632-3.952s2.689-1.456 4.801-1.52l2.24-.096v-1.12c0-1.344-.224-2.315-.673-2.912s-1.12-.896-2.015-.896a5.85 5.85 0 00-1.824.304c-.62.203-1.249.475-1.888.816l-.832-1.984a8.37 8.37 0 012.271-.976 10.07 10.07 0 012.624-.336zm2.336 8.992l-1.823.096c-1.473.064-2.528.395-3.168.992-.64.597-.96 1.45-.96 2.56 0 1.024.213 1.776.64 2.256s1.012.72 1.76.72c1.066 0 1.924-.427 2.576-1.28.65-.853.975-2.08.975-3.68V19.59zM119.64 26.086c.298 0 .608-.032.928-.096s.609-.138.865-.224v2.112c-.32.15-.7.272-1.137.368a6.468 6.468 0 01-1.392.144c-1.195 0-2.128-.373-2.8-1.12s-1.007-1.973-1.007-3.68V13.062h-1.857v-1.376l1.952-.832.832-3.84h1.728v3.872h3.488v2.176h-3.488v10.272c0 .917.15 1.605.448 2.064.299.459.779.688 1.44.688zM126.904 3.75v6.944c0 .917-.063 1.76-.191 2.528h.191c.406-.853.982-1.504 1.729-1.952a4.694 4.694 0 012.464-.672c1.664 0 2.884.496 3.664 1.488.778.992 1.168 2.48 1.168 4.464v11.52h-2.657V16.966c0-1.408-.208-2.432-.624-3.072-.416-.64-1.093-.96-2.032-.96-1.344 0-2.299.512-2.863 1.536-.565 1.024-.849 2.592-.849 4.704v8.896h-2.655V3.75h2.655zM141.785 4.454c1.002 0 1.504.608 1.504 1.824 0 .576-.134 1.024-.4 1.344-.267.32-.635.48-1.104.48-.47 0-.848-.16-1.137-.48-.288-.32-.431-.768-.431-1.344 0-.619.138-1.077.416-1.376.277-.298.66-.448 1.152-.448zm1.28 6.432V28.07h-2.656V10.886h2.655zM152.952 10.598c1.258 0 2.32.33 3.184.992.864.661 1.514 1.568 1.952 2.72.437 1.152.656 2.453.656 3.904v1.792h-9.248c.064 4.075 1.504 6.112 4.32 6.112 1.43 0 2.837-.395 4.224-1.184v2.368a9.32 9.32 0 01-2.096.816 9.717 9.717 0 01-2.384.272c-1.515 0-2.768-.368-3.76-1.104-.992-.736-1.734-1.765-2.224-3.088-.491-1.323-.736-2.859-.736-4.608 0-2.88.533-5.099 1.6-6.656 1.067-1.557 2.57-2.336 4.512-2.336zm0 2.176c-2.07 0-3.21 1.707-3.424 5.12h6.624c-.021-1.43-.288-2.64-.8-3.632s-1.312-1.488-2.4-1.488z"/></g><g id="Layer_4_copy"><path class="st2" d="M89.593 64.39c-1.153 0-2.06-.432-2.72-1.296-.662-.865-.992-2.128-.992-3.792 0-1.045.1-2.145.304-3.296.202-1.152.5-2.288.896-3.408.395-1.12.885-2.128 1.472-3.025.587-.895 1.263-1.615 2.032-2.159a4.37 4.37 0 012.592-.816c.874 0 1.594.235 2.16.704.564.47.965 1.077 1.2 1.824h.128c.085-.598.176-1.179.272-1.744s.208-1.137.335-1.712l1.249-5.92h2.56L95.93 64.07h-2.08l.255-2.625h-.095c-.64.897-1.313 1.612-2.017 2.145-.703.533-1.504.8-2.4.8zm.895-2.208c.64 0 1.233-.245 1.777-.737.544-.49 1.029-1.135 1.456-1.935s.789-1.675 1.088-2.624.528-1.883.688-2.8c.16-.917.24-1.74.24-2.465 0-.874-.182-1.557-.545-2.048-.362-.49-.927-.735-1.695-.735-.62 0-1.19.23-1.712.687-.523.46-.982 1.068-1.377 1.825-.394.757-.73 1.594-1.008 2.511-.277.918-.49 1.84-.64 2.769-.149.928-.223 1.797-.223 2.607 0 1.963.65 2.945 1.951 2.945zM105.88 64.39c-1.578 0-2.805-.49-3.68-1.472s-1.311-2.357-1.311-4.128c0-1.621.191-3.163.576-4.624.384-1.462.922-2.763 1.615-3.904s1.515-2.037 2.465-2.689c.948-.65 2-.975 3.151-.975 1.216 0 2.165.314 2.849.944.682.629 1.023 1.541 1.023 2.735 0 1.835-.73 3.324-2.191 4.464-1.462 1.142-3.59 1.712-6.385 1.712h-.32a12 12 0 00-.192 2.08c0 2.476 1.003 3.712 3.008 3.712.64 0 1.238-.09 1.792-.271a12.97 12.97 0 001.889-.817v2.177c-.64.34-1.302.603-1.984.783-.683.182-1.452.273-2.304.273zm-1.823-9.985h.128c1.898 0 3.36-.34 4.383-1.023 1.025-.683 1.536-1.664 1.536-2.944 0-.512-.138-.923-.416-1.232-.277-.31-.704-.465-1.28-.465-.895 0-1.744.524-2.544 1.569s-1.402 2.41-1.807 4.095zM123.192 64.07l-.832-22.848h2.688l.32 14.4c.042.768.059 1.567.048 2.4s-.048 1.717-.112 2.656h.064c.404-1.238 1.013-2.774 1.824-4.609l6.56-14.847h2.848l-10.432 22.847h-2.976zM139.064 64.357c-1.515 0-2.693-.484-3.536-1.456-.842-.97-1.263-2.351-1.263-4.143 0-.917.09-1.92.271-3.008.18-1.089.464-2.17.848-3.248.385-1.077.88-2.059 1.488-2.944a7.433 7.433 0 012.192-2.128c.853-.534 1.825-.8 2.913-.8 1.492 0 2.66.496 3.503 1.487.842.992 1.264 2.385 1.264 4.177 0 1.3-.155 2.655-.464 4.063a15.624 15.624 0 01-1.424 3.937c-.64 1.216-1.44 2.197-2.4 2.943-.96.747-2.09 1.12-3.392 1.12zm.224-2.208c.726 0 1.387-.303 1.984-.912.597-.607 1.109-1.408 1.537-2.4.425-.991.752-2.074.975-3.247s.336-2.325.336-3.456c0-.939-.186-1.723-.56-2.353-.373-.629-.965-.943-1.776-.943-.832 0-1.552.33-2.16.991-.607.662-1.12 1.516-1.536 2.56a16.75 16.75 0 00-.928 3.28 18.077 18.077 0 00-.304 3.152c0 1.068.203 1.889.608 2.464.405.576 1.014.864 1.824.864zM151.513 64.39c-.854 0-1.617-.086-2.288-.256-.672-.171-1.222-.384-1.649-.64v-2.528c.427.299.987.57 1.68.815.693.246 1.371.368 2.032.368.982 0 1.744-.245 2.288-.735.544-.491.817-1.174.817-2.049 0-.596-.15-1.125-.449-1.584-.298-.458-.864-1.04-1.695-1.744-.853-.703-1.499-1.402-1.937-2.096-.437-.692-.656-1.52-.656-2.48 0-1.386.46-2.543 1.376-3.472.917-.927 2.177-1.391 3.777-1.391.874 0 1.68.106 2.416.32.736.213 1.36.49 1.872.832l-1.025 2.048c-.447-.299-.943-.544-1.487-.736s-1.126-.289-1.744-.289c-.79 0-1.414.22-1.872.657-.46.437-.689 1.018-.689 1.744 0 .576.128 1.083.385 1.52.256.437.778.965 1.567 1.583a24.635 24.635 0 011.552 1.504c.416.448.73.929.945 1.44.212.512.32 1.142.32 1.888 0 1.644-.491 2.934-1.473 3.872-.981.94-2.336 1.409-4.063 1.409z"/></g><g id="Layer_6"><path class="st3" d="M37.791 46.273L18.654 35 16.95 55.186l2.556-2.228 1.278-12.912 12.288 7.34zM54.209 46.273L73.346 35l1.704 20.186-2.556-2.228-1.278-12.912-12.288 7.34zM41.918 67.91l-2.016-5.576a1.644 1.644 0 00-1.407-1.08l-.021-.003-13.725-1.019 2.262 3.403 10.95.8 1.068 3.005 2.89.47zM50.113 67.91l2.015-5.576a1.644 1.644 0 011.408-1.08l.021-.003 13.725-1.019-2.262 3.403-10.95.8-1.068 3.005-2.89.47z"/><g><path class="st3" d="M63.963 76.683l7.832-4.195-8.913 1.049.819-4.26s-5.793 5.815-5.917 5.974a1.633 1.633 0 00-.117.16L47.021 90.053l-1.01 1.825L45 90.053 34.354 75.41a1.632 1.632 0 00-.116-.16c-.124-.159-5.917-5.974-5.917-5.974l.82 4.26-8.914-1.049 7.832 4.195-3.638 3.932 8.391-2.859L44.66 94.3l.004.02c.32.445.825.682 1.337.681h.021a1.64 1.64 0 001.338-.682l.003-.019L59.21 77.756l8.391 2.859-3.637-3.932z"/></g></g></svg>
