<?xml version="1.0" encoding="utf-8"?>
<svg xmlns="http://www.w3.org/2000/svg" viewBox="0 0 860 620"><style>.st0{fill:#e7eaee}</style><g id="Layer_1"><path class="st0" d="M481.204 586.011c-12.844-9.444-14.207-23.63-14.207-23.63l-4.808-68.77H308.745l-4.83 68.763s-1.34 14.185-14.178 23.63c-12.83 9.444-22.955 17.548-12.83 18.91 9.756 1.32 108.564 1.086 108.564 1.086s98.8.233 108.555-1.085c10.119-1.356-.007-9.445-12.822-18.904z"/><path class="st0" d="M44.688 13C28.325 13 15 26.325 15 42.688v429.687c0 16.363 13.325 29.688 29.688 29.688h36.875v-58.25H44.188V57.687h682.624V250.5H756V42.688C756 26.325 742.675 13 726.312 13H44.688zM233.75 443.812v58.25h326.875v-58.25H233.75z"/><path class="st0" d="M572.25 222.562c-20.178 0-36.25 16.385-36.25 36.563v310.312C536 589.615 552.072 606 572.25 606h237.5c20.178 0 36.25-16.385 36.25-36.563V259.125c0-20.178-16.072-36.563-36.25-36.563h-237.5zM566 273h250v292H566V273zm129.125 303.5c4.81 0 8.75 3.94 8.75 8.75s-3.94 8.75-8.75 8.75c-4.81 0-8.75-3.94-8.75-8.75s3.94-8.75 8.75-8.75zM101.875 326C89.74 326 80 339.564 80 356.313v219.375C80 592.438 89.74 606 101.875 606h111.563c12.136 0 21.875-13.563 21.875-30.312V356.313c0-16.75-9.739-30.313-21.875-30.313H101.875zm-2.5 41.25h116.563v205.938H99.375V367.25zm57.188 215.625c4.02 0 7.187 3.168 7.187 7.188s-3.167 7.187-7.187 7.187-7.5-3.167-7.5-7.187c0-4.02 3.48-7.188 7.5-7.188z"/></g></svg>
