<svg xmlns="http://www.w3.org/2000/svg" width="900" height="600" viewBox="0 0 900 600"><style>.a{fill:#89AA8A;}</style><rect width="900" height="600" fill="#FFF"/><path d="M136.536 519.788h-7.331v-37.312h-7.821v-5.62h7.821v-9.612c0-8.799 5.05-11.895 13.035-11.895 1.629 0 3.258 0.164 4.562 0.409v6.027c-0.814-0.163-2.118-0.325-3.991-0.325 -4.237 0-6.274 1.547-6.274 6.679v8.717h10.265v5.62h-10.265V519.788z" class="a"/><path d="M162.773 476.856h6.924v8.065h0.162c1.955-4.48 7.332-8.878 13.605-8.878h0.734v7.656h-1.386c-7.657 0-12.709 4.4-12.709 12.708v23.381h-7.331V476.856z" class="a"/><path d="M200.283 459.179h7.739v7.901h-7.739V459.179zM200.447 476.856h7.413v42.933h-7.413V476.856z" class="a"/><path d="M244.824 520.847c-13.116 0-19.389-9.53-19.389-22.321 0-12.708 6.843-22.73 19.145-22.73 12.871 0 17.922 9.939 17.922 20.774v3.748H232.93c0.488 8.878 4.073 14.908 12.138 14.908 7.169 0 9.043-4.155 9.776-6.681h7.088C260.384 515.96 254.029 520.847 244.824 520.847zM255.007 494.044c-0.164-7.167-3.015-12.708-10.509-12.708 -6.843 0-10.59 5.377-11.486 13.199h21.996V494.044z" class="a"/><path d="M307.542 493.313c0-3.097 0-6.518-1.547-8.556 -1.466-2.036-3.911-2.851-6.762-2.851 -7.983 0-11.65 5.134-11.65 12.138v25.744h-7.331v-42.933h6.925v7.252h0.162c2.037-4.4 7.006-8.31 13.849-8.31 8.228 0 13.686 3.91 13.686 14.094v29.897h-7.332V493.313z" class="a"/><path d="M370.677 519.788h-7.006V512.7h-0.244c-2.282 4.237-6.925 8.147-13.524 8.147 -9.124 0-17.515-5.702-17.515-22.239 0-14.746 7.657-22.811 18.493-22.811 6.436 0 10.59 3.585 12.301 7.577h0.163v-27.78h7.332V519.788zM363.507 496.652c0-9.124-4.806-14.99-11.649-14.99 -8.229 0-11.976 6.518-11.976 16.618 0 9.694 2.851 16.782 11.406 16.782 7.575 0 12.219-6.027 12.219-13.849V496.652z" class="a"/><path d="M413.256 487.611c-0.407-3.83-3.502-6.275-8.553-6.275 -5.052 0-8.391 2.933-8.391 6.925 0 3.503 2.118 5.134 6.436 5.866l6.598 0.979c8.961 1.384 12.22 5.05 12.22 12.463 0 8.635-7.006 13.279-16.782 13.279 -8.88 0-16.212-3.992-16.782-13.197h7.169c0.326 3.34 2.199 7.576 9.776 7.576 5.866 0 9.531-2.769 9.531-7.252 0-3.421-0.896-5.293-6.761-6.273l-6.6-0.977c-7.657-1.222-11.73-4.4-11.73-11.895 0-7.574 5.784-13.033 15.56-13.033 9.287 0 14.583 4.317 15.315 11.814H413.256z" class="a"/><path d="M467.195 498.281c0-13.279 7.333-22.484 19.308-22.484 12.79 0 19.145 9.205 19.145 22.484 0 13.442-7.249 22.566-19.308 22.566C473.713 520.847 467.195 511.724 467.195 498.281zM474.772 498.281c0 10.509 3.503 16.864 11.814 16.864 7.983 0 11.486-6.354 11.486-16.864 0-10.428-3.422-16.864-11.65-16.864C478.602 481.417 474.772 487.854 474.772 498.281z" class="a"/><path d="M532.716 519.788h-7.331v-37.312h-7.822v-5.62h7.822v-9.612c0-8.799 5.05-11.895 13.033-11.895 1.631 0 3.26 0.164 4.562 0.409v6.027c-0.813-0.163-2.117-0.325-3.991-0.325 -4.235 0-6.273 1.547-6.273 6.679v8.717h10.264v5.62h-10.264V519.788z" class="a"/><path d="M590.808 455.594h7.331v64.194h-7.331V455.594z" class="a"/><path d="M618.362 459.179h7.74v7.901h-7.74V459.179zM618.526 476.856h7.413v42.933h-7.413V476.856z" class="a"/><path d="M644.575 524.107h7.086c0.816 3.664 3.585 6.027 10.591 6.027 8.147 0 12.22-3.015 12.22-12.463v-6.354h-0.082c-2.199 4.235-7.249 7.901-13.685 7.901 -8.962 0-17.191-5.62-17.191-21.507 0-14.174 7.495-21.914 18.086-21.914 6.925 0 11.08 3.828 12.872 7.82h0.164v-6.761h7.006v41.874c0 12.056-7.904 17.27-19.553 17.27C653.942 536 645.552 532.985 644.575 524.107zM674.636 496c0-8.553-4.807-14.419-12.22-14.419 -7.74 0-11.407 6.436-11.407 16.13 0 9.451 2.69 15.968 11.731 15.968 6.925 0 11.895-6.029 11.895-13.36V496z" class="a"/><path d="M729.437 493.231c0-3.097 0-6.436-1.549-8.474 -1.465-2.036-3.91-2.851-6.761-2.851 -7.983 0-11.65 5.134-11.65 12.138v25.744h-7.331v-64.194h7.331v28.35h0.164c1.874-4.155 6.436-8.147 13.442-8.147 8.226 0 13.685 3.91 13.685 14.094v29.897h-7.331V493.231z" class="a"/><path d="M766.882 464.393v12.463h10.591v5.62h-10.591v25.337c0 4.562 1.874 6.354 6.518 6.354 2.199 0 4.725-0.409 4.725-0.409v6.193c0 0-3.015 0.488-6.763 0.488 -8.39 0-11.729-4.073-11.729-11.404v-26.56h-7.822v-5.375h1.304c5.784 0 7.088-1.386 7.088-9.614v-3.094H766.882z" class="a"/><path d="M302.476 231.848h-19.553v-99.502h-20.856v-14.99h20.856V91.719c0-23.463 13.47-31.719 34.761-31.719 4.345 0 8.69 0.435 12.167 1.086v16.077c-2.172-0.434-5.649-0.869-10.646-0.869 -11.296 0-16.728 4.127-16.728 17.815v23.246h27.374v14.99h-27.374V231.848z" class="a"/><path d="M406.764 174.493c0-35.413 19.552-59.962 51.488-59.962 34.11 0 51.055 24.55 51.055 59.962 0 35.847-19.335 60.18-51.488 60.18C424.144 234.672 406.764 210.34 406.764 174.493zM426.969 174.493c0 28.026 9.342 44.972 31.503 44.972 21.291 0 30.631-16.945 30.631-44.972 0-27.808-9.124-44.972-31.066-44.972C437.18 129.521 426.969 146.684 426.969 174.493z" class="a"/><path d="M601.89 60.652h19.554v171.196H601.89V60.652z" class="a"/></svg>
