<?xml version="1.0" standalone="no"?>
<!DOCTYPE svg PUBLIC "-//W3C//DTD SVG 20010904//EN"
 "http://www.w3.org/TR/2001/REC-SVG-20010904/DTD/svg10.dtd">
<svg version="1.0" xmlns="http://www.w3.org/2000/svg"
 width="700.000000pt" height="700.000000pt" viewBox="0 0 700.000000 700.000000"
 preserveAspectRatio="xMidYMid meet">
<metadata>
Created by potrace 1.14, written by Peter Selinger 2001-2017
</metadata>
<g transform="translate(0.000000,700.000000) scale(0.100000,-0.100000)"
fill="#000000" stroke="none">
<path d="M0 3500 l0 -3500 3500 0 3500 0 0 3500 0 3500 -3500 0 -3500 0 0
-3500z m3994 3003 c14 -68 276 -1543 276 -1552 0 -8 237 -11 785 -11 l785 0 0
-1750 0 -1750 -471 0 -471 0 6 -28 c13 -58 176 -976 176 -989 0 -11 -80 -13
-457 -11 l-458 3 -52 370 c-29 204 -52 371 -53 373 0 1 -255 1 -567 0 l-566
-3 -47 -250 c-26 -137 -58 -305 -70 -372 l-23 -123 -458 0 c-253 0 -459 1
-459 3 0 7 211 993 216 1010 5 16 -21 17 -455 17 l-461 0 0 1750 0 1750 833 0
832 0 170 795 169 795 407 0 407 0 6 -27z"/>
</g>
</svg>
